<?xml version="1.0" encoding="UTF-8" standalone="no"?>
<!DOCTYPE svg PUBLIC "-//W3C//DTD SVG 1.0//EN" "http://www.w3.org/TR/2001/PR-SVG-20010719/DTD/svg10.dtd">
<svg width="55cm" height="31cm" viewBox="374 440 1089 603" xmlns="http://www.w3.org/2000/svg" xmlns:xlink="http://www.w3.org/1999/xlink">
  <g>
    <rect style="fill: #ffffff" x="796.482" y="441.508" width="88.5" height="38"/>
    <rect style="fill: none; fill-opacity:0; stroke-width: 2; stroke: #000000" x="796.482" y="441.508" width="88.5" height="38"/>
    <text font-size="12.8" style="fill: #000000;text-anchor:middle;font-family:sans-serif;font-style:normal;font-weight:normal" x="840.732" y="464.408">
      <tspan x="840.732" y="464.408">CSCI1200</tspan>
    </text>
  </g>
  <g>
    <rect style="fill: #ffffff" x="596.535" y="530.068" width="75.45" height="38"/>
    <rect style="fill: none; fill-opacity:0; stroke-width: 2; stroke: #000000" x="596.535" y="530.068" width="75.45" height="38"/>
    <text font-size="12.8" style="fill: #000000;text-anchor:middle;font-family:sans-serif;font-style:normal;font-weight:normal" x="634.26" y="552.968">
      <tspan x="634.26" y="552.968">SCRIPTS</tspan>
    </text>
  </g>
  <g>
    <rect style="fill: #ffffff" x="814.648" y="534.343" width="52.45" height="38"/>
    <rect style="fill: none; fill-opacity:0; stroke-width: 2; stroke: #000000" x="814.648" y="534.343" width="52.45" height="38"/>
    <text font-size="12.8" style="fill: #000000;text-anchor:middle;font-family:sans-serif;font-style:normal;font-weight:normal" x="840.873" y="557.243">
      <tspan x="840.873" y="557.243">HW1</tspan>
    </text>
  </g>
  <g>
    <rect style="fill: #ffffff" x="780" y="641.784" width="94" height="38"/>
    <rect style="fill: none; fill-opacity:0; stroke-width: 2; stroke: #000000" x="780" y="641.784" width="94" height="38"/>
    <text font-size="12.8" style="fill: #000000;text-anchor:middle;font-family:sans-serif;font-style:normal;font-weight:normal" x="827" y="664.684">
      <tspan x="827" y="664.684">USERNAME</tspan>
    </text>
  </g>
  <g>
    <rect style="fill: #ffffff" x="728.019" y="742.579" width="40" height="38"/>
    <rect style="fill: none; fill-opacity:0; stroke-width: 2; stroke: #000000" x="728.019" y="742.579" width="40" height="38"/>
    <text font-size="12.8" style="fill: #000000;text-anchor:middle;font-family:sans-serif;font-style:normal;font-weight:normal" x="748.019" y="765.479">
      <tspan x="748.019" y="765.479">1</tspan>
    </text>
  </g>
  <g>
    <rect style="fill: #ffffff" x="897.961" y="739.446" width="54.1438" height="38"/>
    <rect style="fill: none; fill-opacity:0; stroke-width: 2; stroke: #000000" x="897.961" y="739.446" width="54.1438" height="38"/>
    <text font-size="12.8" style="fill: #000000;text-anchor:middle;font-family:sans-serif;font-style:normal;font-weight:normal" x="925.032" y="762.346">
      <tspan x="925.032" y="762.346">LAST</tspan>
    </text>
  </g>
  <g>
    <rect style="fill: #ffffff" x="806.395" y="738.382" width="40" height="38"/>
    <rect style="fill: none; fill-opacity:0; stroke-width: 2; stroke: #000000" x="806.395" y="738.382" width="40" height="38"/>
    <text font-size="12.8" style="fill: #000000;text-anchor:middle;font-family:sans-serif;font-style:normal;font-weight:normal" x="826.395" y="761.282">
      <tspan x="826.395" y="761.282">2</tspan>
    </text>
  </g>
  <g>
    <rect style="fill: #ffffff" x="475.18" y="896.887" width="56.55" height="38"/>
    <rect style="fill: none; fill-opacity:0; stroke-width: 2; stroke: #000000" x="475.18" y="896.887" width="56.55" height="38"/>
    <text font-size="12.8" style="fill: #000000;text-anchor:middle;font-family:sans-serif;font-style:normal;font-weight:normal" x="503.455" y="919.787">
      <tspan x="503.455" y="919.787">FILES</tspan>
    </text>
  </g>
  <g>
    <rect style="fill: #ffffff" x="688.3" y="900.499" width="111.3" height="38"/>
    <rect style="fill: none; fill-opacity:0; stroke-width: 2; stroke: #000000" x="688.3" y="900.499" width="111.3" height="38"/>
    <text font-size="12.8" style="fill: #000000;text-anchor:middle;font-family:sans-serif;font-style:normal;font-weight:normal" x="743.95" y="923.399">
      <tspan x="743.95" y="923.399">.submit.grade</tspan>
    </text>
  </g>
  <g>
    <rect style="fill: #ffffff" x="880.325" y="900.053" width="89.95" height="38"/>
    <rect style="fill: none; fill-opacity:0; stroke-width: 2; stroke: #000000" x="880.325" y="900.053" width="89.95" height="38"/>
    <text font-size="12.8" style="fill: #000000;text-anchor:middle;font-family:sans-serif;font-style:normal;font-weight:normal" x="925.3" y="922.953">
      <tspan x="925.3" y="922.953">.submit.no</tspan>
    </text>
  </g>
  <g>
    <rect style="fill: #ffffff" x="1062.4" y="902.017" width="94.95" height="38"/>
    <rect style="fill: none; fill-opacity:0; stroke-width: 2; stroke: #000000" x="1062.4" y="902.017" width="94.95" height="38"/>
    <text font-size="12.8" style="fill: #000000;text-anchor:middle;font-family:sans-serif;font-style:normal;font-weight:normal" x="1109.87" y="924.917">
      <tspan x="1109.87" y="924.917">.submit.out</tspan>
    </text>
  </g>
  <g>
    <rect style="fill: #ffffff" x="910.815" y="1000.88" width="118.9" height="38"/>
    <rect style="fill: none; fill-opacity:0; stroke-width: 2; stroke: #000000" x="910.815" y="1000.88" width="118.9" height="38"/>
    <text font-size="12.8" style="fill: #000000;text-anchor:middle;font-family:sans-serif;font-style:normal;font-weight:normal" x="970.265" y="1023.78">
      <tspan x="970.265" y="1023.78">test1_cout.txt</tspan>
    </text>
  </g>
  <g>
    <rect style="fill: #ffffff" x="1050.33" y="1000.38" width="118.9" height="38"/>
    <rect style="fill: none; fill-opacity:0; stroke-width: 2; stroke: #000000" x="1050.33" y="1000.38" width="118.9" height="38"/>
    <text font-size="12.8" style="fill: #000000;text-anchor:middle;font-family:sans-serif;font-style:normal;font-weight:normal" x="1109.78" y="1023.28">
      <tspan x="1109.78" y="1023.28">test1_cerr.txt</tspan>
    </text>
  </g>
  <g>
    <rect style="fill: #ffffff" x="375.82" y="1001.86" width="98.4" height="38"/>
    <rect style="fill: none; fill-opacity:0; stroke-width: 2; stroke: #000000" x="375.82" y="1001.86" width="98.4" height="38"/>
    <text font-size="12.8" style="fill: #000000;text-anchor:middle;font-family:sans-serif;font-style:normal;font-weight:normal" x="425.02" y="1024.76">
      <tspan x="425.02" y="1024.76">README.txt</tspan>
    </text>
  </g>
  <g>
    <rect style="fill: #ffffff" x="520.587" y="1000.85" width="81.35" height="38"/>
    <rect style="fill: none; fill-opacity:0; stroke-width: 2; stroke: #000000" x="520.587" y="1000.85" width="81.35" height="38"/>
    <text font-size="12.8" style="fill: #000000;text-anchor:middle;font-family:sans-serif;font-style:normal;font-weight:normal" x="561.262" y="1023.75">
      <tspan x="561.262" y="1023.75">main.cpp</tspan>
    </text>
  </g>
  <g>
    <polyline style="fill: none; fill-opacity:0; stroke-width: 2; stroke: #000000" points="840.732,480.518 840.732,506.926 840.873,506.926 840.873,523.597 "/>
    <polygon style="fill: #000000" points="840.873,531.097 835.873,521.097 840.873,523.597 845.873,521.097 "/>
    <polygon style="fill: none; fill-opacity:0; stroke-width: 2; stroke: #000000" points="840.873,531.097 835.873,521.097 840.873,523.597 845.873,521.097 "/>
  </g>
  <g>
    <polyline style="fill: none; fill-opacity:0; stroke-width: 2; stroke: #000000" points="818.607,479.508 818.607,504.788 634.26,504.788 634.26,520.332 "/>
    <polygon style="fill: #000000" points="634.26,527.832 629.26,517.832 634.26,520.332 639.26,517.832 "/>
    <polygon style="fill: none; fill-opacity:0; stroke-width: 2; stroke: #000000" points="634.26,527.832 629.26,517.832 634.26,520.332 639.26,517.832 "/>
  </g>
  <g>
    <polyline style="fill: none; fill-opacity:0; stroke-width: 2; stroke: #000000" points="853.986,572.343 853.986,619.415 827,619.415 827,632.048 "/>
    <polygon style="fill: #000000" points="827,639.548 822,629.548 827,632.048 832,629.548 "/>
    <polygon style="fill: none; fill-opacity:0; stroke-width: 2; stroke: #000000" points="827,639.548 822,629.548 827,632.048 832,629.548 "/>
  </g>
  <g>
    <polyline style="fill: none; fill-opacity:0; stroke-width: 2; stroke: #000000" points="827,679.784 827,709.083 826.395,709.083 826.395,728.645 "/>
    <polygon style="fill: #000000" points="826.395,736.145 821.395,726.145 826.395,728.645 831.395,726.145 "/>
    <polygon style="fill: none; fill-opacity:0; stroke-width: 2; stroke: #000000" points="826.395,736.145 821.395,726.145 826.395,728.645 831.395,726.145 "/>
  </g>
  <g>
    <polyline style="fill: none; fill-opacity:0; stroke-width: 2; stroke: #000000" points="803.5,679.784 803.5,711.182 748.019,711.182 748.019,732.843 "/>
    <polygon style="fill: #000000" points="748.019,740.343 743.019,730.343 748.019,732.843 753.019,730.343 "/>
    <polygon style="fill: none; fill-opacity:0; stroke-width: 2; stroke: #000000" points="748.019,740.343 743.019,730.343 748.019,732.843 753.019,730.343 "/>
  </g>
  <g>
    <polyline style="fill: none; fill-opacity:0; stroke-width: 2; stroke: #000000" points="850.5,679.784 850.5,709.615 925.032,709.615 925.032,729.71 "/>
    <polygon style="fill: #000000" points="925.032,737.21 920.032,727.21 925.032,729.71 930.032,727.21 "/>
    <polygon style="fill: none; fill-opacity:0; stroke-width: 2; stroke: #000000" points="925.032,737.21 920.032,727.21 925.032,729.71 930.032,727.21 "/>
  </g>
  <g>
    <polyline style="fill: none; fill-opacity:0; stroke-width: 2; stroke: #000000" points="806.395,776.382 806.395,836.634 503.455,836.634 503.455,887.151 "/>
    <polygon style="fill: #000000" points="503.455,894.651 498.455,884.651 503.455,887.151 508.455,884.651 "/>
    <polygon style="fill: none; fill-opacity:0; stroke-width: 2; stroke: #000000" points="503.455,894.651 498.455,884.651 503.455,887.151 508.455,884.651 "/>
  </g>
  <g>
    <polyline style="fill: none; fill-opacity:0; stroke-width: 2; stroke: #000000" points="816.395,776.382 816.395,879.376 743.95,879.376 743.95,890.763 "/>
    <polygon style="fill: #000000" points="743.95,898.263 738.95,888.263 743.95,890.763 748.95,888.263 "/>
    <polygon style="fill: none; fill-opacity:0; stroke-width: 2; stroke: #000000" points="743.95,898.263 738.95,888.263 743.95,890.763 748.95,888.263 "/>
  </g>
  <g>
    <polyline style="fill: none; fill-opacity:0; stroke-width: 2; stroke: #000000" points="846.395,776.382 846.395,839.199 1109.87,839.199 1109.87,892.281 "/>
    <polygon style="fill: #000000" points="1109.87,899.781 1104.87,889.781 1109.87,892.281 1114.87,889.781 "/>
    <polygon style="fill: none; fill-opacity:0; stroke-width: 2; stroke: #000000" points="1109.87,899.781 1104.87,889.781 1109.87,892.281 1114.87,889.781 "/>
  </g>
  <g>
    <polyline style="fill: none; fill-opacity:0; stroke-width: 2; stroke: #000000" points="836.395,776.382 836.395,877.696 925.3,877.696 925.3,889.315 "/>
    <polygon style="fill: #000000" points="925.3,896.815 920.3,886.815 925.3,889.315 930.3,886.815 "/>
    <polygon style="fill: none; fill-opacity:0; stroke-width: 2; stroke: #000000" points="925.3,896.815 920.3,886.815 925.3,889.315 930.3,886.815 "/>
  </g>
  <g>
    <polyline style="fill: none; fill-opacity:0; stroke-width: 2; stroke: #000000" points="489.317,934.887 489.317,968.375 425.02,968.375 425.02,992.128 "/>
    <polygon style="fill: #000000" points="425.02,999.628 420.02,989.628 425.02,992.128 430.02,989.628 "/>
    <polygon style="fill: none; fill-opacity:0; stroke-width: 2; stroke: #000000" points="425.02,999.628 420.02,989.628 425.02,992.128 430.02,989.628 "/>
  </g>
  <g>
    <polyline style="fill: none; fill-opacity:0; stroke-width: 2; stroke: #000000" points="517.592,934.887 517.592,967.868 561.262,967.868 561.262,991.114 "/>
    <polygon style="fill: #000000" points="561.262,998.614 556.262,988.614 561.262,991.114 566.262,988.614 "/>
    <polygon style="fill: none; fill-opacity:0; stroke-width: 2; stroke: #000000" points="561.262,998.614 556.262,988.614 561.262,991.114 566.262,988.614 "/>
  </g>
  <g>
    <polyline style="fill: none; fill-opacity:0; stroke-width: 2; stroke: #000000" points="1086.13,940.017 1086.13,970.448 970.265,970.448 970.265,991.142 "/>
    <polygon style="fill: #000000" points="970.265,998.642 965.265,988.642 970.265,991.142 975.265,988.642 "/>
    <polygon style="fill: none; fill-opacity:0; stroke-width: 2; stroke: #000000" points="970.265,998.642 965.265,988.642 970.265,991.142 975.265,988.642 "/>
  </g>
  <g>
    <polyline style="fill: none; fill-opacity:0; stroke-width: 2; stroke: #000000" points="1109.87,940.017 1109.87,970.198 1109.78,970.198 1109.78,990.643 "/>
    <polygon style="fill: #000000" points="1109.78,998.143 1104.78,988.143 1109.78,990.643 1114.78,988.143 "/>
    <polygon style="fill: none; fill-opacity:0; stroke-width: 2; stroke: #000000" points="1109.78,998.143 1104.78,988.143 1109.78,990.643 1114.78,988.143 "/>
  </g>
  <g>
    <rect style="fill: #ffffff" x="640.85" y="1002.38" width="80.95" height="38"/>
    <rect style="fill: none; fill-opacity:0; stroke-width: 2; stroke: #000000" x="640.85" y="1002.38" width="80.95" height="38"/>
    <text font-size="12.7998" style="fill: #000000;text-anchor:middle;font-family:sans-serif;font-style:normal;font-weight:normal" x="681.325" y="1025.28">
      <tspan x="681.325" y="1025.28">grade.txt</tspan>
    </text>
  </g>
  <g>
    <rect style="fill: #ffffff" x="746.322" y="1002.71" width="87.2187" height="38"/>
    <rect style="fill: none; fill-opacity:0; stroke-width: 2; stroke: #000000" x="746.322" y="1002.71" width="87.2187" height="38"/>
    <text font-size="12.7998" style="fill: #000000;text-anchor:middle;font-family:sans-serif;font-style:normal;font-weight:normal" x="789.931" y="1025.61">
      <tspan x="789.931" y="1025.61">results.txt</tspan>
    </text>
  </g>
  <g>
    <polyline style="fill: none; fill-opacity:0; stroke-width: 2; stroke: #000000" points="743.95,938.499 743.95,970.437 681.325,970.437 681.325,992.639 "/>
    <polygon style="fill: #000000" points="681.325,1000.14 676.325,990.139 681.325,992.639 686.325,990.139 "/>
    <polygon style="fill: none; fill-opacity:0; stroke-width: 2; stroke: #000000" points="681.325,1000.14 676.325,990.139 681.325,992.639 686.325,990.139 "/>
  </g>
  <g>
    <polyline style="fill: none; fill-opacity:0; stroke-width: 2; stroke: #000000" points="771.775,938.499 771.775,970.604 789.931,970.604 789.931,992.973 "/>
    <polygon style="fill: #000000" points="789.931,1000.47 784.931,990.473 789.931,992.973 794.931,990.473 "/>
    <polygon style="fill: none; fill-opacity:0; stroke-width: 2; stroke: #000000" points="789.931,1000.47 784.931,990.473 789.931,992.973 794.931,990.473 "/>
  </g>
  <g>
    <rect style="fill: #ffffff" x="1207.76" y="1002.07" width="111.8" height="38"/>
    <rect style="fill: none; fill-opacity:0; stroke-width: 2; stroke: #000000" x="1207.76" y="1002.07" width="111.8" height="38"/>
    <text font-size="12.7998" style="fill: #000000;text-anchor:middle;font-family:sans-serif;font-style:normal;font-weight:normal" x="1263.66" y="1024.97">
      <tspan x="1263.66" y="1024.97">test1_diff.json</tspan>
    </text>
  </g>
  <g>
    <polyline style="fill: none; fill-opacity:0; stroke-width: 2; stroke: #000000" points="1133.61,940.017 1133.61,971.045 1263.66,971.045 1263.66,992.337 "/>
    <polygon style="fill: #000000" points="1263.66,999.837 1258.66,989.837 1263.66,992.337 1268.66,989.837 "/>
    <polygon style="fill: none; fill-opacity:0; stroke-width: 2; stroke: #000000" points="1263.66,999.837 1258.66,989.837 1263.66,992.337 1268.66,989.837 "/>
  </g>
  <g>
    <rect style="fill: #ffffff" x="461.975" y="645.468" width="68.4" height="38"/>
    <rect style="fill: none; fill-opacity:0; stroke-width: 2; stroke: #000000" x="461.975" y="645.468" width="68.4" height="38"/>
    <text font-size="12.7998" style="fill: #000000;text-anchor:middle;font-family:sans-serif;font-style:normal;font-weight:normal" x="496.175" y="668.368">
      <tspan x="496.175" y="668.368">INPUTS</tspan>
    </text>
  </g>
  <g>
    <polyline style="fill: none; fill-opacity:0; stroke-width: 2; stroke: #000000" points="814.648,572.343 814.648,593.96 496.175,593.96 496.175,635.732 "/>
    <polygon style="fill: #000000" points="496.175,643.232 491.175,633.232 496.175,635.732 501.175,633.232 "/>
    <polygon style="fill: none; fill-opacity:0; stroke-width: 2; stroke: #000000" points="496.175,643.232 491.175,633.232 496.175,635.732 501.175,633.232 "/>
  </g>
  <g>
    <rect style="fill: #ffffff" x="583.179" y="646.559" width="89.35" height="38"/>
    <rect style="fill: none; fill-opacity:0; stroke-width: 2; stroke: #000000" x="583.179" y="646.559" width="89.35" height="38"/>
    <text font-size="12.7998" style="fill: #000000;text-anchor:middle;font-family:sans-serif;font-style:normal;font-weight:normal" x="627.854" y="669.459">
      <tspan x="627.854" y="669.459">EXPECTED</tspan>
    </text>
  </g>
  <g>
    <polyline style="fill: none; fill-opacity:0; stroke-width: 2; stroke: #000000" points="827.761,572.343 827.761,608.102 627.854,608.102 627.854,636.823 "/>
    <polygon style="fill: #000000" points="627.854,644.323 622.854,634.323 627.854,636.823 632.854,634.323 "/>
    <polygon style="fill: none; fill-opacity:0; stroke-width: 2; stroke: #000000" points="627.854,644.323 622.854,634.323 627.854,636.823 632.854,634.323 "/>
  </g>
  <g>
    <rect style="fill: #ffffff" x="438.164" y="740.156" width="115.65" height="38"/>
    <rect style="fill: none; fill-opacity:0; stroke-width: 2; stroke: #000000" x="438.164" y="740.156" width="115.65" height="38"/>
    <text font-size="12.7998" style="fill: #000000;text-anchor:middle;font-family:sans-serif;font-style:normal;font-weight:normal" x="495.989" y="763.056">
      <tspan x="495.989" y="763.056">input_test1.txt</tspan>
    </text>
  </g>
  <g>
    <polyline style="fill: none; fill-opacity:0; stroke-width: 2; stroke: #000000" points="496.175,683.468 496.175,711.812 495.989,711.812 495.989,730.42 "/>
    <polygon style="fill: #000000" points="495.989,737.92 490.989,727.92 495.989,730.42 500.989,727.92 "/>
    <polygon style="fill: none; fill-opacity:0; stroke-width: 2; stroke: #000000" points="495.989,737.92 490.989,727.92 495.989,730.42 500.989,727.92 "/>
  </g>
  <g>
    <rect style="fill: #ffffff" x="565.007" y="739.871" width="124.95" height="38"/>
    <rect style="fill: none; fill-opacity:0; stroke-width: 2; stroke: #000000" x="565.007" y="739.871" width="124.95" height="38"/>
    <text font-size="12.7998" style="fill: #000000;text-anchor:middle;font-family:sans-serif;font-style:normal;font-weight:normal" x="627.482" y="762.771">
      <tspan x="627.482" y="762.771">output_test1.txt</tspan>
    </text>
  </g>
  <g>
    <polyline style="fill: none; fill-opacity:0; stroke-width: 2; stroke: #000000" points="627.854,684.559 627.854,712.215 627.482,712.215 627.482,730.135 "/>
    <polygon style="fill: #000000" points="627.482,737.635 622.482,727.635 627.482,730.135 632.482,727.635 "/>
    <polygon style="fill: none; fill-opacity:0; stroke-width: 2; stroke: #000000" points="627.482,737.635 622.482,727.635 627.482,730.135 632.482,727.635 "/>
  </g>
  <g>
    <rect style="fill: #ffffff" x="1007.73" y="639.197" width="71.7" height="38"/>
    <rect style="fill: none; fill-opacity:0; stroke-width: 2; stroke: #000000" x="1007.73" y="639.197" width="71.7" height="38"/>
    <text font-size="12.7998" style="fill: #000000;text-anchor:middle;font-family:sans-serif;font-style:normal;font-weight:normal" x="1043.58" y="662.097">
      <tspan x="1043.58" y="662.097">CONFIG</tspan>
    </text>
  </g>
  <g>
    <rect style="fill: #ffffff" x="1006.87" y="740.477" width="73.35" height="38"/>
    <rect style="fill: none; fill-opacity:0; stroke-width: 2; stroke: #000000" x="1006.87" y="740.477" width="73.35" height="38"/>
    <text font-size="12.7998" style="fill: #000000;text-anchor:middle;font-family:sans-serif;font-style:normal;font-weight:normal" x="1043.54" y="763.377">
      <tspan x="1043.54" y="763.377">config.h</tspan>
    </text>
  </g>
  <g>
    <polyline style="fill: none; fill-opacity:0; stroke-width: 2; stroke: #000000" points="1043.58,678.207 1043.58,709.342 1043.54,709.342 1043.54,730.74 "/>
    <polygon style="fill: #000000" points="1043.54,738.24 1038.54,728.24 1043.54,730.74 1048.54,728.24 "/>
    <polygon style="fill: none; fill-opacity:0; stroke-width: 2; stroke: #000000" points="1043.54,738.24 1038.54,728.24 1043.54,730.74 1048.54,728.24 "/>
  </g>
  <g>
    <polyline style="fill: none; fill-opacity:0; stroke-width: 2; stroke: #000000" points="867.098,572.343 867.098,605.77 1043.58,605.77 1043.58,629.461 "/>
    <polygon style="fill: #000000" points="1043.58,636.961 1038.58,626.961 1043.58,629.461 1048.58,626.961 "/>
    <polygon style="fill: none; fill-opacity:0; stroke-width: 2; stroke: #000000" points="1043.58,636.961 1038.58,626.961 1043.58,629.461 1048.58,626.961 "/>
  </g>
  <text font-size="12.7998" style="fill: #000000;text-anchor:start;font-family:sans-serif;font-style:normal;font-weight:normal" x="969.23" y="505.847">
    <tspan x="969.23" y="505.847">grade.txt = single number grade</tspan>
    <tspan x="969.23" y="521.847">results.txt = overview information regarding tests</tspan>
    <tspan x="969.23" y="537.847">config.h = Instructor file for assignment</tspan>
  </text>
  <g>
    <rect style="fill: #ffffff" x="1343.07" y="1003.93" width="118.919" height="38"/>
    <rect style="fill: none; fill-opacity:0; stroke-width: 2; stroke: #000000" x="1343.07" y="1003.93" width="118.919" height="38"/>
    <text font-size="12.7998" style="fill: #000000;text-anchor:middle;font-family:sans-serif;font-style:normal;font-weight:normal" x="1402.53" y="1026.83">
      <tspan x="1402.53" y="1026.83">test1_result.txt</tspan>
    </text>
  </g>
  <g>
    <polyline style="fill: none; fill-opacity:0; stroke-width: 2; stroke: #000000" points="1157.35,930.517 1402.53,930.517 1402.53,994.191 "/>
    <polygon style="fill: #000000" points="1402.53,1001.69 1397.53,991.691 1402.53,994.191 1407.53,991.691 "/>
    <polygon style="fill: none; fill-opacity:0; stroke-width: 2; stroke: #000000" points="1402.53,1001.69 1397.53,991.691 1402.53,994.191 1407.53,991.691 "/>
  </g>
</svg>
