<?xml version="1.0" encoding="UTF-8" standalone="no"?>
<!DOCTYPE svg PUBLIC "-//W3C//DTD SVG 1.0//EN" "http://www.w3.org/TR/2001/PR-SVG-20010719/DTD/svg10.dtd">
<svg width="77cm" height="35cm" viewBox="-163 187 1529 692" xmlns="http://www.w3.org/2000/svg" xmlns:xlink="http://www.w3.org/1999/xlink">
  <g>
    <rect style="fill: #ffffff" x="429.775" y="188" width="84.45" height="38"/>
    <rect style="fill: none; fill-opacity:0; stroke-width: 2; stroke: #000000" x="429.775" y="188" width="84.45" height="38"/>
    <text font-size="12.7998" style="fill: #000000;text-anchor:middle;font-family:sans-serif;font-style:normal;font-weight:normal" x="472" y="210.9">
      <tspan x="472" y="210.9">CSCI1200</tspan>
    </text>
  </g>
  <g>
    <rect style="fill: #ffffff" x="136.825" y="312" width="100.35" height="38"/>
    <rect style="fill: none; fill-opacity:0; stroke-width: 2; stroke: #000000" x="136.825" y="312" width="100.35" height="38"/>
    <text font-size="12.7998" style="fill: #000000;text-anchor:middle;font-family:sans-serif;font-style:normal;font-weight:normal" x="187" y="334.9">
      <tspan x="187" y="334.9">submissions</tspan>
    </text>
  </g>
  <g>
    <rect style="fill: #ffffff" x="360.9" y="311" width="64.2" height="38"/>
    <rect style="fill: none; fill-opacity:0; stroke-width: 2; stroke: #000000" x="360.9" y="311" width="64.2" height="38"/>
    <text font-size="12.7998" style="fill: #000000;text-anchor:middle;font-family:sans-serif;font-style:normal;font-weight:normal" x="393" y="333.9">
      <tspan x="393" y="333.9">output</tspan>
    </text>
  </g>
  <g>
    <rect style="fill: #ffffff" x="623.525" y="303" width="52.95" height="38"/>
    <rect style="fill: none; fill-opacity:0; stroke-width: 2; stroke: #000000" x="623.525" y="303" width="52.95" height="38"/>
    <text font-size="12.7998" style="fill: #000000;text-anchor:middle;font-family:sans-serif;font-style:normal;font-weight:normal" x="650" y="325.9">
      <tspan x="650" y="325.9">code</tspan>
    </text>
  </g>
  <g>
    <rect style="fill: #ffffff" x="1186.1" y="297" width="41.8" height="38"/>
    <rect style="fill: none; fill-opacity:0; stroke-width: 2; stroke: #000000" x="1186.1" y="297" width="41.8" height="38"/>
    <text font-size="12.7998" style="fill: #000000;text-anchor:middle;font-family:sans-serif;font-style:normal;font-weight:normal" x="1207" y="319.9">
      <tspan x="1207" y="319.9">bin</tspan>
    </text>
  </g>
  <g>
    <rect style="fill: #ffffff" x="39.775" y="449" width="52.45" height="38"/>
    <rect style="fill: none; fill-opacity:0; stroke-width: 2; stroke: #000000" x="39.775" y="449" width="52.45" height="38"/>
    <text font-size="12.7998" style="fill: #000000;text-anchor:middle;font-family:sans-serif;font-style:normal;font-weight:normal" x="66" y="471.9">
      <tspan x="66" y="471.9">HW1</tspan>
    </text>
  </g>
  <g>
    <rect style="fill: #ffffff" x="160.775" y="452" width="52.45" height="38"/>
    <rect style="fill: none; fill-opacity:0; stroke-width: 2; stroke: #000000" x="160.775" y="452" width="52.45" height="38"/>
    <text font-size="12.7998" style="fill: #000000;text-anchor:middle;font-family:sans-serif;font-style:normal;font-weight:normal" x="187" y="474.9">
      <tspan x="187" y="474.9">HW2</tspan>
    </text>
  </g>
  <g>
    <rect style="fill: #ffffff" x="275.775" y="447" width="52.45" height="38"/>
    <rect style="fill: none; fill-opacity:0; stroke-width: 2; stroke: #000000" x="275.775" y="447" width="52.45" height="38"/>
    <text font-size="12.7998" style="fill: #000000;text-anchor:middle;font-family:sans-serif;font-style:normal;font-weight:normal" x="302" y="469.9">
      <tspan x="302" y="469.9">HW3</tspan>
    </text>
  </g>
  <g>
    <polyline style="fill: none; fill-opacity:0; stroke-width: 2; stroke: #000000" points="187,350 187,383 187,383 187,442.264 "/>
    <polygon style="fill: #000000" points="187,449.764 182,439.764 187,442.264 192,439.764 "/>
    <polygon style="fill: none; fill-opacity:0; stroke-width: 2; stroke: #000000" points="187,449.764 182,439.764 187,442.264 192,439.764 "/>
  </g>
  <g>
    <polyline style="fill: none; fill-opacity:0; stroke-width: 2; stroke: #000000" points="161.912,350 161.912,399.5 66,399.5 66,439.264 "/>
    <polygon style="fill: #000000" points="66,446.764 61,436.764 66,439.264 71,436.764 "/>
    <polygon style="fill: none; fill-opacity:0; stroke-width: 2; stroke: #000000" points="66,446.764 61,436.764 66,439.264 71,436.764 "/>
  </g>
  <g>
    <polyline style="fill: none; fill-opacity:0; stroke-width: 2; stroke: #000000" points="212.088,350 212.088,398.5 302,398.5 302,437.264 "/>
    <polygon style="fill: #000000" points="302,444.764 297,434.764 302,437.264 307,434.764 "/>
    <polygon style="fill: none; fill-opacity:0; stroke-width: 2; stroke: #000000" points="302,444.764 297,434.764 302,437.264 307,434.764 "/>
  </g>
  <g>
    <rect style="fill: #ffffff" x="-31.925" y="606" width="65.85" height="38"/>
    <rect style="fill: none; fill-opacity:0; stroke-width: 2; stroke: #000000" x="-31.925" y="606" width="65.85" height="38"/>
    <text font-size="12.7998" style="fill: #000000;text-anchor:middle;font-family:sans-serif;font-style:normal;font-weight:normal" x="1" y="628.9">
      <tspan x="1" y="628.9">smith</tspan>
    </text>
  </g>
  <g>
    <rect style="fill: #ffffff" x="111.975" y="607" width="56.05" height="38"/>
    <rect style="fill: none; fill-opacity:0; stroke-width: 2; stroke: #000000" x="111.975" y="607" width="56.05" height="38"/>
    <text font-size="12.7998" style="fill: #000000;text-anchor:middle;font-family:sans-serif;font-style:normal;font-weight:normal" x="140" y="629.9">
      <tspan x="140" y="629.9">jones</tspan>
    </text>
  </g>
  <g>
    <polyline style="fill: none; fill-opacity:0; stroke-width: 2; stroke: #000000" points="52.8875,487 52.8875,546.5 1,546.5 1,596.264 "/>
    <polygon style="fill: #000000" points="1,603.764 -4,593.764 1,596.264 6,593.764 "/>
    <polygon style="fill: none; fill-opacity:0; stroke-width: 2; stroke: #000000" points="1,603.764 -4,593.764 1,596.264 6,593.764 "/>
  </g>
  <g>
    <polyline style="fill: none; fill-opacity:0; stroke-width: 2; stroke: #000000" points="79.1125,487 79.1125,547 140,547 140,597.264 "/>
    <polygon style="fill: #000000" points="140,604.764 135,594.764 140,597.264 145,594.764 "/>
    <polygon style="fill: none; fill-opacity:0; stroke-width: 2; stroke: #000000" points="140,604.764 135,594.764 140,597.264 145,594.764 "/>
  </g>
  <g>
    <rect style="fill: #ffffff" x="-139" y="722" width="40" height="38"/>
    <rect style="fill: none; fill-opacity:0; stroke-width: 2; stroke: #000000" x="-139" y="722" width="40" height="38"/>
    <text font-size="12.7998" style="fill: #000000;text-anchor:middle;font-family:sans-serif;font-style:normal;font-weight:normal" x="-119" y="744.9">
      <tspan x="-119" y="744.9">1</tspan>
    </text>
  </g>
  <g>
    <rect style="fill: #ffffff" x="-19" y="719" width="40" height="38"/>
    <rect style="fill: none; fill-opacity:0; stroke-width: 2; stroke: #000000" x="-19" y="719" width="40" height="38"/>
    <text font-size="12.7998" style="fill: #000000;text-anchor:middle;font-family:sans-serif;font-style:normal;font-weight:normal" x="1" y="741.9">
      <tspan x="1" y="741.9">2</tspan>
    </text>
  </g>
  <g>
    <rect style="fill: #ffffff" x="96" y="722" width="40" height="38"/>
    <rect style="fill: none; fill-opacity:0; stroke-width: 2; stroke: #000000" x="96" y="722" width="40" height="38"/>
    <text font-size="12.7998" style="fill: #000000;text-anchor:middle;font-family:sans-serif;font-style:normal;font-weight:normal" x="116" y="744.9">
      <tspan x="116" y="744.9">3</tspan>
    </text>
  </g>
  <g>
    <polyline style="fill: none; fill-opacity:0; stroke-width: 2; stroke: #000000" points="1,644 1,675.5 1,675.5 1,709.264 "/>
    <polygon style="fill: #000000" points="1,716.764 -4,706.764 1,709.264 6,706.764 "/>
    <polygon style="fill: none; fill-opacity:0; stroke-width: 2; stroke: #000000" points="1,716.764 -4,706.764 1,709.264 6,706.764 "/>
  </g>
  <g>
    <polyline style="fill: none; fill-opacity:0; stroke-width: 2; stroke: #000000" points="-15.4625,644 -15.4625,683 -119,683 -119,712.264 "/>
    <polygon style="fill: #000000" points="-119,719.764 -124,709.764 -119,712.264 -114,709.764 "/>
    <polygon style="fill: none; fill-opacity:0; stroke-width: 2; stroke: #000000" points="-119,719.764 -124,709.764 -119,712.264 -114,709.764 "/>
  </g>
  <g>
    <polyline style="fill: none; fill-opacity:0; stroke-width: 2; stroke: #000000" points="17.4625,644 17.4625,683 116,683 116,712.264 "/>
    <polygon style="fill: #000000" points="116,719.764 111,709.764 116,712.264 121,709.764 "/>
    <polygon style="fill: none; fill-opacity:0; stroke-width: 2; stroke: #000000" points="116,719.764 111,709.764 116,712.264 121,709.764 "/>
  </g>
  <g>
    <ellipse style="fill: #ffffff" cx="-121" cy="849" rx="40.1832" ry="20.0916"/>
    <ellipse style="fill: none; fill-opacity:0; stroke-width: 2; stroke: #000000" cx="-121" cy="849" rx="40.1832" ry="20.0916"/>
    <text font-size="12.7998" style="fill: #000000;text-anchor:middle;font-family:sans-serif;font-style:normal;font-weight:normal" x="-121" y="852.9">
      <tspan x="-121" y="852.9">FILES</tspan>
    </text>
  </g>
  <g>
    <polyline style="fill: none; fill-opacity:0; stroke-width: 2; stroke: #000000" points="-121,763 -121,764 -121,827.908 -121,819.172 "/>
    <polygon style="fill: #000000" points="-121,826.672 -116,836.672 -121,834.172 -126,836.672 "/>
    <polygon style="fill: none; fill-opacity:0; stroke-width: 2; stroke: #000000" points="-121,826.672 -116,836.672 -121,834.172 -126,836.672 "/>
  </g>
  <g>
    <rect style="fill: #ffffff" x="366.775" y="451" width="52.45" height="38"/>
    <rect style="fill: none; fill-opacity:0; stroke-width: 2; stroke: #000000" x="366.775" y="451" width="52.45" height="38"/>
    <text font-size="12.7998" style="fill: #000000;text-anchor:middle;font-family:sans-serif;font-style:normal;font-weight:normal" x="393" y="473.9">
      <tspan x="393" y="473.9">HW1</tspan>
    </text>
  </g>
  <g>
    <polyline style="fill: none; fill-opacity:0; stroke-width: 2; stroke: #000000" points="393,349 393,392 393,392 393,441.264 "/>
    <polygon style="fill: #000000" points="393,448.764 388,438.764 393,441.264 398,438.764 "/>
    <polygon style="fill: none; fill-opacity:0; stroke-width: 2; stroke: #000000" points="393,448.764 388,438.764 393,441.264 398,438.764 "/>
  </g>
  <g>
    <rect style="fill: #ffffff" x="364.125" y="595" width="57.75" height="38"/>
    <rect style="fill: none; fill-opacity:0; stroke-width: 2; stroke: #000000" x="364.125" y="595" width="57.75" height="38"/>
    <text font-size="12.7998" style="fill: #000000;text-anchor:middle;font-family:sans-serif;font-style:normal;font-weight:normal" x="393" y="617.9">
      <tspan x="393" y="617.9">smith</tspan>
    </text>
  </g>
  <g>
    <polyline style="fill: none; fill-opacity:0; stroke-width: 2; stroke: #000000" points="393,489 393,490 393,594 393,585.264 "/>
    <polygon style="fill: #000000" points="393,592.764 398,602.764 393,600.264 388,602.764 "/>
    <polygon style="fill: none; fill-opacity:0; stroke-width: 2; stroke: #000000" points="393,592.764 398,602.764 393,600.264 388,602.764 "/>
  </g>
  <g>
    <rect style="fill: #ffffff" x="311" y="718" width="40" height="38"/>
    <rect style="fill: none; fill-opacity:0; stroke-width: 2; stroke: #000000" x="311" y="718" width="40" height="38"/>
    <text font-size="12.7998" style="fill: #000000;text-anchor:middle;font-family:sans-serif;font-style:normal;font-weight:normal" x="331" y="740.9">
      <tspan x="331" y="740.9">1</tspan>
    </text>
  </g>
  <g>
    <rect style="fill: #ffffff" x="429" y="719" width="40" height="38"/>
    <rect style="fill: none; fill-opacity:0; stroke-width: 2; stroke: #000000" x="429" y="719" width="40" height="38"/>
    <text font-size="12.7998" style="fill: #000000;text-anchor:middle;font-family:sans-serif;font-style:normal;font-weight:normal" x="449" y="741.9">
      <tspan x="449" y="741.9">2</tspan>
    </text>
  </g>
  <g>
    <polyline style="fill: none; fill-opacity:0; stroke-width: 2; stroke: #000000" points="378.562,633 378.562,675.5 331,675.5 331,708.264 "/>
    <polygon style="fill: #000000" points="331,715.764 326,705.764 331,708.264 336,705.764 "/>
    <polygon style="fill: none; fill-opacity:0; stroke-width: 2; stroke: #000000" points="331,715.764 326,705.764 331,708.264 336,705.764 "/>
  </g>
  <g>
    <polyline style="fill: none; fill-opacity:0; stroke-width: 2; stroke: #000000" points="407.438,633 407.438,676 449,676 449,709.264 "/>
    <polygon style="fill: #000000" points="449,716.764 444,706.764 449,709.264 454,706.764 "/>
    <polygon style="fill: none; fill-opacity:0; stroke-width: 2; stroke: #000000" points="449,716.764 444,706.764 449,709.264 454,706.764 "/>
  </g>
  <g>
    <polygon style="fill: #ffffff" points="211.993,838 328.566,838 314.007,878 197.434,878 "/>
    <polygon style="fill: none; fill-opacity:0; stroke-width: 2; stroke: #000000" points="211.993,838 328.566,838 314.007,878 197.434,878 "/>
    <text font-size="12.7998" style="fill: #000000;text-anchor:middle;font-family:sans-serif;font-style:normal;font-weight:normal" x="263" y="861.9">
      <tspan x="263" y="861.9">test1_cout.txt</tspan>
    </text>
  </g>
  <g>
    <polygon style="fill: #ffffff" points="351.259,836.7 467.832,836.7 453.274,876.7 336.7,876.7 "/>
    <polygon style="fill: none; fill-opacity:0; stroke-width: 2; stroke: #000000" points="351.259,836.7 467.832,836.7 453.274,876.7 336.7,876.7 "/>
    <text font-size="12.7998" style="fill: #000000;text-anchor:middle;font-family:sans-serif;font-style:normal;font-weight:normal" x="402.266" y="860.6">
      <tspan x="402.266" y="860.6">grades.txt</tspan>
    </text>
  </g>
  <g>
    <polyline style="fill: none; fill-opacity:0; stroke-width: 2; stroke: #000000" points="321,756 321,797 270.279,797 270.279,828.264 "/>
    <polygon style="fill: #000000" points="270.279,835.764 265.279,825.764 270.279,828.264 275.279,825.764 "/>
    <polygon style="fill: none; fill-opacity:0; stroke-width: 2; stroke: #000000" points="270.279,835.764 265.279,825.764 270.279,828.264 275.279,825.764 "/>
  </g>
  <g>
    <polyline style="fill: none; fill-opacity:0; stroke-width: 2; stroke: #000000" points="341,756 341,796.35 409.546,796.35 409.546,826.964 "/>
    <polygon style="fill: #000000" points="409.546,834.464 404.546,824.464 409.546,826.964 414.546,824.464 "/>
    <polygon style="fill: none; fill-opacity:0; stroke-width: 2; stroke: #000000" points="409.546,834.464 404.546,824.464 409.546,826.964 414.546,824.464 "/>
  </g>
  <g>
    <rect style="fill: #ffffff" x="537.269" y="458" width="57.4625" height="38"/>
    <rect style="fill: none; fill-opacity:0; stroke-width: 2; stroke: #000000" x="537.269" y="458" width="57.4625" height="38"/>
    <text font-size="12.7998" style="fill: #000000;text-anchor:middle;font-family:sans-serif;font-style:normal;font-weight:normal" x="566" y="480.9">
      <tspan x="566" y="480.9">RCOS</tspan>
    </text>
  </g>
  <g>
    <ellipse style="fill: #ffffff" cx="515" cy="595" rx="47.0176" ry="23.5088"/>
    <ellipse style="fill: none; fill-opacity:0; stroke-width: 2; stroke: #000000" cx="515" cy="595" rx="47.0176" ry="23.5088"/>
    <text font-size="12.7998" style="fill: #000000;text-anchor:middle;font-family:sans-serif;font-style:normal;font-weight:normal" x="515" y="598.9">
      <tspan x="515" y="598.9">modules</tspan>
    </text>
  </g>
  <g>
    <ellipse style="fill: #ffffff" cx="626" cy="592" rx="47.75" ry="23.875"/>
    <ellipse style="fill: none; fill-opacity:0; stroke-width: 2; stroke: #000000" cx="626" cy="592" rx="47.75" ry="23.875"/>
    <text font-size="12.7998" style="fill: #000000;text-anchor:middle;font-family:sans-serif;font-style:normal;font-weight:normal" x="626" y="595.9">
      <tspan x="626" y="595.9">validator</tspan>
    </text>
  </g>
  <g>
    <polyline style="fill: none; fill-opacity:0; stroke-width: 2; stroke: #000000" points="551.634,496 551.634,533.746 515,533.746 515,561.755 "/>
    <polygon style="fill: #000000" points="515,569.255 510,559.255 515,561.755 520,559.255 "/>
    <polygon style="fill: none; fill-opacity:0; stroke-width: 2; stroke: #000000" points="515,569.255 510,559.255 515,561.755 520,559.255 "/>
  </g>
  <g>
    <polyline style="fill: none; fill-opacity:0; stroke-width: 2; stroke: #000000" points="580.366,496 580.366,532.062 626,532.062 626,558.389 "/>
    <polygon style="fill: #000000" points="626,565.889 621,555.889 626,558.389 631,555.889 "/>
    <polygon style="fill: none; fill-opacity:0; stroke-width: 2; stroke: #000000" points="626,565.889 621,555.889 626,558.389 631,555.889 "/>
  </g>
  <g>
    <polyline style="fill: none; fill-opacity:0; stroke-width: 2; stroke: #000000" points="636.762,341 636.762,399.5 566,399.5 566,448.264 "/>
    <polygon style="fill: #000000" points="566,455.764 561,445.764 566,448.264 571,445.764 "/>
    <polygon style="fill: none; fill-opacity:0; stroke-width: 2; stroke: #000000" points="566,455.764 561,445.764 566,448.264 571,445.764 "/>
  </g>
  <g>
    <rect style="fill: #ffffff" x="852.975" y="461" width="94" height="38"/>
    <rect style="fill: none; fill-opacity:0; stroke-width: 2; stroke: #000000" x="852.975" y="461" width="94" height="38"/>
    <text font-size="12.7998" style="fill: #000000;text-anchor:middle;font-family:sans-serif;font-style:normal;font-weight:normal" x="899.975" y="483.9">
      <tspan x="899.975" y="483.9">HWCONFIG</tspan>
    </text>
  </g>
  <g>
    <polyline style="fill: none; fill-opacity:0; stroke-width: 2; stroke: #000000" points="663.238,341 663.238,401 899.975,401 899.975,451.264 "/>
    <polygon style="fill: #000000" points="899.975,458.764 894.975,448.764 899.975,451.264 904.975,448.764 "/>
    <polygon style="fill: none; fill-opacity:0; stroke-width: 2; stroke: #000000" points="899.975,458.764 894.975,448.764 899.975,451.264 904.975,448.764 "/>
  </g>
  <g>
    <polygon style="fill: #ffffff" points="506.668,716 603.891,716 589.332,756 492.109,756 "/>
    <polygon style="fill: none; fill-opacity:0; stroke-width: 2; stroke: #000000" points="506.668,716 603.891,716 589.332,756 492.109,756 "/>
    <text font-size="12.7998" style="fill: #000000;text-anchor:middle;font-family:sans-serif;font-style:normal;font-weight:normal" x="548" y="739.9">
      <tspan x="548" y="739.9">config.json</tspan>
    </text>
  </g>
  <g>
    <polyline style="fill: none; fill-opacity:0; stroke-width: 2; stroke: #000000" points="421.875,633 421.875,659 555.279,659 555.279,706.264 "/>
    <polygon style="fill: #000000" points="555.279,713.764 550.279,703.764 555.279,706.264 560.279,703.764 "/>
    <polygon style="fill: none; fill-opacity:0; stroke-width: 2; stroke: #000000" points="555.279,713.764 550.279,703.764 555.279,706.264 560.279,703.764 "/>
  </g>
  <g>
    <rect style="fill: #ffffff" x="788.775" y="569" width="52.45" height="38"/>
    <rect style="fill: none; fill-opacity:0; stroke-width: 2; stroke: #000000" x="788.775" y="569" width="52.45" height="38"/>
    <text font-size="12.7998" style="fill: #000000;text-anchor:middle;font-family:sans-serif;font-style:normal;font-weight:normal" x="815" y="591.9">
      <tspan x="815" y="591.9">HW1</tspan>
    </text>
  </g>
  <g>
    <rect style="fill: #ffffff" x="936.775" y="567" width="52.45" height="38"/>
    <rect style="fill: none; fill-opacity:0; stroke-width: 2; stroke: #000000" x="936.775" y="567" width="52.45" height="38"/>
    <text font-size="12.7998" style="fill: #000000;text-anchor:middle;font-family:sans-serif;font-style:normal;font-weight:normal" x="963" y="589.9">
      <tspan x="963" y="589.9">HW2</tspan>
    </text>
  </g>
  <g>
    <polyline style="fill: none; fill-opacity:0; stroke-width: 2; stroke: #000000" points="879,502 879,535.5 815,535.5 815,559.264 "/>
    <polygon style="fill: #000000" points="815,566.764 810,556.764 815,559.264 820,556.764 "/>
    <polygon style="fill: none; fill-opacity:0; stroke-width: 2; stroke: #000000" points="815,566.764 810,556.764 815,559.264 820,556.764 "/>
  </g>
  <g>
    <polyline style="fill: none; fill-opacity:0; stroke-width: 2; stroke: #000000" points="923.475,499 923.475,533 963,533 963,557.264 "/>
    <polygon style="fill: #000000" points="963,564.764 958,554.764 963,557.264 968,554.764 "/>
    <polygon style="fill: none; fill-opacity:0; stroke-width: 2; stroke: #000000" points="963,564.764 958,554.764 963,557.264 968,554.764 "/>
  </g>
  <g>
    <polygon style="fill: #ffffff" points="730.721,724 793.688,724 779.129,764 716.162,764 "/>
    <polygon style="fill: none; fill-opacity:0; stroke-width: 2; stroke: #000000" points="730.721,724 793.688,724 779.129,764 716.162,764 "/>
    <text font-size="12.7998" style="fill: #000000;text-anchor:middle;font-family:sans-serif;font-style:normal;font-weight:normal" x="754.925" y="747.9">
      <tspan x="754.925" y="747.9">make</tspan>
    </text>
  </g>
  <g>
    <ellipse style="fill: #ffffff" cx="867" cy="740" rx="42.6665" ry="21.3333"/>
    <ellipse style="fill: none; fill-opacity:0; stroke-width: 2; stroke: #000000" cx="867" cy="740" rx="42.6665" ry="21.3333"/>
    <text font-size="12.7998" style="fill: #000000;text-anchor:middle;font-family:sans-serif;font-style:normal;font-weight:normal" x="867" y="743.9">
      <tspan x="867" y="743.9">.h files</tspan>
    </text>
  </g>
  <g>
    <polyline style="fill: none; fill-opacity:0; stroke-width: 2; stroke: #000000" points="801.887,607 801.887,665.5 762.204,665.5 762.204,714.264 "/>
    <polygon style="fill: #000000" points="762.204,721.764 757.204,711.764 762.204,714.264 767.204,711.764 "/>
    <polygon style="fill: none; fill-opacity:0; stroke-width: 2; stroke: #000000" points="762.204,721.764 757.204,711.764 762.204,714.264 767.204,711.764 "/>
  </g>
  <g>
    <polyline style="fill: none; fill-opacity:0; stroke-width: 2; stroke: #000000" points="828.112,607 828.112,662.833 867,662.833 867,708.931 "/>
    <polygon style="fill: #000000" points="867,716.431 862,706.431 867,708.931 872,706.431 "/>
    <polygon style="fill: none; fill-opacity:0; stroke-width: 2; stroke: #000000" points="867,716.431 862,706.431 867,708.931 872,706.431 "/>
  </g>
  <g>
    <polygon style="fill: #ffffff" points="1060.79,462 1161.77,462 1147.21,502 1046.23,502 "/>
    <polygon style="fill: none; fill-opacity:0; stroke-width: 2; stroke: #000000" points="1060.79,462 1161.77,462 1147.21,502 1046.23,502 "/>
    <text font-size="12.7998" style="fill: #000000;text-anchor:middle;font-family:sans-serif;font-style:normal;font-weight:normal" x="1104" y="485.9">
      <tspan x="1104" y="485.9">hw1run.out</tspan>
    </text>
  </g>
  <g>
    <polygon style="fill: #ffffff" points="1264.79,460 1365.77,460 1351.21,500 1250.23,500 "/>
    <polygon style="fill: none; fill-opacity:0; stroke-width: 2; stroke: #000000" points="1264.79,460 1365.77,460 1351.21,500 1250.23,500 "/>
    <text font-size="12.7998" style="fill: #000000;text-anchor:middle;font-family:sans-serif;font-style:normal;font-weight:normal" x="1308" y="483.9">
      <tspan x="1308" y="483.9">hw2run.out</tspan>
    </text>
  </g>
  <g>
    <polyline style="fill: none; fill-opacity:0; stroke-width: 2; stroke: #000000" points="1196.55,335 1196.55,398.5 1111.28,398.5 1111.28,452.264 "/>
    <polygon style="fill: #000000" points="1111.28,459.764 1106.28,449.764 1111.28,452.264 1116.28,449.764 "/>
    <polygon style="fill: none; fill-opacity:0; stroke-width: 2; stroke: #000000" points="1111.28,459.764 1106.28,449.764 1111.28,452.264 1116.28,449.764 "/>
  </g>
  <g>
    <polyline style="fill: none; fill-opacity:0; stroke-width: 2; stroke: #000000" points="1217.45,335 1217.45,397.5 1315.28,397.5 1315.28,450.264 "/>
    <polygon style="fill: #000000" points="1315.28,457.764 1310.28,447.764 1315.28,450.264 1320.28,447.764 "/>
    <polygon style="fill: none; fill-opacity:0; stroke-width: 2; stroke: #000000" points="1315.28,457.764 1310.28,447.764 1315.28,450.264 1320.28,447.764 "/>
  </g>
  <g>
    <polyline style="fill: none; fill-opacity:0; stroke-width: 2; stroke: #000000" points="429.775,226 429.775,269 187,269 187,302.264 "/>
    <polygon style="fill: #000000" points="187,309.764 182,299.764 187,302.264 192,299.764 "/>
    <polygon style="fill: none; fill-opacity:0; stroke-width: 2; stroke: #000000" points="187,309.764 182,299.764 187,302.264 192,299.764 "/>
  </g>
  <g>
    <polyline style="fill: none; fill-opacity:0; stroke-width: 2; stroke: #000000" points="450.887,226 450.887,284 393,284 393,301.264 "/>
    <polygon style="fill: #000000" points="393,308.764 388,298.764 393,301.264 398,298.764 "/>
    <polygon style="fill: none; fill-opacity:0; stroke-width: 2; stroke: #000000" points="393,308.764 388,298.764 393,301.264 398,298.764 "/>
  </g>
  <g>
    <polyline style="fill: none; fill-opacity:0; stroke-width: 2; stroke: #000000" points="493.112,226 493.112,282 650,282 650,293.264 "/>
    <polygon style="fill: #000000" points="650,300.764 645,290.764 650,293.264 655,290.764 "/>
    <polygon style="fill: none; fill-opacity:0; stroke-width: 2; stroke: #000000" points="650,300.764 645,290.764 650,293.264 655,290.764 "/>
  </g>
  <g>
    <polyline style="fill: none; fill-opacity:0; stroke-width: 2; stroke: #000000" points="514.225,226 514.225,261.5 1207,261.5 1207,287.264 "/>
    <polygon style="fill: #000000" points="1207,294.764 1202,284.764 1207,287.264 1212,284.764 "/>
    <polygon style="fill: none; fill-opacity:0; stroke-width: 2; stroke: #000000" points="1207,294.764 1202,284.764 1207,287.264 1212,284.764 "/>
  </g>
</svg>
