<?xml version="1.0" encoding="utf-8"?>
<!-- Generator: Adobe Illustrator 24.0.3, SVG Export Plug-In . SVG Version: 6.00 Build 0)  -->
<svg version="1.1" id="Layer_1" xmlns="http://www.w3.org/2000/svg" xmlns:xlink="http://www.w3.org/1999/xlink" x="0px" y="0px"
	 viewBox="0 0 6000 6000" style="enable-background:new 0 0 6000 6000;" xml:space="preserve">
<style type="text/css">
	.st0{fill:#FFBA00;}
	.st1{fill:#FFFFFF;}
</style>
<g>
	<path class="st0" d="M2329.1,4714.4l1974,1.1c0,0,97.2,2.6,149.5-28.1c78.8-46.1,199.4-138.7,330.6-285.5
		c294.4-329.5,423.9-692.5,452.3-1013.4c28.4-320.9-63.8-687.4-132.4-824.7c-32-63.9-82.1-73.4-121.2-59.1
		c-83,30.5-222.3,151.5-314.5,194.2c-92.7,43-113,67.1-379.6,140.8c-266.6,73.6-459.9,81-459.9,81s278.6-423.5-62.9-913.5
		c-341.4-490-907.8-456.6-1063.3-420.6c-155.4,36-376.4,108.3-535.1,292c-158.7,183.7-183.3,317.6-183.3,317.6s-47.7,12.7-92,7.1
		c-59.5-7.5-230-45.1-300.5-36c-77.3,9.9-117,76.4-129.3,144.1c-14.2,78.3,6.6,219.3,227.8,384.8c131,98,390.9,210,390.9,210
		s24.6,39.6,37.8,58.4c15.5,21.9,48.3,63.8,48.3,63.8s-337.1,291.8-373.4,701.2c-12.4,139.4-19.1,380.3,129.6,646.9
		c48.6,87.2,144.4,226.3,239.9,298.6C2222.8,4720.7,2329.1,4714.4,2329.1,4714.4z"/>
	<polygon class="st1" points="4352.7,3886.1 4459.9,3886.1 4210.1,4438.6 4102.9,4438.6 	"/>
	<polygon class="st1" points="4352.7,3886.1 4352.7,3886.5 4459.3,3886.5 4209.8,4438.2 4103.5,4438.2 4353,3886.3 4352.7,3886.1 
		4352.7,3886.5 4352.7,3886.1 4352.4,3886 4102.3,4438.9 4210.3,4438.9 4460.4,3885.7 4352.5,3885.7 4352.4,3886 	"/>
	<polygon class="st1" points="4003.9,3209.1 3896.8,3209.1 4352.7,3886.1 4459.8,3886.1 	"/>
	<polygon class="st1" points="4003.9,3209.1 4003.9,3208.7 3896.1,3208.7 4352.5,3886.5 4460.5,3886.5 4004.1,3208.7 4003.9,3208.7 
		4003.9,3209.1 4003.6,3209.3 4459.1,3885.7 4352.9,3885.7 3897.5,3209.5 4003.9,3209.5 4003.9,3209.1 4003.6,3209.3 	"/>
	<polygon class="st1" points="4147.6,3886 4254.7,3886 4004.9,4438.5 3897.8,4438.5 	"/>
	<polygon class="st1" points="4147.6,3886 4147.6,3886.4 4254.2,3886.4 4004.7,4438.1 3898.4,4438.1 4147.9,3886.2 4147.6,3886 
		4147.6,3886.4 4147.6,3886 4147.2,3885.9 3897.2,4438.9 4005.2,4438.9 4255.3,3885.7 4147.3,3885.7 4147.2,3885.9 	"/>
	<polygon class="st1" points="3798.8,3209 3691.7,3209 4147.6,3886 4254.7,3886 	"/>
	<polygon class="st1" points="3798.8,3209 3798.8,3208.7 3691,3208.7 4147.4,3886.4 4255.4,3886.4 3799,3208.7 3798.8,3208.7 
		3798.8,3209 3798.5,3209.2 4254,3885.6 4147.8,3885.6 3692.4,3209.4 3798.8,3209.4 3798.8,3209 3798.5,3209.2 	"/>
	<polygon class="st1" points="3943.4,3885.8 4050.5,3885.8 3800.7,4438.2 3693.6,4438.2 	"/>
	<polygon class="st1" points="3943.4,3885.8 3943.4,3886.2 4049.9,3886.2 3800.5,4437.9 3694.1,4437.9 3943.7,3885.9 3943.4,3885.8 
		3943.4,3886.2 3943.4,3885.8 3943,3885.6 3693,4438.6 3800.9,4438.6 4051.1,3885.4 3943.1,3885.4 3943,3885.6 	"/>
	<polygon class="st1" points="3594.6,3208.8 3487.4,3208.8 3943.4,3885.8 4050.5,3885.8 	"/>
	<polygon class="st1" points="3594.6,3208.8 3594.6,3208.4 3486.7,3208.4 3943.2,3886.1 4051.2,3886.1 3594.8,3208.4 3594.6,3208.4 
		3594.6,3208.8 3594.3,3209 4049.8,3885.4 3943.6,3885.4 3488.1,3209.2 3594.6,3209.2 3594.6,3208.8 3594.3,3209 	"/>
</g>
</svg>
