<?xml version="1.0" encoding="UTF-8" standalone="no"?>
<!-- Generator: Adobe Illustrator 24.0.3, SVG Export Plug-In . SVG Version: 6.00 Build 0)  -->

<svg
   version="1.1"
   id="Layer_1"
   x="0px"
   y="0px"
   viewBox="0 0 6000 6000"
   style="enable-background:new 0 0 6000 6000;"
   xml:space="preserve"
   sodipodi:docname="01-april.svg"
   inkscape:version="1.4 (86a8ad7, 2024-10-11)"
   xmlns:inkscape="http://www.inkscape.org/namespaces/inkscape"
   xmlns:sodipodi="http://sodipodi.sourceforge.net/DTD/sodipodi-0.dtd"
   xmlns="http://www.w3.org/2000/svg"
   xmlns:svg="http://www.w3.org/2000/svg"><defs
   id="defs12" /><sodipodi:namedview
   id="namedview12"
   pagecolor="#b2b2b2"
   bordercolor="#000000"
   borderopacity="0.3254902"
   inkscape:showpageshadow="2"
   inkscape:pageopacity="0.0"
   inkscape:pagecheckerboard="true"
   inkscape:deskcolor="#d1d1d1"
   showgrid="false"
   inkscape:zoom="0.20216667"
   inkscape:cx="3818.6315"
   inkscape:cy="3173.1245"
   inkscape:window-width="2560"
   inkscape:window-height="1494"
   inkscape:window-x="-11"
   inkscape:window-y="-11"
   inkscape:window-maximized="1"
   inkscape:current-layer="Layer_1" />
<style
   type="text/css"
   id="style1">
	.st0{fill:#FFBA00;}
	.st1{fill:#FFFFFF;}
</style>
<g
   id="g12">
	<path
   class="st0"
   d="M2329.1,4714.4l1974,1.1c0,0,97.2,2.6,149.5-28.1c78.8-46.1,199.4-138.7,330.6-285.5   c294.4-329.5,423.9-692.5,452.3-1013.4c28.4-320.9-63.8-687.4-132.4-824.7c-32-63.9-82.1-73.4-121.2-59.1   c-83,30.5-222.3,151.5-314.5,194.2c-92.7,43-113,67.1-379.6,140.8c-266.6,73.6-459.9,81-459.9,81s278.6-423.5-62.9-913.5   c-341.4-490-907.8-456.6-1063.3-420.6c-155.4,36-376.4,108.3-535.1,292c-158.7,183.7-183.3,317.6-183.3,317.6s-47.7,12.7-92,7.1   c-59.5-7.5-230-45.1-300.5-36c-77.3,9.9-117,76.4-129.3,144.1c-14.2,78.3,6.6,219.3,227.8,384.8c131,98,390.9,210,390.9,210   s24.6,39.6,37.8,58.4c15.5,21.9,48.3,63.8,48.3,63.8s-337.1,291.8-373.4,701.2c-12.4,139.4-19.1,380.3,129.6,646.9   c48.6,87.2,144.4,226.3,239.9,298.6C2222.8,4720.7,2329.1,4714.4,2329.1,4714.4z"
   id="path1" />
	<polygon
   class="st1"
   points="4352.7,3886.1 4459.9,3886.1 4210.1,4438.6 4102.9,4438.6  "
   id="polygon1" />
	<polygon
   class="st1"
   points="4352.7,3886.1 4352.7,3886.5 4459.3,3886.5 4209.8,4438.2 4103.5,4438.2 4353,3886.3 4352.7,3886.1    4352.7,3886.5 4352.7,3886.1 4352.4,3886 4102.3,4438.9 4210.3,4438.9 4460.4,3885.7 4352.5,3885.7 4352.4,3886  "
   id="polygon2" />
	<polygon
   class="st1"
   points="4003.9,3209.1 3896.8,3209.1 4352.7,3886.1 4459.8,3886.1  "
   id="polygon3" />
	<polygon
   class="st1"
   points="4003.9,3209.1 4003.9,3208.7 3896.1,3208.7 4352.5,3886.5 4460.5,3886.5 4004.1,3208.7 4003.9,3208.7    4003.9,3209.1 4003.6,3209.3 4459.1,3885.7 4352.9,3885.7 3897.5,3209.5 4003.9,3209.5 4003.9,3209.1 4003.6,3209.3  "
   id="polygon4" />
	<polygon
   class="st1"
   points="4147.6,3886 4254.7,3886 4004.9,4438.5 3897.8,4438.5  "
   id="polygon5" />
	<polygon
   class="st1"
   points="4147.6,3886 4147.6,3886.4 4254.2,3886.4 4004.7,4438.1 3898.4,4438.1 4147.9,3886.2 4147.6,3886    4147.6,3886.4 4147.6,3886 4147.2,3885.9 3897.2,4438.9 4005.2,4438.9 4255.3,3885.7 4147.3,3885.7 4147.2,3885.9  "
   id="polygon6" />
	<polygon
   class="st1"
   points="3798.8,3209 3691.7,3209 4147.6,3886 4254.7,3886  "
   id="polygon7" />
	<polygon
   class="st1"
   points="3798.8,3209 3798.8,3208.7 3691,3208.7 4147.4,3886.4 4255.4,3886.4 3799,3208.7 3798.8,3208.7    3798.8,3209 3798.5,3209.2 4254,3885.6 4147.8,3885.6 3692.4,3209.4 3798.8,3209.4 3798.8,3209 3798.5,3209.2  "
   id="polygon8" />
	<polygon
   class="st1"
   points="3943.4,3885.8 4050.5,3885.8 3800.7,4438.2 3693.6,4438.2  "
   id="polygon9" />
	<polygon
   class="st1"
   points="3943.4,3885.8 3943.4,3886.2 4049.9,3886.2 3800.5,4437.9 3694.1,4437.9 3943.7,3885.9 3943.4,3885.8    3943.4,3886.2 3943.4,3885.8 3943,3885.6 3693,4438.6 3800.9,4438.6 4051.1,3885.4 3943.1,3885.4 3943,3885.6  "
   id="polygon10" />
	<polygon
   class="st1"
   points="3594.6,3208.8 3487.4,3208.8 3943.4,3885.8 4050.5,3885.8  "
   id="polygon11" />
	<polygon
   class="st1"
   points="3486.7,3208.4 3943.2,3886.1 4051.2,3886.1 3594.8,3208.4 3594.6,3208.4 3594.6,3208.8 3594.3,3209 4049.8,3885.4 3943.6,3885.4 3488.1,3209.2 3594.6,3209.2 3594.6,3208.8 3594.3,3209 3594.6,3208.8 3594.6,3208.4 "
   id="polygon12"
   style="display:inline" />
</g>
<circle
   style="fill:#ffffff;fill-opacity:1;stroke:#ffffff;stroke-width:13.1853;stroke-linecap:round;stroke-linejoin:round;stroke-dasharray:none;stroke-opacity:1"
   id="path12"
   cx="3268.6111"
   cy="2138.3552"
   r="393.40732" /><circle
   style="fill:#ffffff;fill-opacity:1;stroke:#ffffff;stroke-width:13.1853;stroke-linecap:round;stroke-linejoin:round;stroke-dasharray:none;stroke-opacity:1"
   id="path12-9"
   cx="2238.2266"
   cy="1968.7056"
   r="393.40732" /><circle
   style="fill:#000000;fill-opacity:1;stroke:#000000;stroke-width:13.5794;stroke-linecap:round;stroke-linejoin:round;stroke-dasharray:none;stroke-opacity:1"
   id="path13"
   cx="2095.6594"
   cy="1947.2671"
   r="246.38425" /><circle
   style="fill:#000000;fill-opacity:1;stroke:#000000;stroke-width:13.5794;stroke-linecap:round;stroke-linejoin:round;stroke-dasharray:none;stroke-opacity:1"
   id="path13-8"
   cx="3407.635"
   cy="2137.665"
   r="246.38425" /></svg>
