<!--<?xml version="1.0" encoding="UTF-8" standalone="no"?>-->
<svg
   xmlns:dc="http://purl.org/dc/elements/1.1/"
   xmlns:cc="http://creativecommons.org/ns#"
   xmlns:rdf="http://www.w3.org/1999/02/22-rdf-syntax-ns#"
   xmlns:svg="http://www.w3.org/2000/svg"
   xmlns="http://www.w3.org/2000/svg"
   xmlns:sodipodi="http://sodipodi.sourceforge.net/DTD/sodipodi-0.dtd"
   xmlns:inkscape="http://www.inkscape.org/namespaces/inkscape"
   viewBox="0 0 6000 6000"
   version="1.1"
   id="svg1357"
   sodipodi:docname="02-february.svg"
   inkscape:version="1.0.2 (e86c870879, 2021-01-15)">
  <metadata
     id="metadata1363">
    <rdf:RDF>
      <cc:Work
         rdf:about="">
        <dc:format>image/svg+xml</dc:format>
        <dc:type
           rdf:resource="http://purl.org/dc/dcmitype/StillImage" />
      </cc:Work>
    </rdf:RDF>
  </metadata>
  <defs
     id="defs1361" />
  <sodipodi:namedview
     pagecolor="#ffffff"
     bordercolor="#666666"
     borderopacity="1"
     objecttolerance="10"
     gridtolerance="10"
     guidetolerance="10"
     inkscape:pageopacity="0"
     inkscape:pageshadow="2"
     inkscape:window-width="1918"
     inkscape:window-height="1060"
     id="namedview1359"
     showgrid="false"
     inkscape:zoom="0.2081251"
     inkscape:cx="2827.6719"
     inkscape:cy="3666.3066"
     inkscape:window-x="0"
     inkscape:window-y="0"
     inkscape:window-maximized="0"
     inkscape:current-layer="svg1357" />
  <path
     style="stroke-width: 4px; stroke: rgba(255, 0, 255, 0); fill: rgb(255, 186, 0);"
     d="M 2329.052 4714.401 L 4303.074 4715.524 C 4303.074 4715.524 4400.246 4718.122 4452.565 4687.473 C 4531.323 4641.336 4652 4548.793 4783.169 4401.96 C 5077.544 4072.43 5207.057 3709.464 5235.471 3388.515 C 5263.885 3067.566 5171.703 2701.088 5103.099 2563.844 C 5071.141 2499.911 5021.035 2490.396 4981.862 2504.786 C 4898.828 2535.288 4759.552 2656.311 4667.332 2699.035 C 4574.587 2742.002 4554.369 2766.156 4287.756 2839.8 C 4021.143 2913.444 3827.826 2920.76 3827.826 2920.76 C 3827.826 2920.76 4106.395 2497.221 3764.955 2007.244 C 3423.515 1517.267 2857.134 1550.637 2701.69 1586.666 C 2546.246 1622.695 2325.319 1694.943 2166.572 1878.684 C 2007.825 2062.425 1983.313 2196.26 1983.313 2196.26 C 1983.313 2196.26 1935.628 2208.982 1891.331 2203.362 C 1831.825 2195.813 1661.35 2158.256 1590.872 2167.32 C 1513.586 2177.26 1473.871 2243.687 1461.553 2311.424 C 1447.305 2389.773 1468.136 2530.734 1689.313 2696.2 C 1820.306 2794.197 2080.23 2906.213 2080.23 2906.213 C 2080.23 2906.213 2104.811 2945.798 2118.06 2964.582 C 2133.534 2986.52 2166.398 3028.381 2166.398 3028.381 C 2166.398 3028.381 1829.315 3320.183 1792.975 3729.593 C 1780.604 3868.962 1773.847 4109.927 1922.53 4376.474 C 1971.149 4463.634 2066.911 4602.788 2162.43 4675.038 C 2222.839 4720.731 2329.052 4714.401 2329.052 4714.401 Z"
     id="path1295">
    <title
       id="title1293">duck</title>
  </path>
  <g
     id="g1307">
    <title
       id="title1297">arrow ..X</title>
    <rect
       x="3730.582"
       y="3899.949"
       width="107.151"
       height="552.457"
       style="fill: rgb(255, 255, 255); stroke: rgb(255, 255, 255); vector-effect: non-scaling-stroke; stroke-width: 0.75px;"
       transform="matrix(1, 0, -0.452155, 1, 2385.5, -13.834902)"
       id="rect1301">
      <title
         id="title1299">arrow bottom</title>
    </rect>
    <rect
       x="-3729.815"
       y="-4779.075"
       width="107.129"
       height="676.992"
       style="fill: rgb(255, 255, 255); stroke: rgb(255, 255, 255); vector-effect: non-scaling-stroke; stroke-width: 0.75px;"
       transform="matrix(-1, 0, 0.673472, 1, 3492.668673, 7988.186523)"
       id="rect1305">
      <title
         id="title1303">arrow top</title>
    </rect>
  </g>
  <g
     transform="matrix(1, 0, 0, 1, -205.116455, -0.083717)"
     id="g1319">
    <title
       id="title1309">arrow .X.</title>
    <rect
       x="3730.582"
       y="3899.949"
       width="107.151"
       height="552.457"
       style="fill: rgb(255, 255, 255); stroke: rgb(255, 255, 255); vector-effect: non-scaling-stroke; stroke-width: 0.75px;"
       transform="matrix(1, 0, -0.452155, 1, 2385.5, -13.834902)"
       id="rect1313">
      <title
         id="title1311">arrow bottom</title>
    </rect>
    <rect
       x="-3729.815"
       y="-4779.075"
       width="107.129"
       height="676.992"
       style="fill: rgb(255, 255, 255); stroke: rgb(255, 255, 255); vector-effect: non-scaling-stroke; stroke-width: 0.75px;"
       transform="matrix(-1, 0, 0.673472, 1, 3492.668673, 7988.186523)"
       id="rect1317">
      <title
         id="title1315">arrow top</title>
    </rect>
  </g>
  <g
     transform="matrix(1, 0, 0, 1, -409.348663, -0.329002)"
     id="g1331">
    <title
       id="title1321">arrow X..</title>
    <rect
       x="3730.582"
       y="3899.949"
       width="107.151"
       height="552.457"
       style="fill: rgb(255, 255, 255); stroke: rgb(255, 255, 255); vector-effect: non-scaling-stroke; stroke-width: 0.75px;"
       transform="matrix(1, 0, -0.452155, 1, 2385.5, -13.834902)"
       id="rect1325">
      <title
         id="title1323">arrow bottom</title>
    </rect>
    <rect
       x="-3729.815"
       y="-4779.075"
       width="107.129"
       height="676.992"
       style="fill: rgb(255, 255, 255); stroke: rgb(255, 255, 255); vector-effect: non-scaling-stroke; stroke-width: 0.75px;"
       transform="matrix(-1, 0, 0.673472, 1, 3492.668673, 7988.186523)"
       id="rect1329">
      <title
         id="title1327">arrow top</title>
    </rect>
  </g>
  <g
     transform="matrix(1.065905, -0.441347, 0.441347, 1.065905, -973.551025, 241.351852)"
     style=""
     id="g1343">
    <title
       id="title1333">large heart</title>
    <path
       id="path1337"
       style="fill:#ce1616;stroke:#000000;stroke-width:0px"
       d="M 1499.041 2804.1445 C 1456.0953 2804.0007 1416.9007 2814.0674 1389.2949 2832.1387 C 1293.6189 2894.7697 1264.9777 3038.5125 1263.5879 3045.7539 L 1263.2402 3044.916 C 1263.2402 3044.916 1137.1627 2958.5342 1021.7285 2982.7188 C 906.29437 3006.9033 758.2839 3206.4282 898.80078 3401.6367 C 1037.1966 3593.8986 1534.1173 3733.1625 1549.1191 3737.332 L 1550.0312 3739.541 C 1550.0312 3739.541 1809.8814 3279.4016 1770.9922 3042.1133 C 1743.0405 2871.5623 1608.7912 2804.512 1499.041 2804.1445 z "
       transform="matrix(0.80086592,0.33160532,-0.33160532,0.80086592,859.71739,129.54423)">
      <title
         id="title1335">half heart</title>
    </path>
  </g>
  <g
     transform="matrix(0.642145, 0.337995, -0.337995, 0.642145, 4911.409668, -74.089233)"
     style=""
     id="g1355">
    <title
       id="title1345">small heart</title>
    <path
       id="path1349"
       style="fill:#ce1616;stroke:#000000;stroke-width:0px"
       d="M 4306.8887 1968.6777 C 4240.2983 1967.8584 4161.5125 2004.0619 4136.0527 2102.4707 C 4098.7307 2246.7306 4231.2382 2543.0714 4235.252 2551.9961 L 4234.5527 2553.3242 C 4234.5527 2553.3242 4561.5966 2493.9326 4660.7148 2379.6895 C 4759.8331 2265.4463 4679.3014 2132.2665 4608.75 2110.6387 C 4539.9802 2089.5569 4458.9426 2133.5172 4454.8809 2135.7578 L 4455.1465 2135.252 C 4455.1465 2135.252 4446.2166 2039.5359 4388.0938 1993.4355 C 4369.0222 1978.3089 4339.4095 1969.0779 4306.8887 1968.6777 z "
       transform="matrix(1.2194383,-0.64185509,0.64185509,1.2194383,-5941.6064,3242.7606)">
      <title
         id="title1347">half heart</title>
    </path>
  </g>
</svg>
