<?xml version="1.0" encoding="UTF-8"?>
<svg xmlns="http://www.w3.org/2000/svg" version="1.1" viewBox="0 0 6000 6000">
  <defs>
    <style>
      .cls-1, .cls-2, .cls-3, .cls-4 {
        fill: #2fa60d;
      }

      .cls-5 {
        fill: #fff;
        stroke: #fff;
        stroke-width: .8px;
      }

      .cls-6 {
        fill: none;
        stroke-width: 71px;
      }

      .cls-6, .cls-2, .cls-3, .cls-4 {
        stroke: #1b7b00;
        stroke-linecap: round;
        stroke-linejoin: round;
      }

      .cls-2 {
        stroke-width: 37.8px;
      }

      .cls-3 {
        stroke-width: 37.8px;
      }

      .cls-4 {
        stroke-width: 37.8px;
      }

      .cls-7 {
        fill: #ffba00;
      }
    </style>
  </defs>
  <!-- Generator: Adobe Illustrator 28.6.0, SVG Export Plug-In . SVG Version: 1.2.0 Build 709)  -->
  <g>
    <g id="_레이어_1" data-name="레이어_1">
      <path class="cls-7" d="M2329.1,4714.4l1974,1.1s97.2,2.6,149.5-28.1c78.8-46.1,199.4-138.7,330.6-285.5,294.4-329.5,423.9-692.5,452.3-1013.4,28.4-320.9-63.8-687.4-132.4-824.7-32-63.9-82.1-73.4-121.2-59.1-83,30.5-222.3,151.5-314.5,194.2-92.7,43-113,67.1-379.6,140.8-266.6,73.6-459.9,81-459.9,81,0,0,278.6-423.5-62.9-913.5-341.4-490-907.8-456.6-1063.3-420.6-155.4,36-376.4,108.3-535.1,292-158.7,183.7-183.3,317.6-183.3,317.6,0,0-47.7,12.7-92,7.1-59.5-7.5-230-45.1-300.5-36-77.3,9.9-117,76.4-129.3,144.1-14.2,78.3,6.6,219.3,227.8,384.8,131,98,390.9,210,390.9,210,0,0,24.6,39.6,37.8,58.4,15.5,21.9,48.3,63.8,48.3,63.8,0,0-337.1,291.8-373.4,701.2-12.4,139.4-19.1,380.3,129.6,646.9,48.6,87.2,144.4,226.3,239.9,298.6,60.4,45.7,166.6,39.4,166.6,39.4Z"/>
      <g>
        <polygon class="cls-5" points="4352.7 3886.1 4459.9 3886.1 4210.1 4438.6 4102.9 4438.6 4352.7 3886.1"/>
        <polygon class="cls-5" points="4003.9 3209.1 3896.8 3209.1 4352.7 3886.1 4459.8 3886.1 4003.9 3209.1"/>
      </g>
      <g>
        <polygon class="cls-5" points="4147.6 3886 4254.7 3886 4004.9 4438.5 3897.8 4438.5 4147.6 3886"/>
        <polygon class="cls-5" points="3798.8 3209 3691.7 3209 4147.6 3886 4254.7 3886 3798.8 3209"/>
      </g>
      <g>
        <polygon class="cls-5" points="3943.4 3885.8 4050.5 3885.8 3800.7 4438.2 3693.6 4438.2 3943.4 3885.8"/>
        <polygon class="cls-5" points="3594.6 3208.8 3487.4 3208.8 3943.4 3885.8 4050.5 3885.8 3594.6 3208.8"/>
      </g>
      <path class="cls-6" d="M1233.7,3554.8s119,351.7,178.5,394.3c59.5,42.6,150.3,21,150.3,21"/>
      <g>
        <path class="cls-3" d="M1152.9,3268.9s120.7,291.3,80.5,428.5c-40.2,137.2-187.9,140.7-241.4,95.4-53.5-45.3-59.1-136-59.1-136"/>
        <path class="cls-3" d="M1154,3268.4s-310.8,46.2-407.9,151.2c-97.1,104.9-25,233.2,41,255.8,66,22.6,146.5-19.3,146.5-19.3"/>
      </g>
      <g>
        <path class="cls-2" d="M1172.7,3245.9s-120.7-291.3-80.5-428.5c40.2-137.2,187.9-140.7,241.4-95.4,53.5,45.3,59.1,136,59.1,136"/>
        <path class="cls-2" d="M1171.7,3246.4s310.8-46.2,407.9-151.2c97.1-104.9,25-233.2-41-255.8-66-22.6-146.5,19.3-146.5,19.3"/>
      </g>
      <g>
        <path class="cls-2" d="M1147.9,3252.3s-291.3,120.7-428.5,80.5c-137.2-40.2-140.7-187.9-95.4-241.4,45.3-53.5,136-59.1,136-59.1"/>
        <path class="cls-2" d="M1148.3,3253.4s-46.2-310.8-151.2-407.9c-104.9-97.1-233.2-25-255.8,41-22.6,66,19.3,146.5,19.3,146.5"/>
      </g>
      <g>
        <path class="cls-4" d="M1173.3,3264.9s291.3-120.7,428.5-80.5c137.2,40.2,140.7,187.9,95.4,241.4-45.3,53.5-136,59.1-136,59.1"/>
        <path class="cls-4" d="M1174.8,3263.7s46.2,310.8,151.2,407.9c104.9,97.1,233.2,25,255.8-41,22.6-66-19.3-146.5-19.3-146.5"/>
      </g>
      <path class="cls-1" d="M2531.6,1499.9s208-396.4,209.1-396.2,59-138.6,199.9-80.7c141,57.8,1175.6,567.5,1175.6,567.5,0,0,130.5,56.3,71.5,182.7-59,126.4-225.3,471.3-225.3,471.3l-1431-744.6Z"/>
      <rect class="cls-1" x="3117.8" y="979.3" width="219" height="1901.5" transform="translate(83 3992.6) rotate(-64.1)"/>
      <ellipse class="cls-1" cx="4076.1" cy="2341.5" rx="112.1" ry="109.3"/>
      <ellipse class="cls-1" cx="2379.9" cy="1519.3" rx="112.1" ry="109.3"/>
    </g>
  </g>
</svg>