<?xml version="1.0" encoding="UTF-8"?>
<svg xmlns="http://www.w3.org/2000/svg" xmlns:bx="https://boxy-svg.com" version="1.1" viewBox="0 0 6000 6000">
  <defs>
    <style>
      .cls-1 {
        fill: #fff;
      }

      .cls-2 {
        fill: #cd2020;
      }

      .cls-3 {
        fill: #ffba00;
      }

      .cls-4 {
        fill: #0d38a6;
      }
    </style>
  </defs>
  <!-- Generator: Adobe Illustrator 28.6.0, SVG Export Plug-In . SVG Version: 1.2.0 Build 709)  -->
  <g>
    <g id="Layer_1">
      <path class="cls-3" d="M2329.1,4714.4l1974,1.1s97.2,2.6,149.5-28.1c78.8-46.1,199.4-138.7,330.6-285.5,294.4-329.5,423.9-692.5,452.3-1013.4s-63.8-687.4-132.4-824.7c-32-63.9-82.1-73.4-121.2-59.1-83,30.5-222.3,151.5-314.5,194.2-92.7,43-113,67.1-379.6,140.8-266.6,73.6-459.9,81-459.9,81,0,0,278.6-423.5-62.9-913.5-341.4-490-907.8-456.6-1063.3-420.6-155.4,36-376.4,108.3-535.1,292-158.7,183.7-183.3,317.6-183.3,317.6,0,0-47.7,12.7-92,7.1-59.5-7.5-230-45.1-300.5-36-77.3,9.9-117,76.4-129.3,144.1-14.2,78.3,6.6,219.3,227.8,384.8,131,98,390.9,210,390.9,210,0,0,24.6,39.6,37.8,58.4,15.5,21.9,48.3,63.8,48.3,63.8,0,0-337.1,291.8-373.4,701.2-12.4,139.4-19.1,380.3,129.6,646.9,48.6,87.2,144.4,226.3,239.9,298.6,60.4,45.6,166.7,39.3,166.7,39.3Z"/>
      <polygon class="cls-1" points="4352.7 3886.1 4459.9 3886.1 4210.1 4438.6 4102.9 4438.6 4352.7 3886.1"/>
      <polygon class="cls-1" points="4352.7 3886.1 4352.7 3886.5 4459.3 3886.5 4209.8 4438.2 4103.5 4438.2 4353 3886.3 4352.7 3886.1 4352.7 3886.5 4352.7 3886.1 4352.4 3886 4102.3 4438.9 4210.3 4438.9 4460.4 3885.7 4352.5 3885.7 4352.4 3886 4352.7 3886.1"/>
      <polygon class="cls-1" points="4003.9 3209.1 3896.8 3209.1 4352.7 3886.1 4459.8 3886.1 4003.9 3209.1"/>
      <polygon class="cls-1" points="4003.9 3209.1 4003.9 3208.7 3896.1 3208.7 4352.5 3886.5 4460.5 3886.5 4004.1 3208.7 4003.9 3208.7 4003.9 3209.1 4003.6 3209.3 4459.1 3885.7 4352.9 3885.7 3897.5 3209.5 4003.9 3209.5 4003.9 3209.1 4003.6 3209.3 4003.9 3209.1"/>
      <polygon class="cls-1" points="4147.6 3886 4254.7 3886 4004.9 4438.5 3897.8 4438.5 4147.6 3886"/>
      <polygon class="cls-1" points="4147.6 3886 4147.6 3886.4 4254.2 3886.4 4004.7 4438.1 3898.4 4438.1 4147.9 3886.2 4147.6 3886 4147.6 3886.4 4147.6 3886 4147.2 3885.9 3897.2 4438.9 4005.2 4438.9 4255.3 3885.7 4147.3 3885.7 4147.2 3885.9 4147.6 3886"/>
      <polygon class="cls-1" points="3798.8 3209 3691.7 3209 4147.6 3886 4254.7 3886 3798.8 3209"/>
      <polygon class="cls-1" points="3798.8 3209 3798.8 3208.7 3691 3208.7 4147.4 3886.4 4255.4 3886.4 3799 3208.7 3798.8 3208.7 3798.8 3209 3798.5 3209.2 4254 3885.6 4147.8 3885.6 3692.4 3209.4 3798.8 3209.4 3798.8 3209 3798.5 3209.2 3798.8 3209"/>
      <polygon class="cls-1" points="3943.4 3885.8 4050.5 3885.8 3800.7 4438.2 3693.6 4438.2 3943.4 3885.8"/>
      <polygon class="cls-1" points="3943.4 3885.8 3943.4 3886.2 4049.9 3886.2 3800.5 4437.9 3694.1 4437.9 3943.7 3885.9 3943.4 3885.8 3943.4 3886.2 3943.4 3885.8 3943 3885.6 3693 4438.6 3800.9 4438.6 4051.1 3885.4 3943.1 3885.4 3943 3885.6 3943.4 3885.8"/>
      <polygon class="cls-1" points="3594.6 3208.8 3487.4 3208.8 3943.4 3885.8 4050.5 3885.8 3594.6 3208.8"/>
      <polygon class="cls-1" points="3594.6 3208.8 3594.6 3208.4 3486.7 3208.4 3943.2 3886.1 4051.2 3886.1 3594.8 3208.4 3594.6 3208.4 3594.6 3208.8 3594.3 3209 4049.8 3885.4 3943.6 3885.4 3488.1 3209.2 3594.6 3209.2 3594.6 3208.8 3594.3 3209 3594.6 3208.8"/>
      <path class="cls-4" d="M2536.2,1522.9s196.1-401.9,197.3-401.8c1.2,0,54.9-140.1,196.4-86.1,141.4,54,1181.8,535.2,1181.8,535.2,0,0,131,52.7,75.8,180.7s-211.3,477.3-211.3,477.3l-1440-705.3Z"/>
      <rect class="cls-2" x="3117.8" y="979.5" width="219" height="1901.4" transform="translate(143.8 4082.7) rotate(-65.8)"/>
      <polygon class="cls-2" points="2404.9 1440.5 2404.7 1441 4138.7 2220.2 4049.3 2419 2315.8 1640 2405.4 1440.7 2404.9 1440.5 2404.7 1441 2404.9 1440.5 2404.5 1440.3 2314.5 1640.5 4049.8 2420.3 4140 2219.7 2404.7 1439.9 2404.5 1440.3 2404.9 1440.5"/>
      <ellipse class="cls-2" cx="4087.7" cy="2316.8" rx="112.1" ry="109.3" transform="translate(-65.3 119.1) rotate(-1.7)"/>
      <path class="cls-2" d="M4084.5,2207.5v.5h3.4c60.1,0,109.6,46.6,111.3,105.5v3.1c0,58.6-47.9,107.1-108.4,108.8h-3.4c-60.1,0-109.6-46.6-111.3-105.5v-3.1c0-58.6,47.9-107.1,108.4-108.8v-.5s0-.5,0-.5c-61.1,1.8-109.4,50.6-109.4,109.8v3.2c1.7,59.5,51.7,106.5,112.3,106.5h3.4c61.1-1.8,109.4-50.6,109.4-109.8v-3.2c-1.7-59.5-51.7-106.5-112.3-106.5h-3.4v.5Z"/>
      <ellipse class="cls-2" cx="2368.4" cy="1544" rx="112.1" ry="109.3" transform="translate(-43.6 69.1) rotate(-1.7)"/>
      <path class="cls-2" d="M2365.2,1434.7v.5h3.4c60.1,0,109.6,46.6,111.3,105.6v3.1c0,58.7-47.9,107.1-108.4,108.9h-3.4c-60.1,0-109.6-46.6-111.3-105.6v-3.1c0-58.7,47.9-107.1,108.4-108.9v-1c-61,1.8-109.4,50.6-109.4,109.9v3.2c1.7,59.5,51.7,106.6,112.3,106.6h3.4c61-1.8,109.4-50.6,109.4-109.9v-3.2c-1.7-59.5-51.7-106.6-112.3-106.6h-3.4v.5Z"/>
      <polygon class="cls-1" points="2784.4 1580.8 2736.2 1498.4 2642.2 1515 2705.6 1443.7 2660.8 1359.4 2748.2 1397.7 2814.5 1329 2805.1 1424 2890.9 1465.8 2797.7 1486.2 2784.4 1580.8"/>
      <polygon class="cls-1" points="3070.9 1707.4 3022.6 1625 2928.6 1641.6 2992.1 1570.3 2947.2 1486.1 3034.7 1524.4 3100.9 1455.7 3091.5 1550.7 3177.3 1592.5 3084.1 1612.9 3070.9 1707.4"/>
      <polygon class="cls-1" points="3355.9 1829.6 3307.6 1747.2 3213.7 1763.8 3277.1 1692.5 3232.2 1608.3 3319.7 1646.5 3385.9 1577.9 3376.6 1672.8 3462.3 1714.6 3369.1 1735.1 3355.9 1829.6"/>
      <polygon class="cls-1" points="3633.4 1954.2 3585.2 1871.8 3491.2 1888.4 3554.6 1817.1 3509.8 1732.9 3597.2 1771.1 3663.5 1702.5 3654.1 1797.4 3739.9 1839.2 3646.6 1859.7 3633.4 1954.2"/>
      <polygon class="cls-1" points="3918.6 2083 3870.4 2000.7 3776.4 2017.3 3839.9 1946 3795 1861.7 3882.4 1900 3948.7 1831.3 3939.3 1926.3 4025.1 1968.1 3931.9 1988.5 3918.6 2083"/>
      <polygon class="cls-1" points="3067.1 1398 3018.8 1315.7 2924.9 1332.3 2988.3 1260.9 2943.4 1176.7 3030.9 1215 3097.1 1146.3 3087.7 1241.3 3173.5 1283.1 3080.3 1303.5 3067.1 1398"/>
      <polygon class="cls-1" points="3353.5 1524.7 3305.3 1442.3 3211.3 1458.9 3274.7 1387.6 3229.9 1303.3 3317.3 1341.6 3383.6 1272.9 3374.2 1367.9 3460 1409.7 3366.8 1430.1 3353.5 1524.7"/>
      <polygon class="cls-1" points="3638.5 1646.8 3590.3 1564.5 3496.3 1581.1 3559.7 1509.8 3514.9 1425.5 3602.3 1463.8 3668.6 1395.1 3659.2 1490.1 3745 1531.9 3651.8 1552.3 3638.5 1646.8"/>
      <polygon class="cls-1" points="3922 1777.4 3873.8 1695.1 3779.8 1711.7 3843.3 1640.4 3798.4 1556.1 3885.8 1594.4 3952.1 1525.7 3942.7 1620.7 4028.5 1662.5 3935.3 1682.9 3922 1777.4"/>
      <path class="cls-2" d="M2430.7,2179.8l575.3,216.1,1,.3,12.6-36-12.8,35.9h.2c0,.1,12.6-35.9,12.6-35.9l-12.8,35.9,10.2-28.6-10.2,28.6h0l10.2-28.6-10.2,28.6h.1l1.8-5.1-1.8,5.1h0l1.8-5.1-1.8,5.1s10.7,3.8,26.2,11.2c11.7,5.5,26.1,13.1,40.9,22.5,11.1,7,22.3,15.1,32.8,24,7.8,6.7,15.2,13.8,21.7,21.2,4.9,5.6,9.3,11.3,13.2,17.1,5.8,8.8,10.2,17.8,13.3,27,3,9.3,4.7,18.8,4.7,29.1s-1,16.5-3.3,25.9c-2.4,9.4-6.1,19.7-11.7,30.9-11.1,22.2-2.1,49.3,20.1,60.4,22.2,11.1,49.3,2.1,60.4-20.1,8.3-16.6,14.4-33,18.5-49.3,4.1-16.2,6-32.3,6-47.8s-.9-21.3-2.7-31.5c-3.3-19.1-9.6-36.8-17.7-52.8-7.1-14-15.6-26.8-24.8-38.5-16.2-20.4-34.7-37.3-53.3-51.6-13.9-10.7-27.9-19.8-41-27.6-19.7-11.7-37.6-20.3-50.8-26.1s-21.7-8.8-22.6-9.1l-14.9,42.5,15.8-42.1-575.3-216.1c-23.3-8.7-49.2,3-57.9,26.3-8.8,23.5,2.9,49.4,26.2,58.2h0Z"/>
      <polygon points="2450.2 2503.2 2258.6 2281.4 1984 2383.9 2135.8 2133.2 1953.5 1903.7 2238.9 1970.6 2400.8 1726.2 2425.3 2018.3 2707.7 2096.8 2437.5 2210.4 2450.2 2503.2"/>
      <path class="cls-2" d="M2450.2,2503.2l22.7-19.6-191.5-221.9c-8.2-9.5-21.4-12.9-33.2-8.5l-193.7,72.3,107.1-176.9c6.5-10.8,5.7-24.3-2.2-34.2l-128.7-161.9,201.3,47.2c12.3,2.9,24.9-2.1,31.9-12.6l114.2-172.4,17.3,206.1c1.1,12.5,9.7,23,21.9,26.4l199.3,55.4-190.6,80.2c-11.6,4.9-18.9,16.4-18.3,28.9l12.6,292.8,29.9-1.3,22.7-19.6-22.7,19.6,30-1.3-11.7-272,251-105.5c11.8-5,19.1-16.8,18.3-29.6-.8-12.7-9.6-23.6-21.9-27l-262.3-72.9-22.8-271.3c-1.1-12.7-10.1-23.4-22.5-26.5-12.4-3.2-25.4,1.8-32.4,12.5l-150.4,226.9-265-62.1c-12.4-2.9-25.4,2.4-32.2,13.2-6.8,10.8-6.1,24.7,1.9,34.7l169.4,213.1-141,232.9c-6.6,10.9-5.6,24.8,2.6,34.7,8.1,9.8,21.6,13.4,33.6,9l255-95.2,177.9,206.1c8.3,9.7,21.9,13,33.8,8.3s19.5-16.4,18.9-29.2l-30.2,1.2Z"/>
      <path class="cls-1" d="M2733,1120.9c-.3,0-14.3,28.1-34.7,69.6l39-6.9,48.7,83,13.3-95.3,94-20.6-86.5-42.2,7.4-75.1c-56.7,26.4-80.4,87.5-81.2,87.4Z"/>
      <path class="cls-1" d="M4201.4,1685l-31,32.2-88-38.5,45.1,84.7-63.8,71.9,94.6-16.8v.2c11.5-26,21.6-49.1,29.6-67.6,10.7-24.7,14.4-46.7,13.5-66Z"/>
    </g>
  </g>
</svg>