<?xml version="1.0" encoding="utf-8"?>
<!-- Generator: Adobe Illustrator 24.0.3, SVG Export Plug-In . SVG Version: 6.00 Build 0)  -->
<svg version="1.1" id="Layer_1" xmlns:bx="https://boxy-svg.com"
	 xmlns="http://www.w3.org/2000/svg" xmlns:xlink="http://www.w3.org/1999/xlink" x="0px" y="0px" viewBox="0 0 6000 6000"
	 style="enable-background:new 0 0 6000 6000;" xml:space="preserve">
<style type="text/css">
	.st0{fill:#FFBA00;}
	.st1{fill:#FFFFFF;}
	.st2{fill:#0D38A6;}
	.st3{fill:#CD2020;}
</style>
<g>
	<path class="st0" d="M2329.1,4714.4l1974,1.1c0,0,97.2,2.6,149.5-28.1c78.8-46.1,199.4-138.7,330.6-285.5
		c294.4-329.5,423.9-692.5,452.3-1013.4c28.4-320.9-63.8-687.4-132.4-824.7c-32-63.9-82.1-73.4-121.2-59.1
		c-83,30.5-222.3,151.5-314.5,194.2c-92.7,43-113,67.1-379.6,140.8c-266.6,73.6-459.9,81-459.9,81s278.6-423.5-62.9-913.5
		c-341.4-490-907.8-456.6-1063.3-420.6c-155.4,36-376.4,108.3-535.1,292c-158.7,183.7-183.3,317.6-183.3,317.6s-47.7,12.7-92,7.1
		c-59.5-7.5-230-45.1-300.5-36c-77.3,9.9-117,76.4-129.3,144.1c-14.2,78.3,6.6,219.3,227.8,384.8c131,98,390.9,210,390.9,210
		s24.6,39.6,37.8,58.4c15.5,21.9,48.3,63.8,48.3,63.8s-337.1,291.8-373.4,701.2c-12.4,139.4-19.1,380.3,129.6,646.9
		c48.6,87.2,144.4,226.3,239.9,298.6C2222.8,4720.7,2329.1,4714.4,2329.1,4714.4z"/>
	<polygon class="st1" points="4352.7,3886.1 4459.9,3886.1 4210.1,4438.6 4102.9,4438.6 	"/>
	<polygon class="st1" points="4352.7,3886.1 4352.7,3886.5 4459.3,3886.5 4209.8,4438.2 4103.5,4438.2 4353,3886.3 4352.7,3886.1 
		4352.7,3886.5 4352.7,3886.1 4352.4,3886 4102.3,4438.9 4210.3,4438.9 4460.4,3885.7 4352.5,3885.7 4352.4,3886 	"/>
	<polygon class="st1" points="4003.9,3209.1 3896.8,3209.1 4352.7,3886.1 4459.8,3886.1 	"/>
	<polygon class="st1" points="4003.9,3209.1 4003.9,3208.7 3896.1,3208.7 4352.5,3886.5 4460.5,3886.5 4004.1,3208.7 4003.9,3208.7 
		4003.9,3209.1 4003.6,3209.3 4459.1,3885.7 4352.9,3885.7 3897.5,3209.5 4003.9,3209.5 4003.9,3209.1 4003.6,3209.3 	"/>
	<polygon class="st1" points="4147.6,3886 4254.7,3886 4004.9,4438.5 3897.8,4438.5 	"/>
	<polygon class="st1" points="4147.6,3886 4147.6,3886.4 4254.2,3886.4 4004.7,4438.1 3898.4,4438.1 4147.9,3886.2 4147.6,3886 
		4147.6,3886.4 4147.6,3886 4147.2,3885.9 3897.2,4438.9 4005.2,4438.9 4255.3,3885.7 4147.3,3885.7 4147.2,3885.9 	"/>
	<polygon class="st1" points="3798.8,3209 3691.7,3209 4147.6,3886 4254.7,3886 	"/>
	<polygon class="st1" points="3798.8,3209 3798.8,3208.7 3691,3208.7 4147.4,3886.4 4255.4,3886.4 3799,3208.7 3798.8,3208.7 
		3798.8,3209 3798.5,3209.2 4254,3885.6 4147.8,3885.6 3692.4,3209.4 3798.8,3209.4 3798.8,3209 3798.5,3209.2 	"/>
	<polygon class="st1" points="3943.4,3885.8 4050.5,3885.8 3800.7,4438.2 3693.6,4438.2 	"/>
	<polygon class="st1" points="3943.4,3885.8 3943.4,3886.2 4049.9,3886.2 3800.5,4437.9 3694.1,4437.9 3943.7,3885.9 3943.4,3885.8 
		3943.4,3886.2 3943.4,3885.8 3943,3885.6 3693,4438.6 3800.9,4438.6 4051.1,3885.4 3943.1,3885.4 3943,3885.6 	"/>
	<polygon class="st1" points="3594.6,3208.8 3487.4,3208.8 3943.4,3885.8 4050.5,3885.8 	"/>
	<polygon class="st1" points="3594.6,3208.8 3594.6,3208.4 3486.7,3208.4 3943.2,3886.1 4051.2,3886.1 3594.8,3208.4 3594.6,3208.4 
		3594.6,3208.8 3594.3,3209 4049.8,3885.4 3943.6,3885.4 3488.1,3209.2 3594.6,3209.2 3594.6,3208.8 3594.3,3209 	"/>
	<path class="st2" d="M2536.2,1522.9c0,0,196.1-401.9,197.3-401.8c1.2,0.1,54.9-140.1,196.4-86.1
		c141.4,54,1181.8,535.2,1181.8,535.2s131,52.7,75.8,180.7c-55.2,128-211.3,477.3-211.3,477.3L2536.2,1522.9z"/>
	
		<rect x="3117.8" y="979.4" transform="matrix(0.4099 -0.9121 0.9121 0.4099 143.9357 4082.686)" class="st3" width="219" height="1901.5"/>
	<polygon class="st3" points="2404.9,1440.5 2404.7,1441 4138.7,2220.2 4049.3,2419 2315.8,1640 2405.4,1440.7 2404.9,1440.5 
		2404.7,1441 2404.9,1440.5 2404.5,1440.3 2314.5,1640.5 4049.8,2420.3 4140,2219.7 2404.7,1439.9 2404.5,1440.3 	"/>
	
		<ellipse transform="matrix(0.9996 -2.890652e-02 2.890652e-02 0.9996 -65.2612 119.1267)" class="st3" cx="4087.6" cy="2316.8" rx="112.1" ry="109.3"/>
	<path class="st3" d="M4084.5,2207.5l0,0.5c1.1,0,2.3,0,3.4,0c60.1,0,109.6,46.6,111.3,105.5c0,1,0,2.1,0,3.1
		c0,58.6-47.9,107.1-108.4,108.8c-1.1,0-2.3,0-3.4,0c-60.1,0-109.6-46.6-111.3-105.5c0-1,0-2.1,0-3.1c0-58.6,47.9-107.1,108.4-108.8
		L4084.5,2207.5l0-0.5c-61.1,1.8-109.4,50.6-109.4,109.8c0,1,0,2.1,0,3.2c1.7,59.5,51.7,106.5,112.3,106.5c1.1,0,2.3,0,3.4,0
		c61.1-1.8,109.4-50.6,109.4-109.8c0-1,0-2.1,0-3.2c-1.7-59.5-51.7-106.5-112.3-106.5c-1.1,0-2.3,0-3.4,0L4084.5,2207.5z"/>
	
		<ellipse transform="matrix(0.9996 -2.890063e-02 2.890063e-02 0.9996 -43.632 69.092)" class="st3" cx="2368.4" cy="1544" rx="112.1" ry="109.3"/>
	<path class="st3" d="M2365.2,1434.7l0,0.5c1.1,0,2.2,0,3.4,0c60.1,0,109.6,46.6,111.3,105.6c0,1,0,2.1,0,3.1
		c0,58.7-47.9,107.1-108.4,108.9c-1.1,0-2.2,0-3.4,0c-60.1,0-109.6-46.6-111.3-105.6c0-1,0-2.1,0-3.1c0-58.7,47.9-107.1,108.4-108.9
		L2365.2,1434.7l0-0.5c-61,1.8-109.4,50.6-109.4,109.9c0,1,0,2.1,0,3.2c1.7,59.5,51.7,106.6,112.3,106.6c1.1,0,2.3,0,3.4,0
		c61-1.8,109.4-50.6,109.4-109.9c0-1,0-2.1,0-3.2c-1.7-59.5-51.7-106.6-112.3-106.6c-1.1,0-2.3,0-3.4,0L2365.2,1434.7z"/>
	<polygon class="st1" points="2784.4,1580.8 2736.2,1498.4 2642.2,1515 2705.6,1443.7 2660.8,1359.4 2748.2,1397.7 2814.5,1329 
		2805.1,1424 2890.9,1465.8 2797.7,1486.2 	"/>
	<polygon class="st1" points="3070.9,1707.4 3022.6,1625 2928.6,1641.6 2992.1,1570.3 2947.2,1486.1 3034.7,1524.4 3100.9,1455.7 
		3091.5,1550.7 3177.3,1592.5 3084.1,1612.9 	"/>
	<polygon class="st1" points="3355.9,1829.6 3307.6,1747.2 3213.7,1763.8 3277.1,1692.5 3232.2,1608.3 3319.7,1646.5 3385.9,1577.9 
		3376.6,1672.8 3462.3,1714.6 3369.1,1735.1 	"/>
	<polygon class="st1" points="3633.4,1954.2 3585.2,1871.8 3491.2,1888.4 3554.6,1817.1 3509.8,1732.9 3597.2,1771.1 3663.5,1702.5 
		3654.1,1797.4 3739.9,1839.2 3646.6,1859.7 	"/>
	<polygon class="st1" points="3918.6,2083 3870.4,2000.7 3776.4,2017.3 3839.9,1946 3795,1861.7 3882.4,1900 3948.7,1831.3 
		3939.3,1926.3 4025.1,1968.1 3931.9,1988.5 	"/>
	<polygon class="st1" points="3067.1,1398 3018.8,1315.7 2924.9,1332.3 2988.3,1260.9 2943.4,1176.7 3030.9,1215 3097.1,1146.3 
		3087.7,1241.3 3173.5,1283.1 3080.3,1303.5 	"/>
	<polygon class="st1" points="3353.5,1524.7 3305.3,1442.3 3211.3,1458.9 3274.7,1387.6 3229.9,1303.3 3317.3,1341.6 3383.6,1272.9 
		3374.2,1367.9 3460,1409.7 3366.8,1430.1 	"/>
	<polygon class="st1" points="3638.5,1646.8 3590.3,1564.5 3496.3,1581.1 3559.7,1509.8 3514.9,1425.5 3602.3,1463.8 3668.6,1395.1 
		3659.2,1490.1 3745,1531.9 3651.8,1552.3 	"/>
	<polygon class="st1" points="3922,1777.4 3873.8,1695.1 3779.8,1711.7 3843.3,1640.4 3798.4,1556.1 3885.8,1594.4 3952.1,1525.7 
		3942.7,1620.7 4028.5,1662.5 3935.3,1682.9 	"/>
	<polygon class="st1" points="4206.3,1900.3 4158.1,1817.9 4064.1,1834.6 4127.5,1763.2 4082.7,1679 4170.1,1717.3 4236.4,1648.6 
		4227,1743.6 4312.8,1785.4 4219.5,1805.8 	"/>
	<polygon class="st1" points="2786,1265.6 2737.7,1183.3 2643.7,1199.9 2707.2,1128.5 2662.3,1044.3 2749.8,1082.6 2816,1013.9 
		2806.6,1108.9 2892.4,1150.7 2799.2,1171.1 	"/>
	<path class="st3" d="M2430.7,2179.8l575.3,216.1l1,0.3l12.6-36l-12.8,35.9l0.2,0.1l12.6-36l-12.8,35.9l10.2-28.6l-10.2,28.6l0,0
		l10.2-28.6l-10.2,28.6l0.1,0l1.8-5.1l-1.8,5.1l0,0l1.8-5.1l-1.8,5.1c0,0,10.7,3.8,26.2,11.2c11.7,5.5,26.1,13.1,40.9,22.5
		c11.1,7,22.3,15.1,32.8,24c7.8,6.7,15.2,13.8,21.7,21.2c4.9,5.6,9.3,11.3,13.2,17.1c5.8,8.8,10.2,17.8,13.3,27
		c3,9.3,4.7,18.8,4.7,29.1c0,8-1,16.5-3.3,25.9c-2.4,9.4-6.1,19.7-11.7,30.9c-11.1,22.2-2.1,49.3,20.1,60.4
		c22.2,11.1,49.3,2.1,60.4-20.1c8.3-16.6,14.4-33,18.5-49.3c4.1-16.2,6-32.3,6-47.8c0-10.8-0.9-21.3-2.7-31.5
		c-3.3-19.1-9.6-36.8-17.7-52.8c-7.1-14-15.6-26.8-24.8-38.5c-16.2-20.4-34.7-37.3-53.3-51.6c-13.9-10.7-27.9-19.8-41-27.6
		c-19.7-11.7-37.6-20.3-50.8-26.1c-13.2-5.8-21.7-8.8-22.6-9.1l-14.9,42.5l15.8-42.1l-575.3-216.1c-23.3-8.7-49.2,3-57.9,26.3
		C2395.7,2145.1,2407.4,2171,2430.7,2179.8L2430.7,2179.8z"/>
	<polygon points="2450.2,2503.2 2258.6,2281.4 1984,2383.9 2135.8,2133.2 1953.5,1903.7 2238.9,1970.6 2400.8,1726.2 2425.3,2018.3 
		2707.7,2096.8 2437.5,2210.4 	"/>
	<path class="st3" d="M2450.2,2503.2l22.7-19.6l-191.5-221.9c-8.2-9.5-21.4-12.9-33.2-8.5l-193.7,72.3l107.1-176.9
		c6.5-10.8,5.7-24.3-2.2-34.2l-128.7-161.9l201.3,47.2c12.3,2.9,24.9-2.1,31.9-12.6l114.2-172.4l17.3,206.1
		c1.1,12.5,9.7,23,21.9,26.4l199.3,55.4l-190.6,80.2c-11.6,4.9-18.9,16.4-18.3,28.9l12.6,292.8L2450.2,2503.2l22.7-19.6
		L2450.2,2503.2l30-1.3l-11.7-272l251-105.5c11.8-5,19.1-16.8,18.3-29.6c-0.8-12.7-9.6-23.6-21.9-27l-262.3-72.9l-22.8-271.3
		c-1.1-12.7-10.1-23.4-22.5-26.5c-12.4-3.2-25.4,1.8-32.4,12.5l-150.4,226.9l-265-62.1c-12.4-2.9-25.4,2.4-32.2,13.2
		c-6.8,10.8-6.1,24.7,1.9,34.7l169.4,213.1l-141,232.9c-6.6,10.9-5.6,24.8,2.6,34.7c8.1,9.8,21.6,13.4,33.6,9l255-95.2l177.9,206.1
		c8.3,9.7,21.9,13,33.8,8.3s19.5-16.4,18.9-29.2L2450.2,2503.2z"/>
</g>
</svg>
