<svg version="1.2" xmlns="http://www.w3.org/2000/svg" viewBox="0 0 6000 6000" width="6000" height="6000">
	<title>00-original-svg</title>
	<style>
		.s0 { fill: #ffba00 } 
		.s1 { fill: #ed2f2f;stroke: #aa3232;stroke-width: .4 } 
		.s2 { fill: #942424;stroke: #aa3232;stroke-width: .4 } 
		.s3 { fill: #ffffff } 
	</style>
	<g id="Layer">
		<path id="Layer" class="s0" d="m2329.1 4714.4l1974 1.1c0 0 97.2 2.6 149.5-28.1 78.8-46.1 199.4-138.7 330.6-285.5 294.4-329.5 423.9-692.5 452.3-1013.4 28.4-320.9-63.8-687.4-132.4-824.7-32-63.9-82.1-73.4-121.2-59.1-83 30.5-222.3 151.5-314.5 194.2-92.7 43-113 67.1-379.6 140.8-266.6 73.6-459.9 81-459.9 81 0 0 278.6-423.5-62.9-913.5-341.4-490-907.8-456.6-1063.3-420.6-155.4 36-376.4 108.3-535.1 292-158.7 183.7-183.3 317.6-183.3 317.6 0 0-47.7 12.7-92 7.1-59.5-7.5-230-45.1-300.5-36-77.3 9.9-117 76.4-129.3 144.1-14.2 78.3 6.6 219.3 227.8 384.8 131 98 390.9 210 390.9 210 0 0 24.6 39.6 37.8 58.4 15.5 21.9 48.3 63.8 48.3 63.8 0 0-337.1 291.8-373.4 701.2-12.4 139.4-19.1 380.3 129.6 646.9 48.6 87.2 144.4 226.3 239.9 298.6 60.4 45.6 166.7 39.3 166.7 39.3z"/>
		<path id="Layer" class="s1" d="m798.5 2858.1c51.7 24.7 129.6 112 168.3 188.2 5.9 11.7 11.2 20.7 12.5 20.7 1.8-0.1 9.5-6.7 17.6-14.7 26.9-26.5 70.2-62.9 86.9-73.6 19.8-12.5 24.2-10 43 25.3 25.2 47.8 45.9 138.3 58.7 252.8l3.5 30.3 11.6-36.3c15.7-48.9 48.7-121.1 73.3-158.5 19-29.9 48.5-61.6 56.7-61.8 7-0.1 35.8 35.5 48 59.2l11.6 22.8 17.6-17.3c35.4-34.5 75.8-62.1 114.2-76.7 14.2-5.4 22.5-6.9 24.3-3.8 1.7 2.5 3.5 27.3 3.5 55.1 0.4 48.6-11.6 132.2-29.9 205.1-3.3 13.1-5.2 24.4-4.4 24.8 0.9 0.9 7-0.5 13.4-3.2 16-6.4 72-11.7 86.4-8.5 8.7 2.1 11.3 5.5 11.5 14.6 0.7 42.6-43.8 132.8-105.8 214.7l-20.8 27.7 31.9 13.8c17.6 7.5 63.1 26.3 100.7 42.2 38.1 15.8 69.2 30.1 69.2 32.2 0.1 8.3-104.1 110-138.9 135.8-84.9 61.8-177.3 99.1-267 107.5l-37.3 3.7 24.6 45.2c61.9 111.5 126.2 187.3 181.8 212.4 17.5 7.9 33.3 16.8 35.1 18.9 12.9 20.2-42.1 52-71.4 41.2-33.7-12-127.4-129.4-188.3-235.2-16.5-28.9-31.7-52.5-33.5-52.5-1.7 0.1-6.4 4-11.1 9.3-4.3 5.3-19.7 19.1-33.8 30.6-94.7 77.2-225.1 121.2-367.2 123.6-29.9 0.5-54.3-0.4-54.3-2.5 0-2.6 57.7-181.8 63.9-198.4 2.1-6.1-0.5-7.3-16.2-9.3-10.4-1.1-37.4-3.7-60.1-5.9-82.7-8.5-154.3-29-183.3-52.9l-15.5-12.3 17.5-21.2c9.4-11.8 27.3-28.7 39.3-37.1 12-8.5 21.9-16.9 22.3-18.7 0-1.7-10.6-8-23.3-14.3-35-16.8-109.6-60.3-137.8-80.6-32.1-22.9-71.8-60.5-72-68.3-0.2-15.6 105.6-50.9 156-51.8 20-0.3 19.6 3.2 3.2-40.9-5.5-14.7-9.3-32.8-8.6-43.3l1-17.8 47.8-0.4c60.8-0.6 128 14.8 202.4 46.5 15.3 6.7 28.4 11.7 29.3 10.8 0.8-0.5-13.8-17.6-32.4-37.3-64.1-68.8-120.7-148.2-136.2-190.9-13.7-37.6-13.7-39.8 1.8-45.3 23.8-8.2 89.6-19.3 116.1-19.8 17.8-0.3 25.6-2.1 25.6-6-0.1-2.7-6.1-21.7-13.4-42-17.3-47-28.1-96.4-32-143.2-4.9-59 9.6-125.7 27-126 3.9-0.1 20.1 5.7 35.4 13.3z"/>
		<path id="Layer" class="s2" d="m4615 1650.9c-32.5 20-78 83.3-98.3 136.5-3.1 8.1-6 14.5-6.9 14.5-1.1 0.1-6.7-3.7-12.6-8.4-19.7-15.7-50.9-36.8-62.7-42.7-14-6.9-16.7-4.9-26.8 19.8-13.3 33.4-20.6 94.8-21.1 171.5l-0.3 20.3-10.1-23.2c-13.8-31.3-40.8-76.8-59.7-99.9-14.7-18.4-36.4-37.4-41.9-36.9-4.6 0.4-21.2 26-27.6 42.5l-6.1 15.9-12.9-10.2c-25.9-20.3-54.5-35.8-81-42.7-9.8-2.7-15.4-3-16.3-0.9-1 1.8-0.5 18.3 1.5 36.7 3.1 32.3 16.9 86.8 34.2 133.8 3 8.5 5.1 15.8 4.6 16.2-0.6 0.6-4.7 0.1-9.1-1.3-11.1-3.1-48.5-2.7-57.8 0.5-5.6 1.9-7.2 4.4-6.6 10.4 2.5 28.3 38.3 85 85.1 134.9l15.7 16.9-20.2 11.3c-11.1 6.2-39.9 21.9-63.7 35-24.1 13.2-43.7 24.8-43.6 26.2 0.5 5.5 76.7 65.6 101.5 80.2 60.6 35 124.4 53.2 184.4 52.6l25-0.2-13.2 31.7c-33.2 78.1-70.4 132.8-105.5 153.3-11.1 6.5-20.9 13.5-21.9 15-7.2 14.3 31.5 31.5 50.2 22.3 21.4-10.3 75.2-94.6 108.2-169 8.9-20.2 17.3-37 18.5-37.1 1.1-0.1 4.5 2.3 8 5.4 3.2 3.2 14.4 11.3 24.5 17.9 68.2 44.5 157.7 64.5 251.9 56.2 19.9-1.8 35.9-4.1 35.8-5.5-0.1-1.7-50.9-116.3-56.2-126.9-1.8-3.9-0.2-4.9 10.1-7.3 6.8-1.5 24.5-5.1 39.4-8.1 54.1-11.5 100.1-30.1 117.7-47.9l9.4-9.2-13.1-12.8c-7-7.3-20.1-17.1-28.6-21.9-8.6-4.8-15.7-9.7-16.1-10.8-0.1-1.1 6.4-6.1 14.4-11.1 22.1-13.6 68.4-47.6 85.7-63.1 19.6-17.4 43.3-45 42.9-50.2-1-10.4-73.5-26.4-107-23.4-13.2 1.2-12.7 3.4-4.9-26.9 2.5-10.1 3.8-22.4 2.6-29.3l-1.9-11.7-31.7 3.1c-40.3 3.9-83.7 18.7-130.8 45-9.7 5.5-18 9.7-18.6 9.2-0.6-0.3 7.9-12.6 18.8-27 37.7-50.1 69.6-106.6 76.8-136 6.5-25.9 6.3-27.3-4.3-29.8-16.3-3.8-60.7-6.6-78.3-5-11.8 1-17.1 0.3-17.4-2.3-0.1-1.7 2.5-14.7 5.9-28.7 8.2-32.4 11.9-65.8 11.2-97.1-0.9-39.4-15.1-82.6-26.7-81.6-2.6 0.2-12.9 5.2-22.5 11.3z"/>
		<path id="Layer" class="s3" d="m4352.7 3886.1h107.2l-249.8 552.5h-107.2z"/>
		<path id="Layer" class="s3" d="m4352.7 3886.1v0.4h106.6l-249.5 551.7h-106.3l249.5-551.9-0.3-0.2v0.4-0.4l-0.3-0.1-250.1 552.9h108l250.1-553.2h-107.9l-0.1 0.3z"/>
		<path id="Layer" class="s3" d="m4003.9 3209.1h-107.1l455.9 677h107.1z"/>
		<path id="Layer" class="s3" d="m4003.9 3209.1v-0.4h-107.8l456.4 677.8h108l-456.4-677.8h-0.2v0.4l-0.3 0.2 455.5 676.4h-106.2l-455.4-676.2h106.4v-0.4l-0.3 0.2z"/>
		<path id="Layer" class="s3" d="m4147.6 3886h107.1l-249.8 552.5h-107.1z"/>
		<path id="Layer" class="s3" d="m4147.6 3886v0.4h106.6l-249.5 551.7h-106.3l249.5-551.9-0.3-0.2v0.4-0.4l-0.4-0.1-250 553h108l250.1-553.2h-108l-0.1 0.2z"/>
		<path id="Layer" class="s3" d="m3798.8 3209h-107.1l455.9 677h107.1z"/>
		<path id="Layer" class="s3" d="m3798.8 3209v-0.3h-107.8l456.4 677.7h108l-456.4-677.7h-0.2v0.3l-0.3 0.2 455.5 676.4h-106.2l-455.4-676.2h106.4v-0.4l-0.3 0.2z"/>
		<path id="Layer" class="s3" d="m3943.4 3885.8h107.1l-249.8 552.4h-107.1z"/>
		<path id="Layer" class="s3" d="m3943.4 3885.8v0.4h106.5l-249.4 551.7h-106.4l249.6-552-0.3-0.1v0.4-0.4l-0.4-0.2-250 553h107.9l250.2-553.2h-108l-0.1 0.2z"/>
		<path id="Layer" class="s3" d="m3594.6 3208.8h-107.2l456 677h107.1z"/>
		<path id="Layer" class="s3" d="m3594.6 3208.8v-0.4h-107.9l456.5 677.7h108l-456.4-677.7h-0.2v0.4l-0.3 0.2 455.5 676.4h-106.2l-455.5-676.2h106.5v-0.4l-0.3 0.2z"/>
	</g>
</svg>