<?xml version="1.0" encoding="utf-8"?>
<!-- Generator: Adobe Illustrator 26.5.0, SVG Export Plug-In . SVG Version: 6.00 Build 0)  -->
<svg version="1.1" id="Layer_1" xmlns:bx="https://boxy-svg.com"
	 xmlns="http://www.w3.org/2000/svg" xmlns:xlink="http://www.w3.org/1999/xlink" x="0px" y="0px" viewBox="0 0 6000 6000"
	 style="enable-background:new 0 0 6000 6000;" xml:space="preserve">
<style type="text/css">
	.st0{fill:#BB7108;}
	.st1{fill:#B03212;}
	.st2{fill:#FFBA00;}
	.st3{fill:#FFFFFF;stroke:#FFFFFF;stroke-width:0.75;}
</style>
<path bx:origin="0.391 0.719" class="st0" d="M4539.1,4145c0,0-1054.4-1104.8-1080.4-1320.1c-26-215.3,141.6-313.2,340.5-172
	C3998.1,2794.2,4539.1,4145,4539.1,4145z"/>
<path class="st1" d="M4503.6,4239.6c0,0-770.5-1621.9-720.3-1871.9c50.2-250,273.5-297.6,443.6-66.7
	C4397,2532,4503.6,4239.6,4503.6,4239.6z"/>
<path class="st2" d="M1981.6,4640.7l1974,1.1c0,0,97.2,2.6,149.5-28.1c78.8-46.1,199.4-138.7,330.6-285.5
	c294.4-329.5,423.9-692.5,452.3-1013.4c28.4-320.9-63.8-687.4-132.4-824.7c-32-63.9-82.1-73.4-121.2-59.1
	c-83,30.5-222.3,151.5-314.5,194.2c-92.7,43-113,67.1-379.6,140.8s-459.9,81-459.9,81s278.6-423.5-62.9-913.5
	S2509.7,1477,2354.3,1513c-155.4,36-376.4,108.3-535.1,292s-183.3,317.6-183.3,317.6s-47.7,12.7-92,7.1c-59.5-7.5-230-45.1-300.5-36
	c-77.3,9.9-117,76.4-129.3,144.1c-14.2,78.3,6.6,219.3,227.8,384.8c131,98,390.9,210,390.9,210s24.6,39.6,37.8,58.4
	c15.5,21.9,48.3,63.8,48.3,63.8s-337.1,291.8-373.4,701.2c-12.4,139.4-19.1,380.3,129.6,646.9c48.6,87.2,144.4,226.3,239.9,298.6
	C1875.4,4647.1,1981.6,4640.7,1981.6,4640.7z"/>
<g>
	<polygon class="st3" points="4005.3,3812.4 4112.4,3812.4 3862.6,4364.9 3755.5,4364.9 	"/>
	<polygon class="st3" points="3656.5,3135.4 3549.4,3135.4 4005.3,3812.4 4112.4,3812.4 	"/>
</g>
<g transform="matrix(1, 0, 0, 1, -205.116455, -0.083717)">
	<polygon class="st3" points="4005.3,3812.4 4112.4,3812.4 3862.6,4364.9 3755.5,4364.9 	"/>
	<polygon class="st3" points="3656.5,3135.4 3549.4,3135.4 4005.3,3812.4 4112.4,3812.4 	"/>
</g>
<g transform="matrix(1, 0, 0, 1, -409.348663, -0.329002)">
	<polygon class="st3" points="4005.3,3812.4 4112.4,3812.4 3862.6,4364.9 3755.5,4364.9 	"/>
	<polygon class="st3" points="3656.5,3135.4 3549.4,3135.4 4005.3,3812.4 4112.4,3812.4 	"/>
</g>
<path class="st0" d="M4467.4,4283.5c0,0-326.9-1982.3-195.6-2235.5c131.3-253.2,386.1-235.5,497.6,65.5
	C4880.9,2414.3,4467.4,4283.5,4467.4,4283.5z"/>
<path class="st1" d="M4467.1,4283.2c0,0,232.5-1995.6,428.5-2202.9c196-207.2,436.1-119.9,460.2,200.2
	C5380,2600.6,4467.1,4283.2,4467.1,4283.2z"/>
<path class="st0" d="M4466.9,4283.9c0,0,714-1725.5,941.9-1861c227.9-135.6,420.3,3.4,360.8,295.7
	C5710,3010.8,4466.9,4283.9,4466.9,4283.9z"/>
<path bx:origin="0.391 0.719" class="st1" d="M4467.9,4282.7c0,0,931.1-1188.5,1138-1244.6c206.9-56,326.6,94,216.7,308.7
	C5712.6,3561.5,4467.9,4282.7,4467.9,4282.7z"/>
<path class="st1" d="M1646.3,2107.1c-31.2-37.2-103.8-21.6-87.8,43.4s201.2,521.5,150.4,623.5c-50.8,102-213.8,369.9-187.4,467.3
	c26.4,97.4,133.5,111.6,195.4,88.1c61.9-23.5,122.9-53.1,103.7-344.4s-35.8-441.5-58-540.6S1688.6,2157.4,1646.3,2107.1z"/>
</svg>
