<svg version="1.2" xmlns="http://www.w3.org/2000/svg" viewBox="0 0 6000 6000" width="6000" height="6000">
	<title>00-original-svg</title>
	<style>
		.s0 { fill: #884747;stroke: #000000;stroke-width: .4 } 
		.s1 { fill: #ffba00 } 
		.s2 { fill: #ffffff } 
		.s3 { fill: #e00000 } 
	</style>
	<path id="Layer" class="s0" d="m3438.9 193.2c11.2 5.2 22.3 14.7 35 29.8 12.6 14.8 35 46.5 40.2 56.5 1.7 3.2 7.4 13.2 12.8 22.1 19.4 32.3 30.6 52.8 45 83.5 11.1 23.2 23.9 49.4 26.9 54.6 1.7 2.9 3.1 6.3 3.1 7.2 0 1.2 3.5 9.6 8.1 18.9 4.5 9.2 8.9 18.8 9.7 21.6 0.8 2.8 4.4 10.8 7.7 18.1 5.9 12.5 8.9 18.7 14.1 30.2 1.3 2.8 4.2 10 6.5 16 4.6 11.6 9.6 23.1 12.4 28.2 0.8 1.6 5.4 5 9.9 7.3 11.8 6.1 17.1 3.4 29.8-16.1 20.8-31.8 28.2-51.5 32.4-86.4 7.5-61.1 9.5-67.4 23.7-73.1 5.5-2.4 10.5-2.8 19.3-1.6 10.2 1.4 12.8 2.7 17.8 8.5 11.6 13.2 14.9 46.5 8.2 82.1-3.4 19-6.2 29.5-17.4 63.9-1.1 3-4.6 10.6-8 16.8-3.2 6-5.9 11.8-5.9 12.8-0.1 1.9-1.4 5-13.5 26.7-3.8 7-7 13.6-7 14.5-0.1 0.8-6.9 13.2-15.1 27.5-8.4 14.2-15.9 27.7-17 30.2-2.1 4.2-1.1 10.7 7 46.1 1.6 7.4 3 16.5 2.9 20.3 0 3.9 1 9.4 2 12.5 1.3 3 3.2 31.2 4.4 62.7 2.3 64.4-1.7 158.9-8 191-3.2 16-5.7 29.5-10.8 56.7-1 5.3-3.2 15-4.6 21.5-5.3 21.6-10.3 49.3-10.4 57.4-0.3 11.4 5.6 17.8 17.1 18.6 7.8 0.6 10.5-0.6 20.6-8.4 17.4-13.8 67.2-59.1 79.8-72.6 6.4-6.7 11.8-12.4 12.5-13 4.4-3.6 38.4-43.9 38.4-45.7 0-0.8 23.1-34.1 29.4-42.4 1.2-1.5 11.2-18.1 22.3-36.9 20.2-33.8 28.4-48.6 45-81.5 15.7-31.3 26.2-44.3 39.3-49.4 7.4-2.6 10-2.8 18.8-0.4 5.5 1.5 12.8 4.2 16 6.1 12.8 6.8 22 24.6 21.8 42.1-0.1 9.2-5.8 36.6-9.2 44.4-1.1 2.7-5.5 12.5-9.6 22-6.6 15.7-14.1 30.8-24.3 48.6-6.1 10.8-59 84.6-71.6 99.7-6.4 7.7-15.2 19.1-19.3 25.4-4.3 6.2-13.8 18.4-21.3 27.2-24.4 29.2-26 35.1-12.9 49.8 14.4 16 9.9 31.2-14.8 51.1-41.1 32.7-81.5 57.7-132.2 81.5-13.1 6-42.3 19.3-65.2 29.4-22.9 10.1-45.1 20.3-49.4 22.4-26.3 12.8-82.3 35.2-161.8 64.4-36.5 13.3-74.3 27.2-83.9 30.9-9.7 3.5-26.4 9.3-37.1 12.5-92.2 28.3-180.6 77.4-244.2 135.6-25.9 24-45.3 44.2-66.9 69.5-9.3 11.3-19.2 20.4-23 22-6.6 2.7-7.9 2.4-31.2-6-13.5-4.9-36.2-13.7-50.8-19.2-14.6-5.8-39.8-14.6-56.4-19.7-37.8-11.7-44.2-14.8-44-21.3 0.1-3 6.2-11.1 15.2-20.7 8.4-8.5 17.4-18.1 20.2-21.1 3-3.2 10.4-11 16.8-17.4 6.3-6.6 21.5-22 33.5-34.8 12.1-12.6 28.7-29.7 37-38.1 46.2-46.7 54.5-75 62.4-215.3 4.2-72.6 5.6-80.7 16.7-97 9.8-14.4 27.3-13.7 41.5 1.7 10.9 11.8 25.5 44.9 29.5 66.8 7.7 41.4 9.5 54.7 11.8 81.7 1.3 17.1 2.4 31.6 2.4 32.6 0 0.8 2.6 4.4 5.6 8.1 4.3 5.1 7.3 6.7 13.1 7.2 8.9 0.6 50.5-4.1 74.6-8.5 9.2-1.7 19.7-3.6 23.5-4.3 3.6-0.7 12.3-2.7 19.1-4.6 6.7-1.9 15.2-4.1 19-5 3.6-0.9 20.9-6.6 38.2-12.8 65.3-23.3 125.2-60.7 172.3-107.2 13.2-13.1 42.4-48.3 51.1-62 3-4.7 8.5-12.3 12.1-17 17.2-22 38.4-73.9 52.7-128.2 2.8-10.7 5.5-21.2 6.2-23.3 0.5-2.1 3.3-20.5 6.2-41.1 9.3-66 8.6-162.6-1.2-222.6-8.8-53-21.7-96.2-40.9-136.1-13.7-28.5-36.8-73.2-47-91.1-5.3-8.9-12-20.9-15.2-26.4-3.1-5.7-10.7-19.2-16.6-30.3-6.1-11.2-13.9-24.9-17.3-30.4-11.4-18.5-55.9-106.5-63.1-124.6-16.9-42.5-25.9-75.3-25.4-93.2 0.2-10.8 5.4-25 11.7-32.1 5.1-5.8 20.8-11.9 28.8-11.4 2.8 0.4 8.5 2 12.4 3.8z"/>
	<g id="Layer">
		<path id="Layer" class="s1" d="m2329.1 4714.4l1974 1.1c0 0 97.2 2.6 149.5-28.1 78.8-46.1 199.4-138.7 330.6-285.5 294.4-329.5 423.9-692.5 452.3-1013.4 28.4-320.9-63.8-687.4-132.4-824.7-32-63.9-82.1-73.4-121.2-59.1-83 30.5-222.3 151.5-314.5 194.2-92.7 43-113 67.1-379.6 140.8-266.6 73.6-459.9 81-459.9 81 0 0 278.6-423.5-62.9-913.5-341.4-490-907.8-456.6-1063.3-420.6-155.4 36-376.4 108.3-535.1 292-158.7 183.7-183.3 317.6-183.3 317.6 0 0-47.7 12.7-92 7.1-59.5-7.5-230-45.1-300.5-36-77.3 9.9-117 76.4-129.3 144.1-14.2 78.3 6.6 219.3 227.8 384.8 131 98 390.9 210 390.9 210 0 0 24.6 39.6 37.8 58.4 15.5 21.9 48.3 63.8 48.3 63.8 0 0-337.1 291.8-373.4 701.2-12.4 139.4-19.1 380.3 129.6 646.9 48.6 87.2 144.4 226.3 239.9 298.6 60.4 45.6 166.7 39.3 166.7 39.3z"/>
		<path id="Layer copy" class="s0" d="m3969.5 218.3c11.8 5.5 23.5 15.4 37 31.3 13.3 15.4 37.1 48.6 42.6 59.1 1.8 3.3 7.9 13.9 13.7 23.2 20.6 33.8 32.5 55.3 47.9 87.4 11.9 24.4 25.6 51.7 28.7 57.2 1.8 3 3.4 6.6 3.4 7.6 0 1.2 3.8 10 8.7 19.7 4.7 9.7 9.4 19.8 10.3 22.7 0.9 2.9 4.7 11.4 8.3 18.9 6.3 13.1 9.4 19.7 15.1 31.7 1.3 2.9 4.4 10.5 6.9 16.8 4.9 12.2 10.3 24.2 13.3 29.5 0.9 1.7 5.7 5.3 10.5 7.7 12.3 6.4 17.9 3.6 31-16.9 21.5-33.3 29-54 33-90.5 7.3-64.1 9.4-70.6 24.1-76.7 5.8-2.4 11-2.8 20.2-1.5 10.8 1.4 13.5 2.8 18.8 8.8 12.2 13.9 16.1 48.7 9.4 86-3.4 19.9-6.2 30.9-17.6 67-1.1 3.2-4.6 11.1-8.2 17.6-3.2 6.3-6 12.4-6 13.4-0.1 2-1.5 5.2-13.9 28-3.9 7.3-7.2 14.2-7.2 15.2 0 0.8-7.1 13.8-15.5 28.8-8.7 14.9-16.4 29.1-17.6 31.7-2.1 4.3-1 11.2 7.9 48.3 1.8 7.8 3.3 17.3 3.3 21.2-0.1 4.1 1 10 2.1 13.1 1.4 3.2 3.7 32.8 5.2 65.8 3.1 67.5 0 166.6-6.4 200.3-3.1 16.8-5.6 30.9-10.7 59.4-1 5.6-3.2 15.8-4.7 22.6-5.3 22.7-10.2 51.7-10.3 60.2-0.1 11.9 6.1 18.6 18.2 19.5 8.2 0.6 11-0.6 21.5-8.8 18-14.5 69.8-61.9 82.9-76.2 6.6-7 12.2-13 12.9-13.6 4.7-3.8 39.8-46.1 39.8-47.9 0-0.9 23.9-35.8 30.5-44.5 1.1-1.5 11.4-19 22.9-38.6 20.8-35.5 29.2-51 46.3-85.5 16.1-32.8 27.1-46.5 40.7-51.9 7.7-2.7 10.4-2.9 19.7-0.4 5.8 1.7 13.4 4.5 16.9 6.4 13.4 7.2 23.3 25.8 23.2 44.2 0 9.7-5.7 38.4-9.2 46.6-1.1 2.8-5.6 13-9.8 23-6.8 16.5-14.5 32.3-25 51-6.3 11.3-60.9 88.7-74 104.5-6.6 8.1-15.7 20.1-19.9 26.7-4.5 6.5-14.3 19.3-22 28.5-25.4 30.7-27 36.8-13.1 52.2 15.2 16.8 10.7 32.8-15 53.7-42.7 34.3-84.9 60.5-137.8 85.5-13.6 6.3-44 20.2-67.9 30.8-24 10.6-47.2 21.3-51.6 23.5-27.5 13.5-85.9 36.9-169.1 67.5-38 14-77.5 28.6-87.6 32.5-10.1 3.6-27.5 9.7-38.8 13.1-96.4 29.7-188.6 81.2-254.6 142.3-27 25.2-47.2 46.4-69.5 72.9-9.7 11.9-20 21.5-24 23.1-6.9 2.9-8.3 2.6-32.7-6.3-14.2-5.1-38.2-14.3-53.5-20.2-15.3-6-41.9-15.2-59.3-20.6-39.8-12.3-46.5-15.6-46.3-22.4 0-3.2 6.4-11.6 15.7-21.7 8.7-8.9 18.1-19 21-22.2 3.1-3.4 10.8-11.5 17.5-18.2 6.5-6.9 22.3-23.1 34.8-36.5 12.5-13.3 29.7-31.2 38.3-40.1 48.1-48.9 56.5-78.7 63.4-225.9 3.8-76.1 5.1-84.6 16.6-101.7 10.1-15.1 28.5-14.4 43.5 1.8 11.6 12.3 27.2 47.1 31.6 70.1 8.4 43.4 10.5 57.4 13.2 85.7 1.5 18 2.8 33.2 2.8 34.2 0 0.9 2.7 4.7 5.9 8.5 4.5 5.4 7.8 7.1 13.8 7.5 9.4 0.7 52.9-4.2 78.2-8.9 9.6-1.8 20.6-3.7 24.5-4.4 3.8-0.8 12.9-2.9 20-4.9 7-2 15.9-4.2 19.9-5.2 3.7-1 21.8-7 39.9-13.4 68.3-24.6 130.6-63.8 179.5-112.5 13.7-13.8 44-50.7 53-65 3.1-5 8.8-12.9 12.6-17.9 17.7-23.1 39.5-77.5 53.8-134.4 2.9-11.2 5.6-22.2 6.3-24.5 0.5-2.2 3.3-21.5 6.1-43.1 9.1-69.2 7.4-170.5-3.5-233.4-9.7-55.5-23.7-100.8-44.2-142.6-14.6-29.9-39.3-76.8-50.1-95.5-5.6-9.3-12.8-21.9-16.2-27.6-3.4-6-11.5-20.2-17.7-31.8-6.5-11.7-14.8-26.1-18.4-31.9-12.1-19.3-59.6-111.5-67.4-130.5-18-44.5-27.8-78.9-27.5-97.6 0.2-11.3 5.4-26.2 11.9-33.6 5.4-6.1 21.7-12.5 30.1-11.9 3 0.4 8.9 2 13 3.9z"/>
		<path id="Layer" class="s2" d="m4352.7 3886.1h107.2l-249.8 552.5h-107.2z"/>
		<path id="Layer" class="s2" d="m4352.7 3886.1v0.4h106.6l-249.5 551.7h-106.3l249.5-551.9-0.3-0.2v0.4-0.4l-0.3-0.1-250.1 552.9h108l250.1-553.2h-107.9l-0.1 0.3z"/>
		<path id="Layer" class="s2" d="m4003.9 3209.1h-107.1l455.9 677h107.1z"/>
		<path id="Layer" class="s2" d="m4003.9 3209.1v-0.4h-107.8l456.4 677.8h108l-456.4-677.8h-0.2v0.4l-0.3 0.2 455.5 676.4h-106.2l-455.4-676.2h106.4v-0.4l-0.3 0.2z"/>
		<path id="Layer" class="s2" d="m4147.6 3886h107.1l-249.8 552.5h-107.1z"/>
		<path id="Layer" class="s2" d="m4147.6 3886v0.4h106.6l-249.5 551.7h-106.3l249.5-551.9-0.3-0.2v0.4-0.4l-0.4-0.1-250 553h108l250.1-553.2h-108l-0.1 0.2z"/>
		<path id="Layer" class="s2" d="m3798.8 3209h-107.1l455.9 677h107.1z"/>
		<path id="Layer" class="s2" d="m3798.8 3209v-0.3h-107.8l456.4 677.7h108l-456.4-677.7h-0.2v0.3l-0.3 0.2 455.5 676.4h-106.2l-455.4-676.2h106.4v-0.4l-0.3 0.2z"/>
		<path id="Layer" class="s2" d="m3943.4 3885.8h107.1l-249.8 552.4h-107.1z"/>
		<path id="Layer" class="s2" d="m3943.4 3885.8v0.4h106.5l-249.4 551.7h-106.4l249.6-552-0.3-0.1v0.4-0.4l-0.4-0.2-250 553h107.9l250.2-553.2h-108l-0.1 0.2z"/>
		<path id="Layer" class="s2" d="m3594.6 3208.8h-107.2l456 677h107.1z"/>
		<path id="Layer" class="s2" d="m3594.6 3208.8v-0.4h-107.9l456.5 677.7h108l-456.4-677.7h-0.2v0.4l-0.3 0.2 455.5 676.4h-106.2l-455.5-676.2h106.5v-0.4l-0.3 0.2z"/>
		<path id="Shape 2" class="s3" d="m1454 2367c-103.4 0-187-83.6-187-187 0-103.4 83.6-187 187-187 103.4 0 187 83.6 187 187 0 103.4-83.6 187-187 187z"/>
		<path id="Shape 3" class="s3" d="m3262 1733"/>
		<path id="Shape 4" class="s3" d="m3342.1 1853.5"/>
	</g>
</svg>