<svg version="1.2" xmlns="http://www.w3.org/2000/svg" viewBox="0 0 6000 6000" width="6000" height="6000">
	<title>00-original-svg</title>
	<style>
		.s0 { fill: #724646;stroke: #000000;stroke-width: .4 } 
		.s1 { fill: #ffba00 } 
		.s2 { fill: #ffffff } 
		.s3 { fill: #e00000 } 
	</style>
	<path id="Layer" class="s0" d="m3334.2 461.6c8 3.9 16 11.2 25.1 23.1 8.9 11.6 24.8 36.6 28.4 44.6 1.2 2.5 5.2 10.5 9.1 17.5 13.7 25.6 21.5 41.9 31.6 66.2 7.7 18.5 16.7 39.2 18.8 43.3 1.1 2.3 2.2 5 2.1 5.7 0 1 2.5 7.7 5.7 15 3.1 7.3 6.1 14.9 6.7 17.2 0.6 2.2 3 8.5 5.4 14.3 4.1 9.8 6.1 14.8 9.8 23.8 0.9 2.3 2.9 8 4.5 12.7 3.1 9.3 6.6 18.3 8.5 22.3 0.6 1.3 3.9 3.9 7.1 5.6 8.3 4.5 12.2 2.1 21.5-14.1 15.3-26.4 20.8-42.6 24.2-70.9 6-49.8 7.6-55 17.8-60.1 4-2.1 7.7-2.6 13.9-2 7.4 0.7 9.2 1.7 12.7 6.2 8.2 10.3 10.2 37.1 4.9 66.2-2.7 15.4-4.8 24-13.2 52.2-0.9 2.5-3.4 8.7-6 13.8-2.3 5-4.3 9.8-4.4 10.5 0 1.6-1 4.1-9.9 22.1-2.9 5.7-5.2 11.1-5.2 11.9-0.1 0.6-5.1 10.8-11.1 22.6-6.2 11.7-11.7 22.9-12.6 24.9-1.5 3.4-0.9 8.6 4.6 36.8 1 5.8 1.9 13.1 1.8 16-0.1 3.2 0.6 7.6 1.3 10 0.9 2.4 1.9 24.9 2.4 50 0.9 51.3-3 126.6-7.8 152.3-2.5 12.9-4.4 23.6-8.3 45.4-0.8 4.2-2.5 12-3.6 17.1-3.9 17.3-7.8 39.4-8 45.8-0.2 9 3.9 13.8 12 14.1 5.5 0.1 7.4-0.9 14.7-7.4 12.5-11.6 48.3-49.2 57.5-60.3 4.5-5.6 8.5-10.3 9-10.8 3.2-3 27.8-36.2 27.8-37.6 0-0.6 16.9-27.9 21.5-34.7 0.8-1.2 8.2-14.8 16.3-30.1 14.9-27.7 20.9-39.8 33.2-66.6 11.6-25.6 19.3-36.3 28.7-40.9 5.3-2.4 7.2-2.6 13.4-1 3.9 1.1 9 2.9 11.4 4.3 8.9 5 15.3 18.8 14.8 32.8-0.2 7.4-4.6 29.4-7.2 35.8-0.9 2.1-4.1 10-7.1 17.8-5 12.7-10.6 25-18.1 39.5-4.5 8.8-43.1 69.2-52.3 81.7-4.6 6.3-11 15.7-14 20.8-3.1 5.1-10 15.1-15.4 22.3-17.7 23.9-19 28.6-9.9 39.7 10 12.1 6.6 24.3-11.2 40.9-29.4 27.2-58.3 48.3-94.5 68.9-9.2 5.2-30 16.6-46.3 25.4-16.3 8.8-32.1 17.6-35.2 19.4-18.7 11-58.4 30.5-114.8 56.3-25.8 11.8-52.6 24-59.5 27.2-6.8 3.1-18.6 8.3-26.2 11.2-65.2 25.5-127.8 66.9-172.8 114.6-18.3 19.5-32 35.9-47.3 56.3-6.5 9.1-13.5 16.6-16.2 17.9-4.7 2.4-5.6 2.2-21.9-3.5-9.5-3.3-25.5-9.3-35.8-13-10.2-4-27.9-9.8-39.6-13.2-26.7-7.7-31.2-9.9-31-14.9 0.1-2.4 4.4-8.8 10.7-16.7 5.9-6.9 12.3-14.7 14.2-17.1 2.1-2.6 7.4-8.9 11.9-14.1 4.4-5.4 15.2-17.9 23.7-28.4 8.5-10.2 20.2-24.2 26.1-31.1 32.7-38.1 38.6-60.5 44.5-170.8 3.2-57.2 4.2-63.7 12.1-76.9 7-11.8 19.4-11.8 29.4-0.2 7.7 8.9 17.9 34.5 20.7 51.5 5.3 32.2 6.6 42.6 8.1 63.7 0.9 13.4 1.6 24.8 1.6 25.6 0 0.6 1.8 3.3 3.9 6 3 3.9 5.2 5.1 9.3 5.2 6.2 0.2 35.6-5 52.7-9.4 6.5-1.7 14-3.5 16.7-4.2 2.5-0.7 8.7-2.5 13.4-4.3 4.8-1.7 10.8-3.7 13.5-4.6 2.6-0.9 14.8-6 27.1-11.4 46.4-20.8 89-52.3 122.7-90.5 9.4-10.9 30.4-39.6 36.7-50.8 2.2-3.8 6.1-10 8.8-13.8 12.3-18 27.9-59.8 38.5-103.3 2.2-8.6 4.1-17 4.7-18.7 0.3-1.8 2.5-16.5 4.7-32.9 7.3-52.9 7.8-129.8 1.4-177.5-5.8-42.1-14.6-76.3-27.9-107.7-9.6-22.4-25.8-57.7-32.9-71.7-3.7-7-8.4-16.5-10.7-20.8-2.2-4.4-7.5-15.1-11.6-23.9-4.3-8.8-9.8-19.6-12.2-23.9-8-14.6-39.3-84.4-44.4-98.8-11.8-34-18.1-60.4-17.7-75 0.3-8.8 4.1-20.7 8.7-26.6 3.8-5 15.1-10.6 20.9-10.4 2.1 0.2 6.1 1.3 8.9 2.6z"/>
	<g id="Layer">
		<path id="Layer" class="s1" d="m2329.1 4714.4l1974 1.1c0 0 97.2 2.6 149.5-28.1 78.8-46.1 199.4-138.7 330.6-285.5 294.4-329.5 423.9-692.5 452.3-1013.4 28.4-320.9-63.8-687.4-132.4-824.7-32-63.9-82.1-73.4-121.2-59.1-83 30.5-222.3 151.5-314.5 194.2-92.7 43-113 67.1-379.6 140.8-266.6 73.6-459.9 81-459.9 81 0 0 278.6-423.5-62.9-913.5-341.4-490-907.8-456.6-1063.3-420.6-155.4 36-376.4 108.3-535.1 292-158.7 183.7-183.3 317.6-183.3 317.6 0 0-47.7 12.7-92 7.1-59.5-7.5-230-45.1-300.5-36-77.3 9.9-117 76.4-129.3 144.1-14.2 78.3 6.6 219.3 227.8 384.8 131 98 390.9 210 390.9 210 0 0 24.6 39.6 37.8 58.4 15.5 21.9 48.3 63.8 48.3 63.8 0 0-337.1 291.8-373.4 701.2-12.4 139.4-19.1 380.3 129.6 646.9 48.6 87.2 144.4 226.3 239.9 298.6 60.4 45.6 166.7 39.3 166.7 39.3z"/>
		<path id="Layer copy" class="s0" d="m3660.9 462.8c8.4 4 16.7 11.7 26.2 24.1 9.3 12.1 25.9 38.3 29.8 46.6 1.2 2.7 5.4 11 9.4 18.4 14.3 26.7 22.5 43.7 33.1 69.2 8.1 19.3 17.4 40.9 19.6 45.3 1.2 2.3 2.3 5.1 2.3 6 0 0.9 2.5 7.9 5.9 15.6 3.2 7.6 6.4 15.6 7 18 0.6 2.3 3.2 8.9 5.6 14.9 4.3 10.3 6.5 15.5 10.3 25 0.9 2.3 3 8.3 4.7 13.3 3.3 9.6 6.9 19.1 8.9 23.2 0.7 1.4 4 4.1 7.4 5.9 8.8 4.7 12.8 2.2 22.5-14.8 16-27.6 21.7-44.5 25.3-74.2 6.3-52 8-57.4 18.7-62.8 4.1-2.2 7.9-2.7 14.5-2 7.7 0.7 9.6 1.8 13.3 6.5 8.5 10.7 10.6 38.7 5.1 69.1-2.8 16.2-5.1 25.2-13.9 54.7-0.9 2.6-3.5 9-6.2 14.4-2.4 5.2-4.5 10.2-4.6 11 0 1.7-1.1 4.3-10.4 23-2.9 6-5.4 11.7-5.4 12.5-0.1 0.7-5.3 11.4-11.6 23.7-6.5 12.2-12.3 23.9-13.1 26-1.6 3.6-1 9 4.7 38.4 1.1 6.2 2 13.7 1.9 16.9-0.1 3.2 0.6 7.9 1.4 10.4 0.9 2.4 2 26 2.5 52.3 0.9 53.6-3.1 132.3-8.2 159.3-2.6 13.4-4.6 24.7-8.7 47.4-0.8 4.4-2.5 12.5-3.7 17.9-4.1 18.1-8.1 41.2-8.3 47.9-0.3 9.4 3.9 14.4 12.5 14.7 5.7 0.2 7.7-0.9 15.3-7.7 13.1-12.1 50.6-51.4 60.1-63.1 4.8-5.8 8.9-10.7 9.4-11.2 3.4-3.2 29.1-37.9 29.2-39.4 0-0.6 17.6-29.2 22.4-36.3 0.9-1.2 8.6-15.5 17.1-31.5 15.5-28.9 21.8-41.5 34.7-69.6 12.1-26.7 20.2-38 30.1-42.8 5.5-2.4 7.4-2.7 14-1 4 1.1 9.4 3.1 11.8 4.5 9.4 5.2 16 19.7 15.6 34.3-0.3 7.7-4.9 30.7-7.6 37.4-0.9 2.3-4.3 10.5-7.5 18.7-5.1 13.3-11 26.1-18.8 41.3-4.7 9.2-45.1 72.4-54.7 85.4-4.8 6.6-11.5 16.4-14.7 21.7-3.3 5.3-10.5 15.8-16.1 23.4-18.5 25-19.9 29.9-10.3 41.5 10.4 12.7 6.9 25.4-11.7 42.7-30.8 28.5-61 50.6-98.8 72.1-9.7 5.4-31.5 17.4-48.5 26.6-17.1 9.2-33.6 18.4-36.8 20.2-19.6 11.6-61.1 32-120.1 58.9-27 12.4-55 25.1-62.2 28.5-7.1 3.3-19.5 8.6-27.4 11.7-68.2 26.6-133.6 70-180.7 119.8-19.2 20.5-33.5 37.6-49.5 59-6.8 9.4-14.1 17.3-17 18.7-4.8 2.4-5.8 2.2-22.9-3.7-9.9-3.4-26.6-9.7-37.3-13.6-10.7-4.1-29.3-10.3-41.5-13.8-27.9-8.1-32.6-10.4-32.4-15.6 0.1-2.5 4.6-9.2 11.2-17.4 6.2-7.2 12.8-15.4 14.9-18 2.2-2.7 7.7-9.3 12.4-14.7 4.6-5.6 15.9-18.7 24.8-29.6 8.8-10.8 21.1-25.4 27.2-32.6 34.3-39.8 40.4-63.3 46.6-178.6 3.3-59.9 4.4-66.6 12.7-80.5 7.2-12.2 20.2-12.3 30.7-0.2 8.1 9.3 18.8 36.1 21.7 53.9 5.5 33.7 6.8 44.6 8.5 66.7 0.8 14 1.6 25.8 1.6 26.6 0 0.7 1.9 3.5 4.1 6.4 3.1 4 5.4 5.3 9.7 5.4 6.5 0.2 37.3-5.3 55.2-9.8 6.7-1.8 14.5-3.7 17.3-4.4 2.7-0.7 9.2-2.7 14.1-4.5 5-1.8 11.3-3.9 14.2-4.8 2.6-0.9 15.4-6.3 28.3-12 48.4-21.7 93-54.6 128.2-94.6 9.9-11.4 31.9-41.4 38.5-53.1 2.2-4 6.4-10.5 9.1-14.5 12.9-18.8 29.2-62.5 40.3-108 2.3-9 4.4-17.8 4.9-19.6 0.4-1.8 2.7-17.2 5-34.3 7.6-55.3 8.1-135.8 1.4-185.7-6-44-15.3-79.8-29.2-112.6-10-23.5-26.9-60.3-34.4-75-3.8-7.4-8.8-17.2-11.1-21.7-2.3-4.7-7.9-15.9-12.2-25-4.5-9.2-10.2-20.6-12.7-25.1-8.4-15.2-41.2-88.2-46.5-103.3-12.4-35.5-18.9-63.2-18.4-78.4 0.2-9.2 4.2-21.6 9-27.8 4-5.2 15.8-11.1 21.9-10.9 2.1 0.3 6.3 1.4 9.3 2.8z"/>
		<path id="Layer" class="s2" d="m4352.7 3886.1h107.2l-249.8 552.5h-107.2z"/>
		<path id="Layer" class="s2" d="m4352.7 3886.1v0.4h106.6l-249.5 551.7h-106.3l249.5-551.9-0.3-0.2v0.4-0.4l-0.3-0.1-250.1 552.9h108l250.1-553.2h-107.9l-0.1 0.3z"/>
		<path id="Layer" class="s2" d="m4003.9 3209.1h-107.1l455.9 677h107.1z"/>
		<path id="Layer" class="s2" d="m4003.9 3209.1v-0.4h-107.8l456.4 677.8h108l-456.4-677.8h-0.2v0.4l-0.3 0.2 455.5 676.4h-106.2l-455.4-676.2h106.4v-0.4l-0.3 0.2z"/>
		<path id="Layer" class="s2" d="m4147.6 3886h107.1l-249.8 552.5h-107.1z"/>
		<path id="Layer" class="s2" d="m4147.6 3886v0.4h106.6l-249.5 551.7h-106.3l249.5-551.9-0.3-0.2v0.4-0.4l-0.4-0.1-250 553h108l250.1-553.2h-108l-0.1 0.2z"/>
		<path id="Layer" class="s2" d="m3798.8 3209h-107.1l455.9 677h107.1z"/>
		<path id="Layer" class="s2" d="m3798.8 3209v-0.3h-107.8l456.4 677.7h108l-456.4-677.7h-0.2v0.3l-0.3 0.2 455.5 676.4h-106.2l-455.4-676.2h106.4v-0.4l-0.3 0.2z"/>
		<path id="Layer" class="s2" d="m3943.4 3885.8h107.1l-249.8 552.4h-107.1z"/>
		<path id="Layer" class="s2" d="m3943.4 3885.8v0.4h106.5l-249.4 551.7h-106.4l249.6-552-0.3-0.1v0.4-0.4l-0.4-0.2-250 553h107.9l250.2-553.2h-108l-0.1 0.2z"/>
		<path id="Layer" class="s2" d="m3594.6 3208.8h-107.2l456 677h107.1z"/>
		<path id="Layer" class="s2" d="m3594.6 3208.8v-0.4h-107.9l456.5 677.7h108l-456.4-677.7h-0.2v0.4l-0.3 0.2 455.5 676.4h-106.2l-455.5-676.2h106.5v-0.4l-0.3 0.2z"/>
		<path id="Shape 2" class="s3" d="m1452 2339c-85.7 0-155-69.3-155-155 0-85.7 69.3-155 155-155 85.7 0 155 69.3 155 155 0 85.7-69.3 155-155 155z"/>
		<path id="Shape 3" class="s3" d="m3262 1733"/>
		<path id="Shape 4" class="s3" d="m3342.1 1853.5"/>
	</g>
</svg>