<?xml version="1.0" encoding="UTF-8"?>
<svg xmlns="http://www.w3.org/2000/svg" xmlns:xlink="http://www.w3.org/1999/xlink" version="1.1" viewBox="0 0 6000 6000">
  <defs>
    <style>
      .cls-1 {
        fill: #e53834;
      }

      .cls-2 {
        fill: #388e3c;
      }

      .cls-3 {
        fill: #cd6d4e;
      }

      .cls-4 {
        fill: #227644;
      }

      .cls-5 {
        fill: #fff;
      }

      .cls-6 {
        fill: #5d4037;
      }

      .cls-7 {
        fill: #ffba00;
      }
    </style>
  </defs>
  <!-- Generator: Adobe Illustrator 28.6.0, SVG Export Plug-In . SVG Version: 1.2.0 Build 709)  -->
  <g>
    <g id="Layer_1">
      <rect class="cls-3" x="526.9" y="189.7" width="5340.9" height="3663.6"/>
      <rect class="cls-4" x="821.6" y="509.9" width="4751.6" height="3023.1"/>
      <image id="_레이어_1_xA0_이미지" data-name="레이어_1_xA0_이미지" width="2048" height="1536" transform="translate(-6445.7 -541.3) rotate(-1.1) scale(6.6)" xlink:href="back_to_school_duck-1.png"/>
      <g>
        <path class="cls-7" d="M2339.7,4815.8l1974,1.1s97.2,2.6,149.5-28.1c78.8-46.1,199.4-138.7,330.6-285.5,294.4-329.5,423.9-692.5,452.3-1013.4s-63.8-687.4-132.4-824.7c-32-63.9-82.1-73.4-121.2-59.1-83,30.5-222.3,151.5-314.5,194.2-92.7,43-113,67.1-379.6,140.8-266.6,73.6-459.9,81-459.9,81,0,0,278.6-423.5-62.9-913.5-341.4-490-907.8-456.6-1063.3-420.6-155.4,36-376.4,108.3-535.1,292-158.7,183.7-183.3,317.6-183.3,317.6,0,0-47.7,12.7-92,7.1-59.5-7.5-230-45.1-300.5-36-77.3,9.9-117,76.4-129.3,144.1-14.2,78.3,6.6,219.3,227.8,384.8,131,98,390.9,210,390.9,210,0,0,24.6,39.6,37.8,58.4,15.5,21.9,48.3,63.8,48.3,63.8,0,0-337.1,291.8-373.4,701.2-12.4,139.4-19.1,380.3,129.6,646.9,48.6,87.2,144.4,226.3,239.9,298.6,60.4,45.6,166.7,39.3,166.7,39.3Z"/>
        <polygon class="cls-5" points="4363.3 3987.5 4470.5 3987.5 4220.7 4540 4113.5 4540 4363.3 3987.5"/>
        <polygon class="cls-5" points="4363.3 3987.5 4363.3 3987.9 4469.9 3987.9 4220.4 4539.6 4114.1 4539.6 4363.6 3987.7 4363.3 3987.5 4363.3 3987.9 4363.3 3987.5 4363 3987.4 4112.9 4540.3 4220.9 4540.3 4471 3987.1 4363.1 3987.1 4363 3987.4 4363.3 3987.5"/>
        <polygon class="cls-5" points="4014.5 3310.5 3907.4 3310.5 4363.3 3987.5 4470.4 3987.5 4014.5 3310.5"/>
        <polygon class="cls-5" points="4014.5 3310.5 4014.5 3310.1 3906.7 3310.1 4363.1 3987.9 4471.1 3987.9 4014.7 3310.1 4014.5 3310.1 4014.5 3310.5 4014.2 3310.7 4469.7 3987.1 4363.5 3987.1 3908.1 3310.9 4014.5 3310.9 4014.5 3310.5 4014.2 3310.7 4014.5 3310.5"/>
        <polygon class="cls-5" points="4158.2 3987.4 4265.3 3987.4 4015.5 4539.9 3908.4 4539.9 4158.2 3987.4"/>
        <polygon class="cls-5" points="4158.2 3987.4 4158.2 3987.8 4264.8 3987.8 4015.3 4539.5 3909 4539.5 4158.5 3987.6 4158.2 3987.4 4158.2 3987.8 4158.2 3987.4 4157.8 3987.3 3907.8 4540.3 4015.8 4540.3 4265.9 3987.1 4157.9 3987.1 4157.8 3987.3 4158.2 3987.4"/>
        <polygon class="cls-5" points="3809.4 3310.4 3702.3 3310.4 4158.2 3987.4 4265.3 3987.4 3809.4 3310.4"/>
        <polygon class="cls-5" points="3809.4 3310.4 3809.4 3310.1 3701.6 3310.1 4158 3987.8 4266 3987.8 3809.6 3310.1 3809.4 3310.1 3809.4 3310.4 3809.1 3310.6 4264.6 3987 4158.4 3987 3703 3310.8 3809.4 3310.8 3809.4 3310.4 3809.1 3310.6 3809.4 3310.4"/>
        <polygon class="cls-5" points="3954 3987.2 4061.1 3987.2 3811.3 4539.6 3704.2 4539.6 3954 3987.2"/>
        <polygon class="cls-5" points="3954 3987.2 3954 3987.6 4060.5 3987.6 3811.1 4539.3 3704.7 4539.3 3954.3 3987.3 3954 3987.2 3954 3987.6 3954 3987.2 3953.6 3987 3703.6 4540 3811.5 4540 4061.7 3986.8 3953.7 3986.8 3953.6 3987 3954 3987.2"/>
        <polygon class="cls-5" points="3605.2 3310.2 3498 3310.2 3954 3987.2 4061.1 3987.2 3605.2 3310.2"/>
        <polygon class="cls-5" points="3605.2 3310.2 3605.2 3309.8 3497.3 3309.8 3953.8 3987.5 4061.8 3987.5 3605.4 3309.8 3605.2 3309.8 3605.2 3310.2 3604.9 3310.4 4060.4 3986.8 3954.2 3986.8 3498.7 3310.6 3605.2 3310.6 3605.2 3310.2 3604.9 3310.4 3605.2 3310.2"/>
      </g>
      <line class="cls-1" y1="6000" y2="6000"/>
      <g>
        <g>
          <path class="cls-2" d="M1869.5,4044.4c8-20.1,44.7-106.9,124.5-143.8,37.5-17.3,82.7-22.8,86.7-23.2,28.2-3.2,52.1-2,69.3,0"/>
          <path class="cls-2" d="M1868.5,4040.2c21.5,2.8,115.1,13.2,186.3-38.5,33.4-24.3,60.2-61.1,62.6-64.3,16.6-23,27.2-44.5,33.8-60.5"/>
        </g>
        <g>
          <path class="cls-1" d="M1916,4100.4c-150.8-94.5-405.5,3.7-442.9,179.9-5.5,26.2-6,55.4-1,84.6,34.4,221.9,188.1,542.3,439.5,428.2"/>
          <path class="cls-1" d="M1907.5,4100.4c150.8-94.5,405.5,3.7,442.9,179.9,5.5,26.2,6,55.4,1,84.6-34.4,221.9-188.1,542.3-439.5,428.2"/>
        </g>
        <path class="cls-6" d="M1748.3,3884.1c4.9-17.8,103-52,112.6-41,2.2,33,112.4,302.4,58.7,293-21.9-3.5-41.4-26.9-53.6-45.7-27.9-58.2-126.5-145.9-117.8-206.3Z"/>
      </g>
    </g>
  </g>
</svg>