<?xml version="1.0" encoding="utf-8"?>
<!-- Generator: Adobe Illustrator 28.2.0, SVG Export Plug-In . SVG Version: 6.00 Build 0)  -->
<svg version="1.1" id="Layer_1" xmlns="http://www.w3.org/2000/svg" xmlns:xlink="http://www.w3.org/1999/xlink" x="0px" y="0px"
	 viewBox="0 0 6000 6000" style="enable-background:new 0 0 6000 6000;" xml:space="preserve">
<style type="text/css">
	.st0{fill:#CA3227;}
	.st1{fill:#FFBA00;}
	.st2{fill:#235323;}
	.st3{fill:#235322;}
	.st4{fill:#FFFFFF;stroke:#FFFFFF;stroke-width:0.75;}
</style>
<path class="st0" d="M1879.6,1972.2c158.7-183.7,379.7-256,535.1-292c155.4-36,721.8-69.4,1063.3,420.6c20,28.7,37.9,57.3,53.9,85.5
	H1734.9C1761.8,2130.9,1806.5,2056.8,1879.6,1972.2z"/>
<path class="st0" d="M1174.6,2402.3c12.3-67.7,52-134.2,129.3-144.1c70.5-9.1,241,28.5,300.5,36c44.3,5.6,92-7.1,92-7.1
	s6.9-37.9,37.3-100.9h1799.7c111.9,199.3,126.4,383.5,107.8,527.1H1314.6C1175.7,2580.1,1162.5,2468.7,1174.6,2402.3z
	 M4694.9,2595.6c39.2-14.4,89.3-4.9,121.2,59.1c8.2,16.4,16.7,36.1,25.4,58.6H4505C4573.6,2665.9,4644.6,2614.1,4694.9,2595.6z"/>
<path class="st1" d="M1879.5,3121.8c0,0-32.9-41.9-48.3-63.8c-13.2-18.8-37.8-58.4-37.8-58.4s-259.9-112-390.9-210
	c-40.8-30.6-74.9-60.3-103.1-88.9H3643c-21.1,190.3-102.1,313.5-102.1,313.5s193.3-7.3,459.9-81c266.6-73.6,286.8-97.8,379.6-140.8
	c42.2-19.6,94.3-55.6,146.4-91.8h308.8c46.5,114.9,97.4,315.5,113.3,527.1H1777.6C1835.5,3159.9,1879.5,3121.8,1879.5,3121.8z"/>
<path class="st1" d="M4943.5,3482c-7.8,88.3-23.3,179.8-47.7,272.9H1510c39.8-230.4,169.3-417.6,262.7-527.1h3171.2
	C4950.2,3312.4,4950.9,3398.7,4943.5,3482z"/>
<path class="st2" d="M1501,3823.1c2.1-23.1,5.1-45.8,8.9-68.2h3385.8c-45.6,173.5-122.3,352.6-238.9,527.1H1547.8
	C1485.5,4092.7,1491.7,3928.7,1501,3823.1z"/>
<path class="st3" d="M1875.5,4765.9c-95.5-72.2-191.3-211.4-239.9-298.6c-36-64.5-62.9-127.5-82.8-188h3109.1
	c-48.2,72.2-103.2,143.6-165.7,213.5c-131.2,146.8-251.8,239.4-330.6,285.5c-52.3,30.6-149.5,28.1-149.5,28.1l-1974-1.1
	C2042.1,4805.3,1935.9,4811.6,1875.5,4765.9z"/>
<g>
	<polygon class="st4" points="4352.7,3886.1 4459.9,3886.1 4210.1,4438.6 4102.9,4438.6 	"/>
	<polygon class="st4" points="4003.9,3209.1 3896.8,3209.1 4352.7,3886.1 4459.8,3886.1 	"/>
</g>
<g transform="matrix(1, 0, 0, 1, -205.116455, -0.083717)">
	<polygon class="st4" points="4352.7,3886.1 4459.9,3886.1 4210.1,4438.6 4102.9,4438.6 	"/>
	<polygon class="st4" points="4003.9,3209.1 3896.8,3209.1 4352.7,3886.1 4459.8,3886.1 	"/>
</g>
<g transform="matrix(1, 0, 0, 1, -409.348663, -0.329002)">
	<polygon class="st4" points="4352.7,3886.1 4459.9,3886.1 4210.1,4438.6 4102.9,4438.6 	"/>
	<polygon class="st4" points="4003.9,3209.1 3896.8,3209.1 4352.7,3886.1 4459.8,3886.1 	"/>
</g>
</svg>
