<?xml version="1.0" encoding="UTF-8"?>
<svg xmlns="http://www.w3.org/2000/svg" version="1.1" viewBox="0 0 6000 6000">
  <defs>
    <style>
      .cls-1 {
        fill: #f5bb00;
      }

      .cls-2 {
        fill: #241c1d;
      }
    </style>
  </defs>
  <!-- Generator: Adobe Illustrator 28.6.0, SVG Export Plug-In . SVG Version: 1.2.0 Build 709)  -->
  <g>
    <g id="Layer_1">
      <g>
        <path class="cls-1" d="M2327.7,4717.9l1976.7,1.1s97.3,2.6,149.7-28.1c78.9-46.2,199.7-138.9,331-285.9,294.8-329.9,424.5-693.4,452.9-1014.8,28.4-321.3-63.9-688.3-132.6-825.8-32-64-82.2-73.5-121.4-59.2-83.1,30.5-222.6,151.7-314.9,194.5-92.8,43.1-113.2,67.2-380.1,141-267,73.7-460.5,81.1-460.5,81.1,0,0,279-424.1-63-914.7-341.9-490.7-909-457.2-1064.7-421.2-155.6,36-376.9,108.4-535.8,292.4-158.9,183.9-183.5,318-183.5,318,0,0-47.8,12.7-92.1,7.1-59.6-7.5-230.3-45.2-300.9-36-77.4,9.9-117.2,76.5-129.5,144.3-14.2,78.4,6.6,219.6,228.1,385.3,131.2,98.1,391.4,210.3,391.4,210.3,0,0,24.6,39.7,37.9,58.5,15.5,21.9,48.4,63.9,48.4,63.9,0,0-337.6,292.2-373.9,702.2-12.4,139.6-19.1,380.8,129.8,647.8,48.7,87.3,144.6,226.6,240.2,299,60.5,45.7,166.9,39.4,166.9,39.4Z"/>
        <g>
          <path class="cls-2" d="M4661.2,3615.7h-215.7v485.3h215.7v-485.3Z"/>
          <path class="cls-2" d="M3786,3615.7h-215.7v485.3h215.7v-485.3Z"/>
          <path class="cls-2" d="M2591.4,3615.7h-215.7v485.3h215.7v-485.3Z"/>
          <path class="cls-2" d="M3088,1582.7c-79-13.1-152.6-17-215.7-15.9v130.9h215.7v-115Z"/>
          <path class="cls-2" d="M5012.2,2498.8h10.2c-3.5-.2-6.9-.2-10.2,0Z"/>
          <path class="cls-2" d="M2520.3,1639.4c-42,15.9-85,35.1-127.8,58.3h127.8v-58.3Z"/>
          <path class="cls-2" d="M2827.7,2013.5h-215.7v485.3h215.7v-485.3Z"/>
          <path class="cls-2" d="M4942.2,3299.8h215.7v-485.3h-215.7v485.3Z"/>
          <path class="cls-2" d="M3487.2,2498.8h215.7v-485.3h-215.7v485.3Z"/>
          <path class="cls-2" d="M4112,4718.1h193.5c0,.1,8.6.3,22.1-.2v-301.2h-215.6v301.4Z"/>
          <path class="cls-2" d="M2860.3,3299.8h215.7v-485.3h-215.7v485.3Z"/>
          <path class="cls-2" d="M2278.6,4715.7c28.9,2.7,50.3,1.4,50.3,1.4h165.4v-300.3h-215.7v298.9Z"/>
          <path class="cls-2" d="M4374.4,3299.8h215.7v-485.3h-211.4c-1.4.4-2.9.9-4.3,1.3v484Z"/>
          <path class="cls-2" d="M1985.2,3236.5v63.4h215.7v-485.3h-215.7v48.8c55.4,26.3,94.4,43.1,94.4,43.1,0,0,24.6,39.7,37.9,58.5,15.5,21.9,48.4,63.9,48.4,63.9,0,0-89.1,77.1-180.6,207.7Z"/>
          <path class="cls-2" d="M2170.8,4683.8v-267.2c0-59.6,48.3-107.8,107.8-107.8h215.7c59.6,0,107.8,48.3,107.8,107.8v300.5h198.2c0,.1,0-300.5,0-300.5h-55.7c-28.9-.9-52.2-24.7-52.2-53.9s23.2-53,52.2-53.9h109.6c29.7,0,53.9,24.1,53.9,53.9v354.6h211.6c0,.1,0-300.7,0-300.7h-55.7c-28.9-.9-52.2-24.7-52.2-53.9s23.2-53,52.2-53.9h109.6c29.7,0,53.9,24.1,53.9,53.9v354.8h211.6c0,.1,0-300.9,0-300.9h-55.7c-28.9-.9-52.2-24.7-52.2-53.9s23.2-53,52.2-53.9h109.6c29.7,0,53.9,24.1,53.9,53.9v355h211.6c0,.1,0-301,0-301h-55.7c-28.9-.9-52.2-24.7-52.2-53.9s23.2-53,52.2-53.9h109.6c29.7,0,53.9,24.1,53.9,53.9v355.2h137.8c0,.1,0-301.2,0-301.2,0-59.6,48.3-107.8,107.8-107.8h215.7c59.6,0,107.8,48.3,107.8,107.8v282.7c7-2.7,13.6-5.8,19.7-9.3,46.9-27.4,108.5-71.3,178.4-133.3v-140.1h-55.7c-28.9-.9-52.2-24.7-52.2-53.9s23.2-53,52.2-53.9h109.6c29.7,0,53.9,24.1,53.9,53.9v89.8c14.7-15.4,29.6-31.5,44.8-48.5,69.6-77.9,130-157.6,182-238.3-.7-3.6-1.1-7.2-1.1-11v-539.2h-55.7c-28.9-.9-52.2-24.7-52.2-53.9s23.2-53,52.2-53.9h109.6c29.7,0,53.9,24.1,53.9,53.9v414.7c60.1-123.8,102.3-247.8,129.8-368.5-15.6-9.4-26-26.5-26-46.2s19.7-49.2,45.5-53.3c6.6-40.3,11.5-80,15-119.1.6-6.9,1.2-13.8,1.7-20.7-19.8,23.8-49.7,39.1-83,39.1h-216c-59.6,0-107.8-48.3-107.8-107.8v-485.3c0-59.6,48.3-107.8,107.8-107.8h218.6c-11.5-38-23.3-71.7-34.8-100.1h-195.8c-27.8,0-53.3-10.5-72.4-27.8-64.9,44.5-134.1,95.4-187.5,120.2-13.1,6.1-24.8,11.8-35.9,17.3,37.5,16.9,63.6,54.6,63.6,98.3v485.3c0,59.6-48.3,107.8-107.8,107.8h-215.7c-59.6,0-107.8-48.3-107.8-107.8v-453.6c-48.9,13-95,23.7-137.8,32.6v474.8c0,29.7-24.1,53.9-53.9,53.9s-53.9-24.1-53.9-53.9v-454.8c-118.2,19.2-191.3,22-191.3,22,0,0,253.4-385.3-18.9-846.3v424.1c0,59.6-48.3,107.8-107.8,107.8h-215.8c-59.6,0-107.8-48.3-107.8-107.8v-485.3c0-59.6,48.3-107.8,107.8-107.8h200.1c-58.3-65.2-120.9-118.4-185.4-161.7v7.6c0,29.7-24.1,54-53.9,54s-53.9-24.1-53.9-54v-70.5c-66.3-33.2-133.2-57.6-198.2-75v91.6c0,59.6-48.3,107.8-107.8,107.8h-215.8c-59.6,0-107.8-48.3-107.8-107.8v-123.4c-24.9,3.1-46.1,6.9-62.6,10.7-23.2,5.4-48.1,11.6-73.8,18.8v93.7c0,59.6-48.3,107.8-107.8,107.8h-215.7c-18.8,0-36.4-4.8-51.9-13.2-30.2,25.3-59.4,53.7-86.6,85.2-53.6,62-91.8,118.4-119.2,165.8v509.4c0,29.7-24.1,54-54,54s-54-24.1-54-54v-349.9c-14.9,1.4-32,1.9-48.7-.2-32.5-4.1-98.3-17.2-162.8-26.7v376.9c0,29.7-24.1,54-54,54s-54-24.1-54-54v-387.5c-11.3-.2-21.5.3-30.2,1.4-77.4,9.9-117.2,76.5-129.5,144.3-14.2,78.4,6.6,219.6,228.1,385.3,51.2,38.3,122,78.7,189.3,113.8,2.4-57.4,49.8-103.1,107.7-103.1h215.7c59.6,0,107.8,48.3,107.8,107.8v485.3c0,59.6-48.3,107.8-107.8,107.8h-215.7c-32.7,0-62.2-14.6-81.9-37.8-38.4,72.7-71.9,154.7-92.6,244.1v473.5c15.2,69.6,39.1,144,75.2,221.3h93.1c29.7,0,54,24.1,54,53.9v182.3c39.9,50.7,84.4,98.9,129,132.6,3.1,2,6,4,9.1,5.9ZM4337.6,3615.7c0-59.6,48.3-107.8,107.8-107.8h215.7c59.6,0,107.8,48.3,107.8,107.8v485.3c0,59.6-48.3,107.8-107.8,107.8h-215.7c-59.6,0-107.8-48.3-107.8-107.8v-485.3ZM3005.2,4154.9c0,29.7-24.1,53.9-53.9,53.9s-54-24.1-54-53.9v-539.2h-55.7c-28.9-.9-52.2-24.7-52.2-53.9s23.2-53,52.2-53.9h109.6c29.7,0,53.9,24.1,53.9,53.9v593.1ZM2860.3,3407.7c-59.6,0-107.8-48.3-107.8-107.8v-485.3c0-59.6,48.3-107.8,107.8-107.8h215.7c59.6,0,107.8,48.3,107.8,107.8v485.3c0,59.6-48.3,107.8-107.8,107.8h-215.7ZM4036.3,3507.8h109.6c29.7,0,53.9,24.1,53.9,53.9v593.1c0,29.7-24.1,53.9-53.9,53.9s-53.9-24.1-53.9-53.9v-539.2h-55.7c-28.9-.9-52.2-24.7-52.2-53.9,0-29.1,23.1-52.9,52.1-53.9ZM3645.8,2706.7h109.6c29.7,0,53.9,24.1,53.9,53.9v593.1c0,29.7-24.1,53.9-53.9,53.9s-53.9-24.1-53.9-53.9v-539.2h-55.7c-28.9-.9-52.2-24.7-52.2-53.9,0-29.1,23.1-52.9,52.1-53.9ZM3570.3,3507.8h215.7c59.6,0,107.8,48.3,107.8,107.8v485.3c0,59.6-48.3,107.8-107.8,107.8h-215.7c-59.6,0-107.8-48.3-107.8-107.8v-485.3c0-59.6,48.3-107.8,107.8-107.8ZM3326.4,2706.7h109.6c29.7,0,53.9,24.1,53.9,53.9v593.1c0,29.7-24.1,53.9-53.9,53.9s-53.9-24.1-53.9-53.9v-539.2h-55.7c-28.9-.9-52.2-24.7-52.2-53.9,0-29.1,23.1-52.9,52.1-53.9ZM3324.7,3561.7v593.1c0,29.7-24.1,53.9-53.9,53.9s-53.9-24.1-53.9-53.9v-539.2h-55.7c-28.9-.9-52.2-24.7-52.2-53.9s23.2-53,52.2-53.9h109.6c29.6,0,53.8,24.1,53.8,53.9ZM3078,1905.7h109.6c29.7,0,53.9,24.1,53.9,53.9v593.1c0,29.7-24.1,54-53.9,54s-53.9-24.1-53.9-54v-539.2h-55.7c-28.9-.9-52.2-24.7-52.2-53.9,0-29.1,23.1-52.9,52.1-53.9ZM2504.3,2013.5c0-59.6,48.3-107.8,107.8-107.8h215.7c59.6,0,107.8,48.3,107.8,107.8v485.3c0,59.6-48.3,107.8-107.8,107.8h-215.8c-59.6,0-107.8-48.3-107.8-107.8v-485.3h0ZM2451.3,2706.7h109.6c29.7,0,53.9,24.1,53.9,53.9v593.1c0,29.7-24.1,53.9-53.9,53.9s-54-24.1-54-53.9v-539.2h-55.7c-28.9-.9-52.2-24.7-52.2-53.9s23.1-52.9,52.2-53.9ZM2258.6,2552.6v-539.2h-55.7c-28.9-.9-52.2-24.7-52.2-53.9s23.2-53,52.2-53.9h109.6c29.7,0,54,24.1,54,53.9v593.1c0,29.7-24.1,54-54,54s-54-24.1-54-54ZM2267.8,3615.7c0-59.6,48.3-107.8,107.8-107.8h215.7c59.6,0,107.8,48.3,107.8,107.8v485.3c0,59.6-48.3,107.8-107.8,107.8h-215.7c-59.6,0-107.8-48.3-107.8-107.8v-485.3ZM2130.1,4154.9c0,29.7-24.1,53.9-54,53.9s-54-24.1-54-53.9v-539.2h-55.7c-28.9-.9-52.2-24.7-52.2-53.9s23.2-53,52.2-53.9h109.6c29.7,0,54,24.1,54,53.9v593.1Z"/>
        </g>
      </g>
    </g>
  </g>
</svg>