<?xml version="1.0" encoding="UTF-8"?>
<svg xmlns="http://www.w3.org/2000/svg" version="1.1" viewBox="0 0 6000 6000">
  <defs>
    <style>
      .cls-1 {
        fill: #f2c140;
      }

      .cls-2 {
        fill: #00715b;
      }

      .cls-3 {
        fill: #2870ab;
      }

      .cls-4 {
        fill: #fff;
      }

      .cls-5 {
        fill: #ffba00;
      }

      .cls-6 {
        fill: #00684a;
      }
    </style>
  </defs>
  <!-- Generator: Adobe Illustrator 28.6.0, SVG Export Plug-In . SVG Version: 1.2.0 Build 709)  -->
  <g>
    <g id="Layer_1">
      <g>
        <path class="cls-5" d="M2329.1,4714.4l1974,1.1s97.2,2.6,149.5-28.1c78.8-46.1,199.4-138.7,330.6-285.5,294.4-329.5,423.9-692.5,452.3-1013.4s-63.8-687.4-132.4-824.7c-32-63.9-82.1-73.4-121.2-59.1-83,30.5-222.3,151.5-314.5,194.2-92.7,43-113,67.1-379.6,140.8-266.6,73.6-459.9,81-459.9,81,0,0,278.6-423.5-62.9-913.5-341.4-490-907.8-456.6-1063.3-420.6-155.4,36-376.4,108.3-535.1,292-158.7,183.7-183.3,317.6-183.3,317.6,0,0-47.7,12.7-92,7.1-59.5-7.5-230-45.1-300.5-36-77.3,9.9-117,76.4-129.3,144.1-14.2,78.3,6.6,219.3,227.8,384.8,131,98,390.9,210,390.9,210,0,0,24.6,39.6,37.8,58.4,15.5,21.9,48.3,63.8,48.3,63.8,0,0-337.1,291.8-373.4,701.2-12.4,139.4-19.1,380.3,129.6,646.9,48.6,87.2,144.4,226.3,239.9,298.6,60.4,45.6,166.7,39.3,166.7,39.3Z"/>
        <polygon class="cls-4" points="4352.7 3886.1 4459.9 3886.1 4210.1 4438.6 4102.9 4438.6 4352.7 3886.1"/>
        <polygon class="cls-4" points="4352.7 3886.1 4352.7 3886.5 4459.3 3886.5 4209.8 4438.2 4103.5 4438.2 4353 3886.3 4352.7 3886.1 4352.7 3886.5 4352.7 3886.1 4352.4 3886 4102.3 4438.9 4210.3 4438.9 4460.4 3885.7 4352.5 3885.7 4352.4 3886 4352.7 3886.1"/>
        <polygon class="cls-4" points="4003.9 3209.1 3896.8 3209.1 4352.7 3886.1 4459.8 3886.1 4003.9 3209.1"/>
        <polygon class="cls-4" points="4003.9 3209.1 4003.9 3208.7 3896.1 3208.7 4352.5 3886.5 4460.5 3886.5 4004.1 3208.7 4003.9 3208.7 4003.9 3209.1 4003.6 3209.3 4459.1 3885.7 4352.9 3885.7 3897.5 3209.5 4003.9 3209.5 4003.9 3209.1 4003.6 3209.3 4003.9 3209.1"/>
        <polygon class="cls-4" points="4147.6 3886 4254.7 3886 4004.9 4438.5 3897.8 4438.5 4147.6 3886"/>
        <polygon class="cls-4" points="4147.6 3886 4147.6 3886.4 4254.2 3886.4 4004.7 4438.1 3898.4 4438.1 4147.9 3886.2 4147.6 3886 4147.6 3886.4 4147.6 3886 4147.2 3885.9 3897.2 4438.9 4005.2 4438.9 4255.3 3885.7 4147.3 3885.7 4147.2 3885.9 4147.6 3886"/>
        <polygon class="cls-4" points="3798.8 3209 3691.7 3209 4147.6 3886 4254.7 3886 3798.8 3209"/>
        <polygon class="cls-4" points="3798.8 3209 3798.8 3208.7 3691 3208.7 4147.4 3886.4 4255.4 3886.4 3799 3208.7 3798.8 3208.7 3798.8 3209 3798.5 3209.2 4254 3885.6 4147.8 3885.6 3692.4 3209.4 3798.8 3209.4 3798.8 3209 3798.5 3209.2 3798.8 3209"/>
        <polygon class="cls-4" points="3943.4 3885.8 4050.5 3885.8 3800.7 4438.2 3693.6 4438.2 3943.4 3885.8"/>
        <polygon class="cls-4" points="3943.4 3885.8 3943.4 3886.2 4049.9 3886.2 3800.5 4437.9 3694.1 4437.9 3943.7 3885.9 3943.4 3885.8 3943.4 3886.2 3943.4 3885.8 3943 3885.6 3693 4438.6 3800.9 4438.6 4051.1 3885.4 3943.1 3885.4 3943 3885.6 3943.4 3885.8"/>
        <polygon class="cls-4" points="3594.6 3208.8 3487.4 3208.8 3943.4 3885.8 4050.5 3885.8 3594.6 3208.8"/>
        <polygon class="cls-4" points="3594.6 3208.8 3594.6 3208.4 3486.7 3208.4 3943.2 3886.1 4051.2 3886.1 3594.8 3208.4 3594.6 3208.4 3594.6 3208.8 3594.3 3209 4049.8 3885.4 3943.6 3885.4 3488.1 3209.2 3594.6 3209.2 3594.6 3208.8 3594.3 3209 3594.6 3208.8"/>
      </g>
      <g>
        <path class="cls-2" d="M5097.5,1676s-.1,19.8-5.9,48.3c-32.5,162.1-262.7,162.1-295.2,0-5.8-28.7-5.9-48.3-5.9-48.3h307Z"/>
        <path class="cls-6" d="M4719.3,1578.8c0,22,17.9,39.9,39.9,39.9h2.4v59.1c0,7.5,6.1,13.7,13.7,13.7h337.5c7.5,0,13.7-6.1,13.7-13.7v-59.1h2.4c22,0,39.9-17.9,39.9-39.9v-292.1c0-22-17.9-39.9-39.9-39.9h-2.4v-60.6c0-6.7-5.5-12.2-12.2-12.2h-340.6c-6.7,0-12.2,5.5-12.2,12.2v60.6h-2.4c-22,0-39.9,17.9-39.9,39.9"/>
        <path class="cls-2" d="M5103.3,1173.9s-1.7-187.1-159.2-249.4c-157.6,62.4-159.2,249.4-159.2,249.4h318.5Z"/>
        <path class="cls-1" d="M4944,1268.3s-51.7,34.3-51.7,70.1v258.9h103.3v-258.9c0-35.8-51.7-70.1-51.7-70.1Z"/>
        <path class="cls-1" d="M4810.5,1324.9s-51.7,28.4-51.7,57.9v214.2h103.3v-214.2c0-29.5-51.7-57.9-51.7-57.9Z"/>
        <path class="cls-1" d="M5077.7,1324.9s-51.7,28.4-51.7,57.9v214.2h103.3v-214.2c0-29.5-51.7-57.9-51.7-57.9Z"/>
        <path class="cls-3" d="M5283.2,2057.3c-97.2,97.3-221.8,169.9-365.4,203.9-412.2,97.8-825.9-157.1-923.7-569.4-97.8-412.4,157.1-825.9,569.4-923.7,143.6-34.2,287.5-25.3,418,17.9-31,2.8-62.2,7.9-93.4,15.2-354.7,84.2-573.9,439.9-489.7,794.5,84.2,354.7,439.9,573.9,794.5,489.7"/>
      </g>
    </g>
  </g>
</svg>