<?xml version="1.0" encoding="UTF-8"?>
<svg xmlns="http://www.w3.org/2000/svg" version="1.1" viewBox="0 0 6000 6000">
  <defs>
    <style>
      .cls-1 {
        fill: none;
        stroke: #18669b;
        stroke-miterlimit: 10;
        stroke-width: 28px;
      }

      .cls-2 {
        fill: #fff;
      }

      .cls-3 {
        fill: #ffb500;
      }

      .cls-4 {
        fill: #ffba00;
      }
    </style>
  </defs>
  <!-- Generator: Adobe Illustrator 28.6.0, SVG Export Plug-In . SVG Version: 1.2.0 Build 709)  -->
  <g>
    <g id="Layer_1">
      <g>
        <path class="cls-4" d="M2329.1,4714.4l1974,1.1s97.2,2.6,149.5-28.1c78.8-46.1,199.4-138.7,330.6-285.5,294.4-329.5,423.9-692.5,452.3-1013.4s-63.8-687.4-132.4-824.7c-32-63.9-82.1-73.4-121.2-59.1-83,30.5-222.3,151.5-314.5,194.2-92.7,43-113,67.1-379.6,140.8-266.6,73.6-459.9,81-459.9,81,0,0,278.6-423.5-62.9-913.5-341.4-490-907.8-456.6-1063.3-420.6-155.4,36-376.4,108.3-535.1,292-158.7,183.7-183.3,317.6-183.3,317.6,0,0-47.7,12.7-92,7.1-59.5-7.5-230-45.1-300.5-36-77.3,9.9-117,76.4-129.3,144.1-14.2,78.3,6.6,219.3,227.8,384.8,131,98,390.9,210,390.9,210,0,0,24.6,39.6,37.8,58.4,15.5,21.9,48.3,63.8,48.3,63.8,0,0-337.1,291.8-373.4,701.2-12.4,139.4-19.1,380.3,129.6,646.9,48.6,87.2,144.4,226.3,239.9,298.6,60.4,45.6,166.7,39.3,166.7,39.3Z"/>
        <polygon class="cls-2" points="4352.7 3886.1 4459.9 3886.1 4210.1 4438.6 4102.9 4438.6 4352.7 3886.1"/>
        <polygon class="cls-2" points="4352.7 3886.1 4352.7 3886.5 4459.3 3886.5 4209.8 4438.2 4103.5 4438.2 4353 3886.3 4352.7 3886.1 4352.7 3886.5 4352.7 3886.1 4352.4 3886 4102.3 4438.9 4210.3 4438.9 4460.4 3885.7 4352.5 3885.7 4352.4 3886 4352.7 3886.1"/>
        <polygon class="cls-2" points="4003.9 3209.1 3896.8 3209.1 4352.7 3886.1 4459.8 3886.1 4003.9 3209.1"/>
        <polygon class="cls-2" points="4003.9 3209.1 4003.9 3208.7 3896.1 3208.7 4352.5 3886.5 4460.5 3886.5 4004.1 3208.7 4003.9 3208.7 4003.9 3209.1 4003.6 3209.3 4459.1 3885.7 4352.9 3885.7 3897.5 3209.5 4003.9 3209.5 4003.9 3209.1 4003.6 3209.3 4003.9 3209.1"/>
        <polygon class="cls-2" points="4147.6 3886 4254.7 3886 4004.9 4438.5 3897.8 4438.5 4147.6 3886"/>
        <polygon class="cls-2" points="4147.6 3886 4147.6 3886.4 4254.2 3886.4 4004.7 4438.1 3898.4 4438.1 4147.9 3886.2 4147.6 3886 4147.6 3886.4 4147.6 3886 4147.2 3885.9 3897.2 4438.9 4005.2 4438.9 4255.3 3885.7 4147.3 3885.7 4147.2 3885.9 4147.6 3886"/>
        <polygon class="cls-2" points="3798.8 3209 3691.7 3209 4147.6 3886 4254.7 3886 3798.8 3209"/>
        <polygon class="cls-2" points="3798.8 3209 3798.8 3208.7 3691 3208.7 4147.4 3886.4 4255.4 3886.4 3799 3208.7 3798.8 3208.7 3798.8 3209 3798.5 3209.2 4254 3885.6 4147.8 3885.6 3692.4 3209.4 3798.8 3209.4 3798.8 3209 3798.5 3209.2 3798.8 3209"/>
        <polygon class="cls-2" points="3943.4 3885.8 4050.5 3885.8 3800.7 4438.2 3693.6 4438.2 3943.4 3885.8"/>
        <polygon class="cls-2" points="3943.4 3885.8 3943.4 3886.2 4049.9 3886.2 3800.5 4437.9 3694.1 4437.9 3943.7 3885.9 3943.4 3885.8 3943.4 3886.2 3943.4 3885.8 3943 3885.6 3693 4438.6 3800.9 4438.6 4051.1 3885.4 3943.1 3885.4 3943 3885.6 3943.4 3885.8"/>
        <polygon class="cls-2" points="3594.6 3208.8 3487.4 3208.8 3943.4 3885.8 4050.5 3885.8 3594.6 3208.8"/>
        <polygon class="cls-2" points="3594.6 3208.8 3594.6 3208.4 3486.7 3208.4 3943.2 3886.1 4051.2 3886.1 3594.8 3208.4 3594.6 3208.4 3594.6 3208.8 3594.3 3209 4049.8 3885.4 3943.6 3885.4 3488.1 3209.2 3594.6 3209.2 3594.6 3208.8 3594.3 3209 3594.6 3208.8"/>
      </g>
      <g>
        <path class="cls-1" d="M3341.5,5729.9c499.7,0,904.8-1154.6,904.8-2579s-405.1-2579-904.8-2579-904.8,1154.6-904.8,2579,405.1,2579,904.8,2579"/>
        <ellipse class="cls-1" cx="3341.5" cy="3150.9" rx="904.8" ry="2579" transform="translate(-1058 4469.3) rotate(-60)"/>
        <ellipse class="cls-1" cx="3347.8" cy="3140" rx="2579" ry="904.8" transform="translate(-1121.5 2094.6) rotate(-30)"/>
        <g>
          <path class="cls-3" d="M2331.6,4706.1l1965.9,1.1s96.8,2.6,148.9-28c78.5-45.9,198.6-138.1,329.2-284.3,293.2-328.2,422.2-689.7,450.4-1009.3,28.3-319.6-63.5-684.6-131.9-821.3-31.9-63.6-81.8-73.1-120.7-58.9-82.7,30.4-221.4,150.9-313.2,193.4-92.3,42.8-112.5,66.8-378,140.2-265.5,73.3-458,80.7-458,80.7,0,0,277.5-421.8-62.6-909.8-340-488-904.1-454.7-1058.9-418.9-154.8,35.9-374.9,107.9-532.9,290.8-158.1,182.9-182.5,316.3-182.5,316.3,0,0-47.5,12.6-91.6,7.1-59.3-7.5-229.1-44.9-299.3-35.9-77,9.9-116.5,76.1-128.8,143.5-14.1,78,6.6,218.4,226.9,383.2,130.5,97.6,389.3,209.1,389.3,209.1,0,0,24.5,39.4,37.6,58.2,15.4,21.8,48.1,63.5,48.1,63.5,0,0-335.7,290.6-371.9,698.3-12.3,138.8-19,378.7,129.1,644.3,48.4,86.8,143.8,225.4,238.9,297.4,60.2,45.4,166,39.1,166,39.1Z"/>
          <polygon class="cls-2" points="4347 3881.2 4453.7 3881.2 4204.9 4431.5 4098.2 4431.5 4347 3881.2"/>
          <polygon class="cls-2" points="4347 3881.2 4347 3881.6 4453.1 3881.6 4204.6 4431.1 4098.8 4431.1 4347.3 3881.4 4347 3881.2 4347 3881.6 4347 3881.2 4346.7 3881.1 4097.6 4431.8 4205.1 4431.8 4454.2 3880.8 4346.8 3880.8 4346.7 3881.1 4347 3881.2"/>
          <polygon class="cls-2" points="3999.6 3207 3892.9 3207 4347 3881.2 4453.6 3881.2 3999.6 3207"/>
          <polygon class="cls-2" points="3999.6 3207 3999.6 3206.6 3892.2 3206.6 4346.8 3881.6 4454.3 3881.6 3999.8 3206.6 3999.6 3206.6 3999.6 3207 3999.3 3207.2 4452.9 3880.8 4347.2 3880.8 3893.6 3207.4 3999.6 3207.4 3999.6 3207 3999.3 3207.2 3999.6 3207"/>
          <polygon class="cls-2" points="4142.7 3881.1 4249.4 3881.1 4000.6 4431.4 3893.9 4431.4 4142.7 3881.1"/>
          <polygon class="cls-2" points="4142.7 3881.1 4142.7 3881.5 4248.9 3881.5 4000.4 4431 3894.5 4431 4143 3881.3 4142.7 3881.1 4142.7 3881.5 4142.7 3881.1 4142.3 3881 3893.3 4431.8 4000.9 4431.8 4250 3880.8 4142.4 3880.8 4142.3 3881 4142.7 3881.1"/>
          <polygon class="cls-2" points="3795.3 3206.9 3688.7 3206.9 4142.7 3881.1 4249.4 3881.1 3795.3 3206.9"/>
          <polygon class="cls-2" points="3795.3 3206.9 3795.3 3206.6 3688 3206.6 4142.5 3881.5 4250.1 3881.5 3795.5 3206.6 3795.3 3206.6 3795.3 3206.9 3795 3207.1 4248.7 3880.7 4142.9 3880.7 3689.4 3207.3 3795.3 3207.3 3795.3 3206.9 3795 3207.1 3795.3 3206.9"/>
          <polygon class="cls-2" points="3939.3 3880.9 4046 3880.9 3797.2 4431.1 3690.6 4431.1 3939.3 3880.9"/>
          <polygon class="cls-2" points="3939.3 3880.9 3939.3 3881.3 4045.4 3881.3 3797 4430.8 3691.1 4430.8 3939.6 3881 3939.3 3880.9 3939.3 3881.3 3939.3 3880.9 3938.9 3880.7 3690 4431.5 3797.4 4431.5 4046.6 3880.5 3939 3880.5 3938.9 3880.7 3939.3 3880.9"/>
          <polygon class="cls-2" points="3592 3206.7 3485.2 3206.7 3939.3 3880.9 4046 3880.9 3592 3206.7"/>
          <polygon class="cls-2" points="3592 3206.7 3592 3206.3 3484.5 3206.3 3939.1 3881.2 4046.7 3881.2 3592.2 3206.3 3592 3206.3 3592 3206.7 3591.7 3206.9 4045.3 3880.5 3939.5 3880.5 3485.9 3207.1 3592 3207.1 3592 3206.7 3591.7 3206.9 3592 3206.7"/>
        </g>
        <path class="cls-1" d="M1111.8,1854.3c-249.9,432.8,547.5,1360.9,1781,2073.1,1233.5,712.2,2436,938.7,2685.9,505.9"/>
        <path class="cls-1" d="M3347.8,5729.9c499.7,0,904.8-1154.6,904.8-2579,0-1424.3-405.1-2579-904.8-2579"/>
        <path class="cls-1" d="M5578.5,1846.6c-249.9-432.8-1452.4-206.3-2685.9,505.9-1233.5,712.2-2030.9,1640.3-1781,2073.1"/>
        <path class="cls-3" d="M5035.7,4835.9l305.5.2s15,.4,23.1-4.3c12.2-7.1,30.9-21.5,51.2-44.2,45.6-51,65.6-107.2,70-156.8,4.4-49.7-9.9-106.4-20.5-127.6-5-9.9-12.7-11.4-18.8-9.1-12.8,4.7-34.4,23.4-48.7,30.1-14.3,6.7-17.5,10.4-58.7,21.8-41.3,11.4-71.2,12.5-71.2,12.5,0,0,43.1-65.5-9.7-141.4-52.8-75.8-140.5-70.7-164.5-65.1-24,5.6-58.2,16.8-82.8,45.2-24.6,28.4-28.4,49.1-28.4,49.1,0,0-7.4,2-14.2,1.1-9.2-1.2-35.6-7-46.5-5.6-12,1.5-18.1,11.8-20,22.3-2.2,12.1,1,33.9,35.3,59.5,20.3,15.2,60.5,32.5,60.5,32.5,0,0,3.8,6.1,5.8,9,2.4,3.4,7.5,9.9,7.5,9.9,0,0-52.2,45.2-57.8,108.5-1.9,21.6-3,58.8,20.1,100.1,7.5,13.5,22.3,35,37.1,46.2,9.3,7.1,25.8,6.1,25.8,6.1Z"/>
        <path class="cls-3" d="M3736,1140.4l305.5.2s15,.4,23.1-4.3c12.2-7.1,30.9-21.5,51.2-44.2,45.6-51,65.6-107.2,70-156.8,4.4-49.7-9.9-106.4-20.5-127.6-5-9.9-12.7-11.4-18.8-9.1-12.8,4.7-34.4,23.4-48.7,30.1-14.3,6.7-17.5,10.4-58.7,21.8-41.3,11.4-71.2,12.5-71.2,12.5,0,0,43.1-65.5-9.7-141.4-52.8-75.8-140.5-70.7-164.5-65.1-24,5.6-58.2,16.8-82.8,45.2-24.6,28.4-28.4,49.1-28.4,49.1,0,0-7.4,2-14.2,1.1-9.2-1.2-35.6-7-46.5-5.6-12,1.5-18.1,11.8-20,22.3-2.2,12.1,1,33.9,35.3,59.5,20.3,15.2,60.5,32.5,60.5,32.5,0,0,3.8,6.1,5.8,9,2.4,3.4,7.5,9.9,7.5,9.9,0,0-52.2,45.2-57.8,108.5-1.9,21.6-3,58.8,20.1,100.1,7.5,13.5,22.3,35,37.1,46.2,9.3,7.1,25.8,6.1,25.8,6.1Z"/>
        <path class="cls-3" d="M1000.9,4191.3l305.5.2s15,.4,23.1-4.3c12.2-7.1,30.9-21.5,51.2-44.2,45.6-51,65.6-107.2,70-156.8,4.4-49.7-9.9-106.4-20.5-127.6-5-9.9-12.7-11.4-18.8-9.1-12.8,4.7-34.4,23.4-48.7,30.1-14.3,6.7-17.5,10.4-58.7,21.8-41.3,11.4-71.2,12.5-71.2,12.5,0,0,43.1-65.5-9.7-141.4-52.8-75.8-140.5-70.7-164.5-65.1-24,5.6-58.2,16.8-82.8,45.2-24.6,28.4-28.4,49.1-28.4,49.1,0,0-7.4,2-14.2,1.1-9.2-1.2-35.6-7-46.5-5.6-12,1.5-18.1,11.8-20,22.3-2.2,12.1,1,33.9,35.3,59.5,20.3,15.2,60.5,32.5,60.5,32.5,0,0,3.8,6.1,5.8,9,2.4,3.4,7.5,9.9,7.5,9.9,0,0-52.2,45.2-57.8,108.5-1.9,21.6-3,58.8,20.1,100.1,7.5,13.5,22.3,35,37.1,46.2,9.3,7.1,25.8,6.1,25.8,6.1Z"/>
      </g>
    </g>
  </g>
</svg>