<?xml version="1.0" encoding="UTF-8"?>
<svg xmlns="http://www.w3.org/2000/svg" version="1.1" viewBox="0 0 6000 6000">
  <defs>
    <style>
      .cls-1 {
        fill: #eeacb8;
      }

      .cls-2 {
        fill: #6fc4ed;
      }

      .cls-3 {
        fill: #fff;
      }

      .cls-4 {
        fill: #ffba00;
      }
    </style>
  </defs>
  <!-- Generator: Adobe Illustrator 28.6.0, SVG Export Plug-In . SVG Version: 1.2.0 Build 709)  -->
  <g>
    <g id="Layer_1">
      <g>
        <g>
          <path class="cls-2" d="M1584,2163.5c-28.1,3.6-51.2,14.7-69.9,30.5h335c-75.6-12.8-205.7-38.1-265.1-30.5Z"/>
          <path class="cls-4" d="M2075.3,2905.3s24.7,39.8,37.9,58.6c15.6,22,48.5,64,48.5,64,0,0-195,168.8-304.9,429.9h3378.4c3-23,5.5-45.8,7.5-68.4,16.9-190.9-8.7-397.9-46.8-563.6h-859.7c-14.2,4-29.1,8.2-44.9,12.6-267.6,73.9-461.7,81.3-461.7,81.3,0,0,22.4-34,46.7-94h-1969.8c91.6,46.2,168.7,79.4,168.7,79.4Z"/>
          <path class="cls-1" d="M1786.9,3731.9c-7.7,86.4-13.2,211.7,18.9,357.9h3213.2c122.7-212.8,189.7-429.5,216.3-631.9H1856.8c-34.8,82.9-61.2,175.1-70,274.1Z"/>
          <path class="cls-2" d="M1917,4381.3c48.8,87.5,145,227.2,240.8,299.8,60.6,45.8,167.3,39.5,167.3,39.5l1981.7,1.1s97.6,2.6,150.1-28.2c79.1-46.3,200.2-139.2,331.9-286.6,92.2-103.2,168.2-209.6,230.2-317H1805.7c19.9,90.5,54.1,189.1,111.2,291.5Z"/>
          <path class="cls-1" d="M5109.9,2561.6c-32.1-64.1-82.4-73.7-121.7-59.3-83.3,30.6-223.2,152.1-315.7,195-87.5,40.7-110.8,64.4-336.2,128.7h859.7c-26.1-113.8-58.1-208.2-86.1-264.3Z"/>
          <path class="cls-1" d="M1885.7,2199.7c-9.6-1.2-22.1-3.2-36.5-5.6h-335c-32.9,27.9-52,70.8-59.9,114.1-14.3,78.6,6.6,220.2,228.7,386.3,60,44.9,147,92.8,223.8,131.4h1969.8c50.3-123.9,109-358.4-4.2-631.9h-1900.4c-14.4,3.2-51.3,10.1-86.1,5.7Z"/>
          <path class="cls-2" d="M2162,1873.7c-159.3,184.4-184,318.8-184,318.8,0,0-2.2.6-6.2,1.5h1900.4c-25.7-62-60.1-126-105.6-191.2-342.7-491.9-911.3-458.4-1067.4-422.2-156,36.1-377.9,108.7-537.2,293.1Z"/>
        </g>
        <polygon class="cls-3" points="4356.6 3889 4464.2 3889 4213.4 4443.6 4105.8 4443.6 4356.6 3889"/>
        <polygon class="cls-3" points="4356.6 3889 4356.6 3889.4 4463.6 3889.4 4213.1 4443.2 4106.4 4443.2 4356.9 3889.2 4356.6 3889 4356.6 3889.4 4356.6 3889 4356.3 3888.9 4105.2 4443.9 4213.6 4443.9 4464.7 3888.6 4356.4 3888.6 4356.3 3888.9 4356.6 3889"/>
        <polygon class="cls-3" points="4006.4 3209.4 3898.9 3209.4 4356.6 3889 4464.1 3889 4006.4 3209.4"/>
        <polygon class="cls-3" points="4006.4 3209.4 4006.4 3209 3898.2 3209 4356.4 3889.4 4464.8 3889.4 4006.6 3209 4006.4 3209 4006.4 3209.4 4006.1 3209.6 4463.4 3888.6 4356.8 3888.6 3899.6 3209.8 4006.4 3209.8 4006.4 3209.4 4006.1 3209.6 4006.4 3209.4"/>
        <polygon class="cls-3" points="4150.7 3888.9 4258.2 3888.9 4007.4 4443.5 3899.9 4443.5 4150.7 3888.9"/>
        <polygon class="cls-3" points="4150.7 3888.9 4150.7 3889.3 4257.7 3889.3 4007.2 4443.1 3900.5 4443.1 4151 3889.1 4150.7 3888.9 4150.7 3889.3 4150.7 3888.9 4150.3 3888.8 3899.3 4443.9 4007.7 4443.9 4258.8 3888.6 4150.4 3888.6 4150.3 3888.8 4150.7 3888.9"/>
        <polygon class="cls-3" points="3800.5 3209.3 3693 3209.3 4150.7 3888.9 4258.2 3888.9 3800.5 3209.3"/>
        <polygon class="cls-3" points="3800.5 3209.3 3800.5 3209 3692.3 3209 4150.5 3889.3 4258.9 3889.3 3800.7 3209 3800.5 3209 3800.5 3209.3 3800.2 3209.5 4257.5 3888.5 4150.9 3888.5 3693.7 3209.7 3800.5 3209.7 3800.5 3209.3 3800.2 3209.5 3800.5 3209.3"/>
        <polygon class="cls-3" points="3945.7 3888.7 4053.2 3888.7 3802.5 4443.2 3694.9 4443.2 3945.7 3888.7"/>
        <polygon class="cls-3" points="3945.7 3888.7 3945.7 3889.1 4052.6 3889.1 3802.3 4442.9 3695.4 4442.9 3946 3888.8 3945.7 3888.7 3945.7 3889.1 3945.7 3888.7 3945.3 3888.5 3694.3 4443.6 3802.7 4443.6 4053.8 3888.3 3945.4 3888.3 3945.3 3888.5 3945.7 3888.7"/>
        <polygon class="cls-3" points="3595.6 3209.1 3487.9 3209.1 3945.7 3888.7 4053.2 3888.7 3595.6 3209.1"/>
        <polygon class="cls-3" points="3595.6 3209.1 3595.6 3208.7 3487.2 3208.7 3945.5 3889 4053.9 3889 3595.8 3208.7 3595.6 3208.7 3595.6 3209.1 3595.3 3209.3 4052.5 3888.3 3945.9 3888.3 3488.6 3209.5 3595.6 3209.5 3595.6 3209.1 3595.3 3209.3 3595.6 3209.1"/>
      </g>
    </g>
  </g>
</svg>