<?xml version="1.0" encoding="UTF-8"?>
<svg xmlns="http://www.w3.org/2000/svg" version="1.1" viewBox="0 0 6000 6000">
  <defs>
    <style>
      .cls-1 {
        fill: #6c5347;
      }

      .cls-2 {
        fill: #2e8d54;
      }

      .cls-3 {
        fill: #6c5447;
      }

      .cls-4 {
        fill: #3aa868;
      }

      .cls-5 {
        fill: #816b5e;
      }

      .cls-6 {
        fill: #37a869;
      }

      .cls-7 {
        fill: #fff;
      }

      .cls-8 {
        fill: #826a5d;
      }

      .cls-9 {
        fill: #2c8c51;
      }

      .cls-10 {
        fill: #ffba00;
      }
    </style>
  </defs>
  <!-- Generator: Adobe Illustrator 28.6.0, SVG Export Plug-In . SVG Version: 1.2.0 Build 709)  -->
  <g>
    <g id="Layer_1">
      <g>
        <g>
          <polygon class="cls-4" points="4568 2522.4 4958.6 2522.4 4800.6 2136.7 4416.8 2009.5 4749.2 2009.5 4589.2 1621.6 4287.1 1523.7 4548.7 1523.7 4254.7 810.6 3960.7 1523.7 4254.7 1523.7 3915.2 1633.7 3760.2 2009.5 4125 2009.5 3703.8 2148.8 3550.8 2522.4 3973.8 2522.4 3485.4 2678.1 3314.7 3089.2 5194.7 3089.2 5019 2665.9 4568 2522.4"/>
          <polygon class="cls-9" points="5019 2668.8 4958.6 2522.4 4568 2522.4 5019 2668.8"/>
          <polygon class="cls-9" points="4800.6 2134.2 4749.2 2009.5 4416.8 2009.5 4800.6 2134.2"/>
          <polygon class="cls-9" points="4589.2 1621.8 4548.7 1523.7 4287.1 1523.7 4589.2 1621.8"/>
          <polygon class="cls-9" points="3550.8 2522.4 3485.4 2681 3973.8 2522.4 3550.8 2522.4"/>
          <polygon class="cls-9" points="3760.2 2009.5 3703.8 2146.3 4125 2009.5 3760.2 2009.5"/>
          <polygon class="cls-9" points="3960.7 1523.7 3915.2 1633.9 4254.7 1523.7 3960.7 1523.7"/>
        </g>
        <rect class="cls-8" x="4081.3" y="3089.2" width="357.6" height="283.4"/>
        <polyline class="cls-1" points="4081.3 3089.2 4438.9 3089.2 4438.9 3372.6"/>
      </g>
      <g>
        <path class="cls-10" d="M2329.1,4714.4l1974,1.1s97.2,2.6,149.5-28.1c78.8-46.1,199.4-138.7,330.6-285.5,294.4-329.5,423.9-692.5,452.3-1013.4s-63.8-687.4-132.4-824.7c-32-63.9-82.1-73.4-121.2-59.1-83,30.5-222.3,151.5-314.5,194.2-92.7,43-113,67.1-379.6,140.8-266.6,73.6-459.9,81-459.9,81,0,0,278.6-423.5-62.9-913.5-341.4-490-907.8-456.6-1063.3-420.6-155.4,36-376.4,108.3-535.1,292-158.7,183.7-183.3,317.6-183.3,317.6,0,0-47.7,12.7-92,7.1-59.5-7.5-230-45.1-300.5-36-77.3,9.9-117,76.4-129.3,144.1-14.2,78.3,6.6,219.3,227.8,384.8,131,98,390.9,210,390.9,210,0,0,24.6,39.6,37.8,58.4,15.5,21.9,48.3,63.8,48.3,63.8,0,0-337.1,291.8-373.4,701.2-12.4,139.4-19.1,380.3,129.6,646.9,48.6,87.2,144.4,226.3,239.9,298.6,60.4,45.6,166.7,39.3,166.7,39.3Z"/>
        <polygon class="cls-7" points="4352.7 3886.1 4459.9 3886.1 4210.1 4438.6 4102.9 4438.6 4352.7 3886.1"/>
        <polygon class="cls-7" points="4352.7 3886.1 4352.7 3886.5 4459.3 3886.5 4209.8 4438.2 4103.5 4438.2 4353 3886.3 4352.7 3886.1 4352.7 3886.5 4352.7 3886.1 4352.4 3886 4102.3 4438.9 4210.3 4438.9 4460.4 3885.7 4352.5 3885.7 4352.4 3886 4352.7 3886.1"/>
        <polygon class="cls-7" points="4003.9 3209.1 3896.8 3209.1 4352.7 3886.1 4459.8 3886.1 4003.9 3209.1"/>
        <polygon class="cls-7" points="4003.9 3209.1 4003.9 3208.7 3896.1 3208.7 4352.5 3886.5 4460.5 3886.5 4004.1 3208.7 4003.9 3208.7 4003.9 3209.1 4003.6 3209.3 4459.1 3885.7 4352.9 3885.7 3897.5 3209.5 4003.9 3209.5 4003.9 3209.1 4003.6 3209.3 4003.9 3209.1"/>
        <polygon class="cls-7" points="4147.6 3886 4254.7 3886 4004.9 4438.5 3897.8 4438.5 4147.6 3886"/>
        <polygon class="cls-7" points="4147.6 3886 4147.6 3886.4 4254.2 3886.4 4004.7 4438.1 3898.4 4438.1 4147.9 3886.2 4147.6 3886 4147.6 3886.4 4147.6 3886 4147.2 3885.9 3897.2 4438.9 4005.2 4438.9 4255.3 3885.7 4147.3 3885.7 4147.2 3885.9 4147.6 3886"/>
        <polygon class="cls-7" points="3798.8 3209 3691.7 3209 4147.6 3886 4254.7 3886 3798.8 3209"/>
        <polygon class="cls-7" points="3798.8 3209 3798.8 3208.7 3691 3208.7 4147.4 3886.4 4255.4 3886.4 3799 3208.7 3798.8 3208.7 3798.8 3209 3798.5 3209.2 4254 3885.6 4147.8 3885.6 3692.4 3209.4 3798.8 3209.4 3798.8 3209 3798.5 3209.2 3798.8 3209"/>
        <polygon class="cls-7" points="3943.4 3885.8 4050.5 3885.8 3800.7 4438.2 3693.6 4438.2 3943.4 3885.8"/>
        <polygon class="cls-7" points="3943.4 3885.8 3943.4 3886.2 4049.9 3886.2 3800.5 4437.9 3694.1 4437.9 3943.7 3885.9 3943.4 3885.8 3943.4 3886.2 3943.4 3885.8 3943 3885.6 3693 4438.6 3800.9 4438.6 4051.1 3885.4 3943.1 3885.4 3943 3885.6 3943.4 3885.8"/>
        <polygon class="cls-7" points="3594.6 3208.8 3487.4 3208.8 3943.4 3885.8 4050.5 3885.8 3594.6 3208.8"/>
        <polygon class="cls-7" points="3594.6 3208.8 3594.6 3208.4 3486.7 3208.4 3943.2 3886.1 4051.2 3886.1 3594.8 3208.4 3594.6 3208.4 3594.6 3208.8 3594.3 3209 4049.8 3885.4 3943.6 3885.4 3488.1 3209.2 3594.6 3209.2 3594.6 3208.8 3594.3 3209 3594.6 3208.8"/>
      </g>
      <g>
        <g>
          <polygon class="cls-6" points="2241.2 4009.7 1587.7 4009.7 1284.4 4524.7 2544.5 4524.7 2241.2 4009.7"/>
          <polyline class="cls-2" points="2339.5 4174.9 2241.2 4009.7 1588.5 4009.7"/>
          <polygon class="cls-6" points="2130.2 3571.5 1980.7 3571.5 1848.3 3571.5 1698.8 3571.5 1438.2 4009.7 1587.7 4009.7 2241.2 4009.7 2390.7 4009.7 2130.2 3571.5"/>
          <polyline class="cls-2" points="2213.3 3711.1 2130.2 3571.5 1980.7 3571.5 1848.3 3571.5 1696.9 3571.5"/>
          <polygon class="cls-6" points="1914.5 3000 1577 3571.5 1698.8 3571.5 1848.3 3571.5 1980.7 3571.5 2130.2 3571.5 2251.9 3571.5 1914.5 3000"/>
        </g>
        <rect class="cls-5" x="1782.7" y="4524.7" width="239.4" height="189.7"/>
        <polyline class="cls-3" points="1782.7 4524.7 2022.2 4524.7 2022.2 4714.4"/>
      </g>
    </g>
  </g>
</svg>