<?xml version="1.0" encoding="utf-8"?>
<!-- Generator: Adobe Illustrator 24.0.3, SVG Export Plug-In . SVG Version: 6.00 Build 0)  -->
<svg version="1.1" id="Layer_1" xmlns="http://www.w3.org/2000/svg" xmlns:xlink="http://www.w3.org/1999/xlink" x="0px" y="0px"
	 viewBox="0 0 6000 6000" style="enable-background:new 0 0 6000 6000;" xml:space="preserve">
<style type="text/css">
	.st0{fill:#03A9D2;}
	.st1{fill:#FFBA00;}
	.st2{fill:#FFFFFF;}
</style>
<g>
	<path class="st0" d="M4213.8,2348.3v19.5c31.5,0,61.4,6.4,88.6,17.9c40.8,17.3,75.6,46.2,100.2,82.5c12.3,18.2,22,38.2,28.6,59.6
		c6.6,21.4,10.2,44.1,10.2,67.7c0,31.5-6.4,61.4-17.9,88.6c-17.3,40.8-46.2,75.6-82.5,100.2c-18.2,12.3-38.2,22-59.6,28.6
		c-21.4,6.6-44.1,10.2-67.7,10.2c-31.5,0-61.4-6.4-88.6-17.9c-40.8-17.3-75.6-46.2-100.2-82.5c-12.3-18.2-22-38.2-28.6-59.6
		c-6.6-21.4-10.2-44.1-10.2-67.7c0-31.5,6.4-61.4,17.9-88.6c17.3-40.8,46.2-75.6,82.5-100.2c18.2-12.3,38.2-22,59.6-28.6
		c21.4-6.6,44.1-10.2,67.7-10.2V2348.3v-19.5c-36.8,0-71.9,7.5-103.8,21c-47.9,20.3-88.6,54-117.3,96.6
		c-14.4,21.3-25.8,44.7-33.6,69.8c-7.8,25.1-12,51.7-12,79.3c0,36.8,7.5,71.9,21,103.8c20.3,47.9,54,88.6,96.6,117.3
		c21.3,14.4,44.7,25.8,69.8,33.6c25.1,7.8,51.7,12,79.3,12c36.8,0,71.9-7.5,103.8-21c47.9-20.3,88.6-54,117.3-96.6
		c14.4-21.3,25.8-44.7,33.6-69.8c7.8-25.1,12-51.7,12-79.3c0-36.8-7.5-71.9-21-103.8c-20.3-47.9-54-88.6-96.6-117.3
		c-21.3-14.4-44.7-25.8-69.8-33.6c-25.1-7.8-51.7-12-79.3-12V2348.3z"/>
	<path class="st0" d="M4236.7,3051.6V2137c0-10.8-8.7-19.5-19.5-19.5c-10.8,0-19.5,8.7-19.5,19.5v914.5c0,10.8,8.7,19.5,19.5,19.5
		C4227.9,3071.1,4236.7,3062.3,4236.7,3051.6"/>
	<path class="st0" d="M3778.8,2615.2h914.5c10.8,0,19.5-8.7,19.5-19.5c0-10.8-8.7-19.5-19.5-19.5h-914.5c-10.8,0-19.5,8.7-19.5,19.5
		C3759.3,2606.4,3768,2615.2,3778.8,2615.2"/>
	<path class="st0" d="M4566.6,2918.5l-655-655c-7.6-7.6-20-7.6-27.6,0s-7.6,20,0,27.6l655,655c7.6,7.6,20,7.6,27.6,0
		S4574.2,2926.1,4566.6,2918.5"/>
	<path class="st0" d="M3911.5,2929.2l655-655c7.6-7.6,7.6-20,0-27.6s-20-7.6-27.6,0l-655,655c-7.6,7.6-7.6,20,0,27.6
		S3903.9,2936.8,3911.5,2929.2"/>
	<path class="st0" d="M3778.8,2520.5c11.3,0,21.5,2.3,30.6,6.3c6.9,3,13.1,7,18.7,11.8c8.3,7.2,15.1,16.1,19.7,26.1
		c4.6,10,7.1,20.9,7.1,32c0,6.3-0.8,12.6-2.5,19c-1.7,6.3-4.2,12.6-7.8,18.9c-12.8,22.2-36,36.5-61.6,37.9
		c-10.8,0.6-19,9.8-18.4,20.6c0.6,10.8,9.8,19,20.6,18.4c38.7-2.2,73.8-23.7,93.2-57.3c5.3-9.2,9.2-18.7,11.8-28.3
		c2.6-9.6,3.8-19.4,3.8-29c0-15.1-3-29.8-8.5-43.4c-8.3-20.4-22.3-38.2-40.6-51.1c-9.2-6.4-19.4-11.6-30.5-15.2
		c-11.1-3.6-23-5.5-35.5-5.5c-10.8,0-19.5,8.7-19.5,19.5C3759.3,2511.8,3768,2520.5,3778.8,2520.5L3778.8,2520.5z"/>
	<path class="st0" d="M3945.9,2215.1c7.7,7.7,13.3,16.3,16.9,25.3c3.6,9,5.4,18.5,5.4,28c0,16.3-5.2,32.5-14.8,45.6
		c-4.8,6.6-10.7,12.4-17.6,17.2c-6.9,4.8-14.9,8.6-23.9,11c-6.5,1.7-13.1,2.6-19.7,2.6c-9.2,0-18.4-1.7-27-4.9
		c-8.6-3.3-16.6-8.1-23.7-14.4c-8-7.2-20.4-6.5-27.5,1.5c-7.2,8-6.5,20.4,1.5,27.5c10.7,9.5,22.9,16.9,35.9,21.8
		c13,4.9,26.8,7.5,40.8,7.5c9.9,0,19.9-1.3,29.8-3.9c13.4-3.6,25.5-9.3,36-16.6c15.9-11,28.2-25.6,36.5-41.9
		c8.3-16.4,12.7-34.5,12.7-52.9c0-14.3-2.7-28.8-8.3-42.6c-5.6-13.8-14.1-26.9-25.5-38.3c-7.6-7.6-20-7.6-27.6,0
		C3938.3,2195.1,3938.3,2207.5,3945.9,2215.1L3945.9,2215.1z"/>
	<path class="st0" d="M4292.7,2137c0,11.3-2.3,21.5-6.3,30.6c-3,6.9-7,13.1-11.8,18.7c-7.2,8.3-16.1,15.1-26.1,19.7
		c-10,4.6-20.9,7.1-32,7.1c-6.3,0-12.6-0.8-19-2.5c-6.3-1.7-12.6-4.2-18.9-7.8c-22.2-12.8-36.5-36-37.9-61.6
		c-0.6-10.8-9.8-19-20.6-18.4c-10.8,0.6-19,9.8-18.4,20.6c2.2,38.7,23.7,73.8,57.3,93.2c9.2,5.3,18.7,9.2,28.3,11.8
		c9.6,2.6,19.4,3.8,29,3.8c15.1,0,29.8-3,43.4-8.5c20.4-8.3,38.2-22.3,51.1-40.6c6.4-9.2,11.6-19.4,15.2-30.5
		c3.6-11.1,5.5-23,5.5-35.5c0-10.8-8.7-19.5-19.5-19.5C4301.4,2117.5,4292.7,2126.3,4292.7,2137L4292.7,2137z"/>
	<path class="st0" d="M4607.8,2309.5c-7.8,7.7-16.3,13.3-25.3,16.9c-9,3.6-18.5,5.4-28,5.4c-16.3,0-32.5-5.2-45.6-14.8
		c-6.6-4.8-12.4-10.7-17.2-17.6c-4.8-6.9-8.6-14.9-11-23.9c-1.7-6.5-2.6-13.1-2.6-19.7c0-9.2,1.7-18.4,4.9-27
		c3.3-8.6,8.1-16.6,14.4-23.7c7.2-8,6.5-20.4-1.5-27.5c-8-7.2-20.4-6.5-27.5,1.5c-9.5,10.7-16.9,22.9-21.8,35.9
		c-4.9,13-7.5,26.8-7.5,40.8c0,9.9,1.3,19.9,3.9,29.8c3.6,13.4,9.3,25.5,16.6,36c11,15.9,25.6,28.2,41.9,36.5
		c16.4,8.3,34.5,12.7,52.9,12.7c14.3,0,28.8-2.7,42.6-8.3c13.8-5.6,26.9-14.1,38.3-25.5c7.6-7.6,7.6-20,0-27.6
		C4627.8,2301.9,4615.4,2301.9,4607.8,2309.5L4607.8,2309.5z"/>
	<path class="st0" d="M4693.3,2672.3c-11.3,0-21.5-2.3-30.6-6.3c-6.9-3-13.1-7-18.7-11.8c-8.3-7.2-15.1-16.1-19.7-26.1
		c-4.6-10-7.1-20.9-7.1-32c0-6.3,0.8-12.6,2.5-19c1.7-6.3,4.2-12.6,7.8-18.9l0,0c12.8-22.2,36-36.5,61.6-37.9
		c10.8-0.6,19-9.8,18.4-20.6c-0.6-10.8-9.8-19-20.6-18.4c-38.7,2.2-73.8,23.7-93.2,57.3l0,0c-5.3,9.2-9.2,18.7-11.8,28.3
		c-2.6,9.6-3.8,19.4-3.8,29c0,15.1,3,29.8,8.5,43.4c8.3,20.4,22.3,38.2,40.6,51.1c9.2,6.4,19.4,11.6,30.5,15.2
		c11.1,3.6,23,5.5,35.5,5.5c10.8,0,19.5-8.7,19.5-19.5C4712.8,2681.1,4704.1,2672.3,4693.3,2672.3L4693.3,2672.3z"/>
	<path class="st0" d="M4500.4,2990.1c-7.7-7.8-13.3-16.3-16.9-25.3c-3.6-9-5.4-18.5-5.4-28c0-16.3,5.2-32.5,14.8-45.6
		c4.8-6.6,10.7-12.4,17.6-17.2c6.9-4.8,14.9-8.6,23.9-11c6.5-1.7,13.1-2.6,19.7-2.6c9.2,0,18.4,1.7,27,4.9
		c8.6,3.3,16.6,8.1,23.7,14.4c8,7.2,20.4,6.5,27.5-1.5c7.2-8,6.5-20.4-1.5-27.5c-10.7-9.5-22.9-16.9-35.9-21.8
		c-13-4.9-26.8-7.5-40.8-7.5c-9.9,0-19.9,1.3-29.8,3.9c-13.4,3.6-25.5,9.3-36,16.6c-15.9,11-28.2,25.6-36.5,41.9
		c-8.3,16.4-12.7,34.5-12.7,52.9c0,14.3,2.7,28.8,8.3,42.6c5.6,13.8,14.1,26.9,25.5,38.3c7.6,7.6,20,7.6,27.6,0
		C4508,3010.1,4508,2997.7,4500.4,2990.1L4500.4,2990.1z"/>
	<path class="st0" d="M4140.3,3051.6c0-11.3,2.3-21.5,6.3-30.6c3-6.9,7-13.1,11.8-18.7c7.2-8.3,16.1-15.1,26.1-19.7
		c10-4.6,20.9-7.1,32-7.1c6.3,0,12.7,0.8,19,2.5c6.3,1.7,12.6,4.2,18.9,7.8c22.2,12.8,36.5,36,37.9,61.6c0.6,10.8,9.8,19,20.6,18.4
		c10.8-0.6,19-9.8,18.4-20.6c-2.2-38.7-23.7-73.8-57.3-93.2c-9.2-5.3-18.7-9.2-28.3-11.8c-9.6-2.6-19.4-3.8-29-3.8
		c-15.1,0-29.8,3-43.4,8.5c-20.4,8.3-38.2,22.3-51.1,40.6c-6.4,9.2-11.6,19.4-15.2,30.5c-3.6,11.1-5.5,23-5.5,35.5
		c0,10.8,8.7,19.5,19.5,19.5C4131.6,3071.1,4140.3,3062.3,4140.3,3051.6L4140.3,3051.6z"/>
	<path class="st0" d="M3840.2,2862.9c7.8-7.7,16.3-13.3,25.3-16.9c9-3.6,18.5-5.4,28-5.4c16.3,0,32.5,5.2,45.6,14.8
		c6.6,4.8,12.4,10.7,17.2,17.6c4.8,6.9,8.6,14.9,11,23.9c1.7,6.5,2.6,13.1,2.6,19.7c0,9.2-1.7,18.4-4.9,27
		c-3.3,8.6-8.1,16.6-14.4,23.7c-7.2,8-6.5,20.4,1.5,27.5c8,7.2,20.4,6.5,27.5-1.5c9.5-10.7,16.9-22.9,21.8-35.9
		c4.9-13,7.5-26.8,7.5-40.8c0-9.9-1.3-19.9-3.9-29.8c-3.6-13.4-9.3-25.5-16.6-36c-11-15.9-25.6-28.2-41.9-36.5
		c-16.4-8.3-34.5-12.7-52.9-12.7c-14.3,0-28.8,2.7-42.6,8.3c-13.8,5.6-26.9,14.1-38.3,25.5c-7.6,7.6-7.6,20,0,27.6
		C3820.3,2870.6,3832.6,2870.6,3840.2,2862.9L3840.2,2862.9z"/>
	<path class="st1" d="M2329.1,4714.4l1974,1.1c0,0,97.2,2.6,149.5-28.1c78.8-46.1,199.4-138.7,330.6-285.5
		c294.4-329.5,423.9-692.5,452.3-1013.4c28.4-320.9-63.8-687.4-132.4-824.7c-32-63.9-82.1-73.4-121.2-59.1
		c-83,30.5-222.3,151.5-314.5,194.2c-92.7,43-113,67.1-379.6,140.8c-266.6,73.6-459.9,81-459.9,81s278.6-423.5-62.9-913.5
		c-341.4-490-907.8-456.6-1063.3-420.6c-155.4,36-376.4,108.3-535.1,292c-158.7,183.7-183.3,317.6-183.3,317.6s-47.7,12.7-92,7.1
		c-59.5-7.5-230-45.1-300.5-36c-77.3,9.9-117,76.4-129.3,144.1c-14.2,78.3,6.6,219.3,227.8,384.8c131,98,390.9,210,390.9,210
		s24.6,39.6,37.8,58.4c15.5,21.9,48.3,63.8,48.3,63.8s-337.1,291.8-373.4,701.2c-12.4,139.4-19.1,380.3,129.6,646.9
		c48.6,87.2,144.4,226.3,239.9,298.6C2222.8,4720.7,2329.1,4714.4,2329.1,4714.4z"/>
	<polygon class="st2" points="4352.7,3886.1 4459.9,3886.1 4210.1,4438.6 4102.9,4438.6 	"/>
	<polygon class="st2" points="4352.7,3886.1 4352.7,3886.5 4459.3,3886.5 4209.8,4438.2 4103.5,4438.2 4353,3886.3 4352.7,3886.1 
		4352.7,3886.5 4352.7,3886.1 4352.4,3886 4102.3,4438.9 4210.3,4438.9 4460.4,3885.7 4352.5,3885.7 4352.4,3886 	"/>
	<polygon class="st2" points="4003.9,3209.1 3896.8,3209.1 4352.7,3886.1 4459.8,3886.1 	"/>
	<polygon class="st2" points="4003.9,3209.1 4003.9,3208.7 3896.1,3208.7 4352.5,3886.5 4460.5,3886.5 4004.1,3208.7 4003.9,3208.7 
		4003.9,3209.1 4003.6,3209.3 4459.1,3885.7 4352.9,3885.7 3897.5,3209.5 4003.9,3209.5 4003.9,3209.1 4003.6,3209.3 	"/>
	<polygon class="st2" points="4147.6,3886 4254.7,3886 4004.9,4438.5 3897.8,4438.5 	"/>
	<polygon class="st2" points="4147.6,3886 4147.6,3886.4 4254.2,3886.4 4004.7,4438.1 3898.4,4438.1 4147.9,3886.2 4147.6,3886 
		4147.6,3886.4 4147.6,3886 4147.2,3885.9 3897.2,4438.9 4005.2,4438.9 4255.3,3885.7 4147.3,3885.7 4147.2,3885.9 	"/>
	<polygon class="st2" points="3798.8,3209 3691.7,3209 4147.6,3886 4254.7,3886 	"/>
	<polygon class="st2" points="3798.8,3209 3798.8,3208.7 3691,3208.7 4147.4,3886.4 4255.4,3886.4 3799,3208.7 3798.8,3208.7 
		3798.8,3209 3798.5,3209.2 4254,3885.6 4147.8,3885.6 3692.4,3209.4 3798.8,3209.4 3798.8,3209 3798.5,3209.2 	"/>
	<polygon class="st2" points="3943.4,3885.8 4050.5,3885.8 3800.7,4438.2 3693.6,4438.2 	"/>
	<polygon class="st2" points="3943.4,3885.8 3943.4,3886.2 4049.9,3886.2 3800.5,4437.9 3694.1,4437.9 3943.7,3885.9 3943.4,3885.8 
		3943.4,3886.2 3943.4,3885.8 3943,3885.6 3693,4438.6 3800.9,4438.6 4051.1,3885.4 3943.1,3885.4 3943,3885.6 	"/>
	<polygon class="st2" points="3594.6,3208.8 3487.4,3208.8 3943.4,3885.8 4050.5,3885.8 	"/>
	<polygon class="st2" points="3594.6,3208.8 3594.6,3208.4 3486.7,3208.4 3943.2,3886.1 4051.2,3886.1 3594.8,3208.4 3594.6,3208.4 
		3594.6,3208.8 3594.3,3209 4049.8,3885.4 3943.6,3885.4 3488.1,3209.2 3594.6,3209.2 3594.6,3208.8 3594.3,3209 	"/>
	<path class="st0" d="M1718.9,3436v30c58,0,113.2,11.7,163.4,33c75.3,31.8,139.4,85.1,184.7,152.1c22.6,33.5,40.5,70.4,52.8,109.8
		c12.3,39.4,18.9,81.3,18.9,124.8c0,58-11.7,113.2-33,163.4c-31.8,75.3-85.1,139.4-152.1,184.7c-33.5,22.6-70.4,40.5-109.8,52.8
		c-39.4,12.3-81.3,18.9-124.8,18.9c-58,0-113.2-11.7-163.4-33c-75.3-31.8-139.4-85.1-184.7-152.1c-22.6-33.5-40.5-70.4-52.8-109.8
		c-12.3-39.4-18.9-81.3-18.9-124.8c0-58,11.7-113.2,33-163.4c31.8-75.3,85.1-139.4,152.1-184.7c33.5-22.6,70.4-40.5,109.8-52.8
		c39.4-12.3,81.3-18.9,124.8-18.9V3436v-30c-66.2,0-129.3,13.4-186.7,37.7c-86.1,36.4-159.3,97.2-211,173.8
		c-25.9,38.3-46.3,80.5-60.4,125.6c-14,45.1-21.6,93-21.6,142.6c0,66.1,13.4,129.3,37.7,186.7c36.4,86.1,97.2,159.3,173.8,211
		c38.3,25.9,80.5,46.3,125.6,60.4c45.1,14,93,21.6,142.6,21.6c66.2,0,129.3-13.4,186.7-37.7c86.1-36.4,159.3-97.2,211-173.8
		c25.9-38.3,46.3-80.5,60.4-125.6c14-45.1,21.6-93,21.6-142.6c0-66.2-13.4-129.3-37.7-186.7c-36.4-86.1-97.2-159.3-173.8-211
		c-38.3-25.9-80.5-46.3-125.6-60.4c-45.1-14-93-21.6-142.6-21.6V3436z"/>
	<path class="st0" d="M1755.1,4715.6v-1664c0-16.6-13.4-30-30-30c-16.6,0-30,13.4-30,30v1664c0,16.6,13.4,30,30,30
		C1741.6,4745.6,1755.1,4732.1,1755.1,4715.6"/>
	<path class="st0" d="M927.4,3916h1664c16.6,0,30-13.4,30-30c0-16.6-13.4-30-30-30h-1664c-16.6,0-30,13.4-30,30
		C897.4,3902.6,910.8,3916,927.4,3916"/>
	<path class="st0" d="M2356.9,4477.3L1165,3285.4c-11.7-11.7-30.7-11.7-42.4,0c-11.7,11.7-11.7,30.7,0,42.4l1191.9,1191.9
		c11.7,11.7,30.7,11.7,42.4,0C2368.6,4508,2368.6,4489,2356.9,4477.3"/>
	<path class="st0" d="M1165,4489.1l1191.9-1191.9c11.7-11.7,11.7-30.7,0-42.4c-11.7-11.7-30.7-11.7-42.4,0L1122.6,4446.7
		c-11.7,11.7-11.7,30.7,0,42.4C1134.3,4500.8,1153.3,4500.8,1165,4489.1"/>
	<path class="st0" d="M928.6,3743.7l-1.2-29.6l0,29.6C928.2,3743.8,928.6,3743.7,928.6,3743.7l-1.2-29.6l0,29.6
		c21.2,0,40.6,4.3,58,11.9c13,5.7,24.9,13.3,35.4,22.3c15.8,13.6,28.5,30.5,37.2,49.3c8.7,18.8,13.5,39.5,13.5,60.5
		c0,11.9-1.5,24-4.7,35.9c-3.2,12-8,23.9-14.8,35.7c-12.1,21-29.1,38.2-49.2,50.6c-20,12.3-43.1,19.7-67.3,21.1
		c-16.5,0.9-29.2,15.1-28.3,31.6c0.9,16.5,15.1,29.2,31.6,28.3c34.3-1.9,67-12.4,95.4-29.9c28.4-17.5,52.5-41.9,69.7-71.7
		c9.4-16.3,16.3-33.2,20.8-50.2c4.5-17.1,6.7-34.3,6.7-51.4c0-26.7-5.3-52.8-15.1-76.8c-14.7-36.1-39.5-67.8-72-90.6
		c-16.2-11.4-34.4-20.6-54-26.9c-19.6-6.3-40.8-9.7-62.9-9.7c-0.9,0-1.3,0-1.3,0c-16.6,0.7-29.4,14.7-28.7,31.2
		C898.1,3731.6,912.1,3744.4,928.6,3743.7L928.6,3743.7z"/>
	<path class="st0" d="M1235.4,3189.7c14.6,14.6,25.1,30.8,32,47.9c6.9,17.1,10.2,35.1,10.2,53c0,15.4-2.5,30.7-7.2,45.3
		c-7.1,21.9-19.4,42.1-36.1,58.4c-8.3,8.2-17.8,15.4-28.4,21.5c-10.6,6-22.2,10.9-35,14.4c-12.3,3.3-24.8,4.9-37.2,4.9
		c-17.5,0-34.8-3.2-51-9.4c-16.3-6.2-31.5-15.3-44.8-27.2c-12.4-11-31.3-10-42.4,2.4c-11,12.4-10,31.3,2.4,42.4
		c18.9,16.9,40.5,29.9,63.5,38.6c23,8.7,47.5,13.3,72.3,13.3c17.6,0,35.3-2.3,52.7-7c23.7-6.3,45.2-16.5,63.9-29.4
		c14-9.7,26.5-21.1,37.3-33.6c16.2-18.8,28.7-40.2,37.1-63c8.4-22.8,12.8-47,12.8-71.5c0-25.4-4.7-51.1-14.6-75.5
		c-9.9-24.4-24.9-47.6-45.2-67.9c-11.7-11.7-30.7-11.7-42.4,0C1223.7,3159,1223.7,3178,1235.4,3189.7L1235.4,3189.7z"/>
	<path class="st0" d="M1867.9,3051.6h29.2l-29.2-0.3C1867.9,3051.3,1867.9,3051.4,1867.9,3051.6h29.2l-29.2-0.3
		C1867.9,3051.3,1867.9,3051.4,1867.9,3051.6c0,21.3-4.3,40.6-11.9,58c-5.7,13-13.3,24.9-22.3,35.4c-13.6,15.8-30.5,28.5-49.3,37.2
		c-18.8,8.7-39.5,13.5-60.5,13.5c-11.9,0-24-1.5-35.9-4.7c-12-3.2-23.9-8-35.7-14.8c-21-12.1-38.2-29.1-50.6-49.2
		c-12.3-20-19.7-43.1-21.1-67.3c-0.9-16.5-15.1-29.2-31.6-28.3c-16.5,0.9-29.2,15.1-28.3,31.6c1.9,34.3,12.4,67,29.9,95.4
		c17.5,28.4,41.9,52.5,71.7,69.7c16.3,9.4,33.2,16.3,50.2,20.8c17.1,4.5,34.3,6.7,51.4,6.7c26.7,0,52.8-5.3,76.8-15.1
		c36.1-14.7,67.8-39.5,90.6-72c11.4-16.2,20.6-34.4,26.9-54c6.3-19.6,9.7-40.8,9.7-62.9h-29.5l29.5,0.2c0-0.1,0-0.1,0-0.2h-29.5
		l29.5,0.2l-28.7-0.2l28.7,0.3l0-0.1l-28.7-0.2l28.7,0.3l-17.5-0.2l17.5,0.2v0l-17.5-0.2l17.5,0.2c0,0,0-0.1,0-0.3
		c0-16.6-13.4-30-30-30C1881.4,3021.6,1867.9,3035,1867.9,3051.6L1867.9,3051.6z"/>
	<path class="st0" d="M2439.7,3369.2c-14.6,14.6-30.8,25.1-47.9,32c-17.1,6.9-35.1,10.2-53,10.2c-15.4,0-30.7-2.5-45.3-7.2
		c-21.9-7.1-42.1-19.4-58.4-36.1c-8.2-8.3-15.4-17.8-21.5-28.4c-6-10.6-10.9-22.2-14.4-35c-3.3-12.3-4.9-24.8-4.9-37.2
		c0-17.5,3.2-34.8,9.4-51c6.2-16.3,15.3-31.5,27.2-44.8c11-12.4,10-31.3-2.4-42.4c-12.4-11-31.3-10-42.4,2.4
		c-16.9,18.9-29.9,40.5-38.6,63.5c-8.7,23-13.3,47.5-13.3,72.3c0,17.6,2.3,35.3,7,52.8c6.3,23.7,16.5,45.2,29.4,63.9
		c9.7,14,21.1,26.5,33.6,37.3c18.8,16.2,40.2,28.7,63,37.1c22.8,8.4,47,12.8,71.5,12.8c25.4,0,51.1-4.7,75.5-14.6
		c24.4-9.9,47.6-24.9,67.9-45.2c11.7-11.7,11.7-30.7,0-42.4C2470.4,3357.5,2451.4,3357.5,2439.7,3369.2L2439.7,3369.2z"/>
	<path class="st0" d="M2591.4,4031v29.1l0.3-29.1C2591.7,4031,2591.6,4031,2591.4,4031v29.1l0.3-29.1
		C2591.7,4031,2591.6,4031,2591.4,4031c-21.3,0-40.6-4.3-58-11.9c-13-5.7-24.9-13.3-35.4-22.3c-15.8-13.6-28.5-30.5-37.2-49.3
		c-8.7-18.8-13.5-39.5-13.5-60.5c0-11.9,1.5-24,4.7-35.9c3.2-12,8-23.9,14.8-35.7c12.1-21,29.1-38.2,49.2-50.6
		c20-12.3,43.1-19.7,67.3-21.1c16.5-0.9,29.2-15.1,28.3-31.6c-0.9-16.5-15.1-29.2-31.6-28.3c-34.3,1.9-67,12.4-95.4,29.9
		c-28.4,17.5-52.5,41.9-69.7,71.7c-9.4,16.3-16.3,33.2-20.8,50.2c-4.5,17.1-6.7,34.3-6.7,51.4c0,26.7,5.3,52.8,15.1,76.8
		c14.7,36.1,39.5,67.8,72,90.6c16.2,11.4,34.4,20.6,54,26.9c19.6,6.3,40.8,9.7,62.9,9.7v-29.5l-0.2,29.5c0,0,0.1,0,0.2,0v-29.5
		l-0.2,29.5l0.2-28.6l-0.3,28.6l0.1,0l0.2-28.6l-0.3,28.6l0,0c0,0,0.1,0,0.3,0c16.6,0,30-13.4,30-30S2608,4031,2591.4,4031
		L2591.4,4031z"/>
	<path class="st0" d="M2236.6,4607.6c-14.6-14.6-25.1-30.8-32-47.9c-6.9-17.1-10.2-35.1-10.2-53c0-15.4,2.5-30.7,7.2-45.3
		c7.1-21.9,19.4-42.1,36.1-58.4c8.3-8.2,17.8-15.4,28.4-21.5c10.6-6,22.2-10.9,35-14.4c12.3-3.3,24.8-4.9,37.2-4.9
		c17.5,0,34.8,3.2,51,9.4c16.3,6.2,31.5,15.3,44.8,27.2c12.4,11,31.3,10,42.4-2.4c11-12.4,10-31.3-2.4-42.4
		c-18.9-16.9-40.5-29.9-63.5-38.6c-23-8.7-47.5-13.3-72.3-13.3c-17.6,0-35.3,2.3-52.8,7c-23.7,6.3-45.2,16.5-63.9,29.4
		c-14,9.7-26.5,21.1-37.3,33.6c-16.2,18.8-28.7,40.2-37.1,63c-8.4,22.8-12.8,47-12.8,71.5c0,25.4,4.7,51.1,14.6,75.5
		c9.9,24.4,24.9,47.6,45.2,67.9c11.7,11.7,30.7,11.7,42.4,0C2248.3,4638.3,2248.3,4619.4,2236.6,4607.6L2236.6,4607.6z"/>
	<path class="st0" d="M1579.7,4715l-29.1,0.6h29.1C1579.7,4715.1,1579.7,4715,1579.7,4715l-29.1,0.6h29.1c0-21.2,4.3-40.6,11.9-58
		c5.7-13,13.3-24.9,22.3-35.4c13.6-15.8,30.5-28.5,49.3-37.2c18.8-8.7,39.5-13.5,60.5-13.5c11.9,0,24,1.5,35.9,4.7
		c12,3.2,23.9,8,35.7,14.8c21,12.1,38.2,29.1,50.6,49.2c12.3,20,19.7,43.1,21.1,67.3c0.9,16.5,15.1,29.2,31.6,28.3
		c16.5-0.9,29.2-15.1,28.3-31.6c-1.9-34.3-12.4-67-29.9-95.4c-17.5-28.4-41.9-52.5-71.7-69.7c-16.3-9.4-33.2-16.3-50.2-20.8
		c-17.1-4.5-34.3-6.7-51.4-6.7c-26.7,0-52.8,5.3-76.8,15.1c-36.1,14.7-67.8,39.5-90.6,72c-11.4,16.2-20.6,34.4-26.9,54
		c-6.3,19.6-9.7,40.8-9.7,62.9c0,0.4,0,0.6,0,0.6c0.3,16.6,14,29.7,30.6,29.4C1566.9,4745.2,1580,4731.5,1579.7,4715L1579.7,4715z"
		/>
	<path class="st0" d="M1035.3,4368.5c14.6-14.6,30.8-25.1,47.9-32c17.1-6.9,35.1-10.2,53-10.2c15.4,0,30.7,2.5,45.3,7.2
		c21.9,7.1,42.1,19.4,58.4,36.1c8.2,8.3,15.4,17.8,21.5,28.4c6,10.6,10.9,22.2,14.4,35c3.3,12.3,4.9,24.8,4.9,37.2
		c0,17.5-3.2,34.8-9.4,51c-6.2,16.3-15.3,31.5-27.2,44.8c-11,12.4-10,31.3,2.4,42.4c12.4,11,31.3,10,42.4-2.4
		c16.9-18.9,29.9-40.5,38.6-63.5c8.7-23,13.3-47.5,13.3-72.3c0-17.6-2.3-35.3-7-52.7c-6.3-23.7-16.5-45.2-29.4-63.9
		c-9.7-14-21.1-26.5-33.6-37.3c-18.8-16.2-40.2-28.7-63-37.1c-22.8-8.4-47-12.8-71.5-12.8c-25.4,0-51.1,4.7-75.5,14.6
		c-24.4,9.9-47.6,24.9-67.9,45.2c-11.7,11.7-11.7,30.7,0,42.4C1004.6,4380.2,1023.6,4380.2,1035.3,4368.5L1035.3,4368.5z"/>
</g>
</svg>
