<svg version="1.2" xmlns="http://www.w3.org/2000/svg" viewBox="0 0 6000 6000" width="6000" height="6000">
	<title>off-duck-button-svg</title>
	<style>
		.s0 { fill: #dddddd } 
	</style>
	<g id="Layer">
		<path id="Layer" class="s0" d="m2329.1 4714.4l1974 1.1c0 0 97.2 2.6 149.5-28.1 78.8-46.1 199.4-138.7 330.6-285.5 294.4-329.5 423.9-692.5 452.3-1013.4 28.4-320.9-63.8-687.4-132.4-824.7-32-63.9-82.1-73.4-121.2-59.1-83 30.5-222.3 151.5-314.5 194.2-92.7 43-113 67.1-379.6 140.8-266.6 73.6-459.9 81-459.9 81 0 0 278.6-423.5-62.9-913.5-341.4-490-907.8-456.6-1063.3-420.6-155.4 36-376.4 108.3-535.1 292-158.7 183.7-183.3 317.6-183.3 317.6 0 0-47.7 12.7-92 7.1-59.5-7.5-230-45.1-300.5-36-77.3 9.9-117 76.4-129.3 144.1-14.2 78.3 6.6 219.3 227.8 384.8 131 98 390.9 210 390.9 210 0 0 24.6 39.6 37.8 58.4 15.5 21.9 48.3 63.8 48.3 63.8 0 0-337.1 291.8-373.4 701.2-12.4 139.4-19.1 380.3 129.6 646.9 48.6 87.2 144.4 226.3 239.9 298.6 60.4 45.6 166.7 39.3 166.7 39.3z"/>
	</g>
</svg>