<svg class="svg-icon" style="width: 1em; height: 1em;vertical-align: middle;fill: currentColor;overflow: hidden;" viewBox="0 0 1024 1024" version="1.1" xmlns="http://www.w3.org/2000/svg"><path d="M461.560409 102.415667a51.19913 51.19913 0 0 1 5.990299 102.039865L461.560409 204.813926H102.398515v716.787815l716.787815-0.153598V563.207833a51.19913 51.19913 0 0 1 102.039865-5.990298l0.358394 5.990298v358.189111a102.398259 102.398259 0 0 1-94.769589 102.295861l-7.679869 0.255996H102.449714a102.34706 102.34706 0 0 1-102.193462-94.769589L0.000256 921.550542V204.865125c0-54.066281 41.829689-98.302329 94.974385-102.193462L102.654511 102.415667h358.905898zM919.690221 30.429691l73.829145 73.829145a104.13903 104.13903 0 0 1-0.153597 147.351095L477.636936 767.389962l-193.942303 48.639174c-55.807051 14.028562-89.700875-20.070059-75.774712-75.774712l48.690373-193.942303L772.287927 30.583288a104.343826 104.343826 0 0 1 147.402294-0.153597zM389.881628 563.207833l-33.53543 33.586629L332.794598 691.205658l94.001602-23.039609 33.996223-34.047421L389.881628 563.207833z m353.785986-358.393907L460.792423 487.791516 536.25994 563.207833 819.18633 280.383841 743.718813 204.813926z" fill="#ffba00" /></svg>